NotoSerifBengali.glyphspackage
{
category = Punctuation;
glyphname = exclam;
layers = (
{
layerId = "94EB6DF8-7434-4BE0-9F23-77BCD575F5B8";
shapes = (
{
closed = 1;
nodes = (
(158,167,l),
(161,714,l),
(133,714,l),
(138,167,l)
);
},
{
closed = 1;
nodes = (
(162,-5,o),
(175,4,o),
(175,35,cs),
(175,65,o),
(162,73,o),
(146,73,cs),
(131,73,o),
(117,65,o),
(117,35,cs),
(117,4,o),
(131,-5,o),
(146,-5,cs)
);
}
);
vertWidth = 0;
width = 283;
},
{
layerId = "B2542900-2B87-4688-8902-A06B6D3D93DD";
shapes = (
{
closed = 1;
nodes = (
(199,198,l),
(231,714,l),
(124,714,l),
(156,198,l)
);
},
{
closed = 1;
nodes = (
(209,-7,o),
(237,9,o),
(237,59,cs),
(237,108,o),
(209,124,o),
(177,124,cs),
(144,124,o),
(117,108,o),
(117,59,cs),
(117,9,o),
(144,-7,o),
(177,-7,cs)
);
}
);
vertWidth = 0;
width = 341;
},
{
layerId = "18A8C34B-6260-4854-BBF8-229863F38B25";
shapes = (
{
closed = 1;
nodes = (
(243,229,l),
(303,714,l),
(127,714,l),
(187,229,l)
);
},
{
closed = 1;
nodes = (
(260,-8,o),
(299,12,o),
(299,72,cs),
(299,134,o),
(260,153,o),
(216,153,cs),
(169,153,o),
(133,134,o),
(133,72,cs),
(133,12,o),
(169,-8,o),
(216,-8,cs)
);
}
);
vertWidth = 0;
width = 407;
},
{
layerId = "33F2F8B2-CCE7-4937-A852-9C044B0330C5";
shapes = (
{
closed = 1;
nodes = (
(122,167,l),
(124,714,l),
(96,714,l),
(98,167,l)
);
},
{
closed = 1;
nodes = (
(123,-5,o),
(137,5,o),
(137,34,cs),
(137,64,o),
(123,74,o),
(109,74,cs),
(92,74,o),
(79,64,o),
(79,34,cs),
(79,5,o),
(92,-5,o),
(109,-5,cs)
);
}
);
vertWidth = 0;
width = 216;
},
{
layerId = "5278E13D-D735-4789-ABCD-F52B0BBC306E";
shapes = (
{
closed = 1;
nodes = (
(160,208,l),
(188,714,l),
(85,714,l),
(113,208,l)
);
},
{
closed = 1;
nodes = (
(164,-7,o),
(188,8,o),
(188,55,cs),
(188,102,o),
(164,117,o),
(137,117,cs),
(108,117,o),
(86,102,o),
(86,55,cs),
(86,8,o),
(108,-7,o),
(137,-7,cs)
);
}
);
vertWidth = 0;
width = 274;
},
{
layerId = "03D26766-37BE-4C80-9191-ECBB7A84F3C2";
shapes = (
{
closed = 1;
nodes = (
(207,235,l),
(265,714,l),
(84,714,l),
(142,235,l)
);
},
{
closed = 1;
nodes = (
(219,-8,o),
(256,12,o),
(256,74,cs),
(256,136,o),
(219,156,o),
(176,156,cs),
(131,156,o),
(96,136,o),
(96,74,cs),
(96,12,o),
(131,-8,o),
(176,-8,cs)
);
}
);
vertWidth = 0;
width = 349;
}
);
script = "";
subCategory = Other;
unicode = 33;
}
{
category = Punctuation;
glyphname = quotesingle;
layers = (
{
layerId = "94EB6DF8-7434-4BE0-9F23-77BCD575F5B8";
shapes = (
{
closed = 1;
nodes = (
(77,529,l),
(87,714,l),
(45,714,l),
(57,529,l)
);
}
);
vertWidth = 0;
width = 132;
},
{
layerId = "B2542900-2B87-4688-8902-A06B6D3D93DD";
shapes = (
{
closed = 1;
nodes = (
(127,484,l),
(155,714,l),
(56,714,l),
(83,484,l)
);
}
);
vertWidth = 0;
width = 211;
},
{
layerId = "18A8C34B-6260-4854-BBF8-229863F38B25";
shapes = (
{
closed = 1;
nodes = (
(180,438,l),
(226,714,l),
(67,714,l),
(113,438,l)
);
}
);
vertWidth = 0;
width = 293;
},
{
layerId = "33F2F8B2-CCE7-4937-A852-9C044B0330C5";
shapes = (
{
closed = 1;
nodes = (
(67,525,l),
(79,714,l),
(36,714,l),
(48,525,l)
);
}
);
vertWidth = 0;
width = 115;
},
{
layerId = "5278E13D-D735-4789-ABCD-F52B0BBC306E";
shapes = (
{
closed = 1;
nodes = (
(115,483,l),
(142,714,l),
(48,714,l),
(75,483,l)
);
}
);
vertWidth = 0;
width = 190;
},
{
layerId = "03D26766-37BE-4C80-9191-ECBB7A84F3C2";
shapes = (
{
closed = 1;
nodes = (
(176,429,l),
(223,714,l),
(62,714,l),
(109,429,l)
);
}
);
vertWidth = 0;
width = 285;
}
);
script = "";
subCategory = Quote;
unicode = 39;
}
{
category = Punctuation;
glyphname = parenleft;
layers = (
{
layerId = "94EB6DF8-7434-4BE0-9F23-77BCD575F5B8";
shapes = (
{
closed = 1;
nodes = (
(228,-90,l),
(78,-21,o),
(67,156,o),
(67,315,cs),
(67,474,o),
(75,659,o),
(228,719,c),
(228,744,l),
(94,693,o),
(39,587,o),
(39,315,cs),
(39,44,o),
(94,-61,o),
(228,-114,c)
);
}
);
vertWidth = 0;
width = 306;
},
{
layerId = "B2542900-2B87-4688-8902-A06B6D3D93DD";
shapes = (
{
closed = 1;
nodes = (
(284,-83,l),
(146,-1,o),
(130,158,o),
(130,317,cs),
(130,476,o),
(146,635,o),
(284,715,c),
(284,758,l),
(105,688,o),
(34,560,o),
(34,317,cs),
(34,73,o),
(105,-56,o),
(284,-126,c)
);
}
);
vertWidth = 0;
width = 372;
},
{
layerId = "BB0A671B-466D-4412-B862-1FE3A30BF7BB";
shapes = (
{
closed = 1;
nodes = (
(326,-78,l),
(196,4,o),
(175,159,o),
(175,318,cs),
(175,476,o),
(196,630,o),
(326,712,c),
(326,766,l),
(121,685,o),
(40,544,o),
(40,318,cs),
(40,90,o),
(121,-53,o),
(326,-134,c)
);
}
);
vertWidth = 0;
width = 420;
},
{
layerId = "18A8C34B-6260-4854-BBF8-229863F38B25";
shapes = (
{
closed = 1;
nodes = (
(357,-75,l),
(233,7,o),
(207,159,o),
(207,318,cs),
(207,476,o),
(233,626,o),
(357,709,c),
(357,772,l),
(132,683,o),
(44,532,o),
(44,318,cs),
(44,103,o),
(132,-50,o),
(357,-139,c)
);
}
);
vertWidth = 0;
width = 455;
},
{
layerId = "33F2F8B2-CCE7-4937-A852-9C044B0330C5";
shapes = (
{
closed = 1;
nodes = (
(197,-87,l),
(128,-53,o),
(71,96,o),
(71,315,cs),
(71,534,o),
(128,683,o),
(197,717,c),
(197,745,l),
(107,702,o),
(43,565,o),
(43,315,cs),
(43,62,o),
(107,-72,o),
(197,-115,c)
);
}
);
vertWidth = 0;
width = 221;
},
{
layerId = "5278E13D-D735-4789-ABCD-F52B0BBC306E";
shapes = (
{
closed = 1;
nodes = (
(260,-83,l),
(154,0,o),
(140,158,o),
(140,317,cs),
(140,476,o),
(154,632,o),
(260,716,c),
(260,758,l),
(106,688,o),
(45,560,o),
(45,317,cs),
(45,73,o),
(106,-55,o),
(260,-127,c)
);
}
);
vertWidth = 0;
width = 284;
},
{
layerId = "E72CC6C8-F2F5-4BE7-9263-7F4440809454";
shapes = (
{
closed = 1;
nodes = (
(307,-77,l),
(207,5,o),
(185,159,o),
(185,318,cs),
(185,476,o),
(207,628,o),
(307,711,c),
(307,768,l),
(120,685,o),
(46,540,o),
(46,318,cs),
(46,94,o),
(120,-51,o),
(307,-136,c)
);
}
);
vertWidth = 0;
width = 332;
},
{
layerId = "03D26766-37BE-4C80-9191-ECBB7A84F3C2";
shapes = (
{
closed = 1;
nodes = (
(341,-73,l),
(245,8,o),
(217,159,o),
(217,318,cs),
(217,476,o),
(245,625,o),
(341,708,c),
(341,775,l),
(130,682,o),
(47,526,o),
(47,318,cs),
(47,109,o),
(130,-48,o),
(341,-142,c)
);
}
);
vertWidth = 0;
width = 367;
}
);
script = "";
subCategory = Parenthesis;
unicode = 40;
}
{
category = Punctuation;
glyphname = asterisk;
layers = (
{
layerId = "94EB6DF8-7434-4BE0-9F23-77BCD575F5B8";
shapes = (
{
closed = 1;
nodes = (
(231,378,l),
(217,554,l),
(352,469,l),
(369,506,l),
(214,569,l),
(369,632,l),
(352,672,l),
(217,584,l),
(229,760,l),
(186,760,l),
(200,585,l),
(66,674,l),
(47,633,l),
(201,569,l),
(47,505,l),
(66,467,l),
(199,554,l),
(186,378,l)
);
}
);
vertWidth = 0;
width = 420;
},
{
layerId = "B2542900-2B87-4688-8902-A06B6D3D93DD";
shapes = (
{
closed = 1;
nodes = (
(285,378,l),
(258,538,l),
(411,445,l),
(444,519,l),
(277,569,l),
(444,620,l),
(411,693,l),
(258,600,l),
(284,760,l),
(202,760,l),
(227,600,l),
(75,696,l),
(41,621,l),
(208,569,l),
(41,518,l),
(75,443,l),
(226,538,l),
(202,378,l)
);
}
);
vertWidth = 0;
width = 492;
},
{
layerId = "18A8C34B-6260-4854-BBF8-229863F38B25";
shapes = (
{
closed = 1;
nodes = (
(308,367,l),
(272,529,l),
(422,424,l),
(468,524,l),
(313,563,l),
(468,603,l),
(422,703,l),
(272,599,l),
(309,760,l),
(196,760,l),
(229,597,l),
(80,705,l),
(35,604,l),
(190,563,l),
(35,523,l),
(80,423,l),
(229,530,l),
(196,367,l)
);
}
);
vertWidth = 0;
width = 503;
},
{
layerId = "33F2F8B2-CCE7-4937-A852-9C044B0330C5";
shapes = (
{
closed = 1;
nodes = (
(191,382,l),
(178,550,l),
(287,464,l),
(303,509,l),
(180,571,l),
(303,633,l),
(287,678,l),
(178,592,l),
(191,760,l),
(149,760,l),
(161,593,l),
(52,680,l),
(35,634,l),
(158,571,l),
(35,508,l),
(52,462,l),
(161,549,l),
(149,382,l)
);
}
);
vertWidth = 0;
width = 343;
},
{
layerId = "5278E13D-D735-4789-ABCD-F52B0BBC306E";
shapes = (
{
closed = 1;
nodes = (
(224,374,l),
(201,541,l),
(316,445,l),
(345,516,l),
(222,567,l),
(345,618,l),
(316,689,l),
(201,594,l),
(224,760,l),
(153,760,l),
(174,593,l),
(60,691,l),
(31,619,l),
(154,567,l),
(31,515,l),
(60,443,l),
(174,541,l),
(153,374,l)
);
}
);
vertWidth = 0;
width = 376;
},
{
layerId = "03D26766-37BE-4C80-9191-ECBB7A84F3C2";
shapes = (
{
closed = 1;
nodes = (
(266,363,l),
(232,526,l),
(354,420,l),
(398,524,l),
(276,561,l),
(398,599,l),
(354,703,l),
(232,596,l),
(267,760,l),
(159,760,l),
(191,594,l),
(69,705,l),
(26,600,l),
(148,561,l),
(26,523,l),
(69,418,l),
(190,528,l),
(159,363,l)
);
}
);
vertWidth = 0;
width = 419;
}
);
script = "";
subCategory = Other;
unicode = 42;
}
{
category = Number;
glyphname = zero;
layers = (
{
layerId = "94EB6DF8-7434-4BE0-9F23-77BCD575F5B8";
shapes = (
{
closed = 1;
nodes = (
(427,-10,o),
(500,112,o),
(500,358,cs),
(500,608,o),
(426,724,o),
(281,724,cs),
(127,724,o),
(59,604,o),
(59,359,cs),
(59,104,o),
(129,-10,o),
(280,-10,cs)
);
},
{
closed = 1;
nodes = (
(145,15,o),
(87,121,o),
(87,358,cs),
(87,578,o),
(135,699,o),
(280,699,cs),
(420,699,o),
(472,585,o),
(472,358,cs),
(472,129,o),
(414,15,o),
(279,15,cs)
);
}
);
vertWidth = 0;
width = 559;
},
{
layerId = "B2542900-2B87-4688-8902-A06B6D3D93DD";
shapes = (
{
closed = 1;
nodes = (
(437,-10,o),
(514,137,o),
(514,358,cs),
(514,580,o),
(437,724,o),
(281,724,cs),
(115,724,o),
(45,580,o),
(45,359,cs),
(45,137,o),
(115,-10,o),
(280,-10,cs)
);
},
{
closed = 1;
nodes = (
(183,44,o),
(149,160,o),
(149,358,cs),
(149,556,o),
(183,670,o),
(281,670,cs),
(377,670,o),
(410,556,o),
(410,358,cs),
(410,160,o),
(377,44,o),
(280,44,cs)
);
}
);
vertWidth = 0;
width = 559;
},
{
layerId = "18A8C34B-6260-4854-BBF8-229863F38B25";
shapes = (
{
closed = 1;
nodes = (
(454,-10,o),
(525,137,o),
(525,358,cs),
(525,580,o),
(454,724,o),
(281,724,cs),
(97,724,o),
(34,580,o),
(34,359,cs),
(34,137,o),
(97,-10,o),
(280,-10,cs)
);
},
{
closed = 1;
nodes = (
(206,55,o),
(189,167,o),
(189,358,cs),
(189,549,o),
(206,659,o),
(281,659,cs),
(354,659,o),
(370,549,o),
(370,358,cs),
(370,167,o),
(354,55,o),
(280,55,cs)
);
}
);
vertWidth = 0;
width = 559;
},
{
layerId = "33F2F8B2-CCE7-4937-A852-9C044B0330C5";
shapes = (
{
closed = 1;
nodes = (
(319,-10,o),
(381,105,o),
(381,358,cs),
(381,600,o),
(325,724,o),
(213,724,cs),
(92,724,o),
(43,590,o),
(43,359,cs),
(43,114,o),
(99,-10,o),
(212,-10,cs)
);
},
{
closed = 1;
nodes = (
(112,15,o),
(71,141,o),
(71,358,cs),
(71,575,o),
(112,699,o),
(213,699,cs),
(312,699,o),
(353,575,o),
(353,358,cs),
(353,141,o),
(312,15,o),
(212,15,cs)
);
}
);
vertWidth = 0;
width = 425;
},
{
layerId = "5278E13D-D735-4789-ABCD-F52B0BBC306E";
shapes = (
{
closed = 1;
nodes = (
(352,-10,o),
(408,125,o),
(408,358,cs),
(408,594,o),
(355,724,o),
(222,724,cs),
(81,724,o),
(33,588,o),
(33,359,cs),
(33,121,o),
(84,-10,o),
(221,-10,cs)
);
},
{
closed = 1;
nodes = (
(147,40,o),
(124,157,o),
(124,358,cs),
(124,559,o),
(147,674,o),
(222,674,cs),
(295,674,o),
(319,559,o),
(319,358,cs),
(319,157,o),
(295,40,o),
(221,40,cs)
);
}
);
vertWidth = 0;
width = 442;
},
{
layerId = "03D26766-37BE-4C80-9191-ECBB7A84F3C2";
shapes = (
{
closed = 1;
nodes = (
(389,-10,o),
(444,134,o),
(444,358,cs),
(444,584,o),
(389,724,o),
(234,724,cs),
(70,724,o),
(21,582,o),
(21,359,cs),
(21,133,o),
(70,-10,o),
(233,-10,cs)
);
},
{
closed = 1;
nodes = (
(185,57,o),
(182,168,o),
(182,358,cs),
(182,548,o),
(185,657,o),
(234,657,cs),
(280,657,o),
(283,548,o),
(283,358,cs),
(283,168,o),
(280,57,o),
(233,57,cs)
);
}
);
vertWidth = 0;
width = 466;
}
);
script = "";
subCategory = "Decimal Digit";
unicode = 48;
}
{
category = Number;
glyphname = one;
layers = (
{
layerId = "94EB6DF8-7434-4BE0-9F23-77BCD575F5B8";
shapes = (
{
closed = 1;
nodes = (
(467,0,l),
(467,22,l),
(368,22,ls),
(318,22,o),
(312,31,o),
(312,108,cs),
(312,718,l),
(292,718,l),
(261,682,ls),
(207,619,o),
(157,583,o),
(88,578,c),
(88,567,o),
(96,558,o),
(120,558,cs),
(167,558,o),
(217,588,o),
(284,675,c),
(284,108,ls),
(284,31,o),
(278,22,o),
(228,22,cs),
(126,22,l),
(126,0,l)
);
}
);
vertWidth = 0;
width = 559;
},
{
layerId = "B2542900-2B87-4688-8902-A06B6D3D93DD";
shapes = (
{
closed = 1;
nodes = (
(477,0,l),
(477,42,l),
(428,42,ls),
(383,42,o),
(346,51,o),
(346,114,cs),
(346,718,l),
(282,718,l),
(212,666,ls),
(146,617,o),
(106,599,o),
(66,589,c),
(66,557,o),
(87,535,o),
(116,535,cs),
(156,535,o),
(194,577,o),
(245,639,c),
(245,114,ls),
(245,51,o),
(208,42,o),
(163,42,cs),
(96,42,l),
(96,0,l)
);
}
);
vertWidth = 0;
width = 559;
},
{
layerId = "BB0A671B-466D-4412-B862-1FE3A30BF7BB";
shapes = (
{
closed = 1;
nodes = (
(496,0,l),
(496,48,l),
(429,48,ls),
(385,48,o),
(365,66,o),
(365,116,cs),
(365,718,l),
(273,718,l),
(203,666,ls),
(137,617,o),
(92,599,o),
(52,589,c),
(52,549,o),
(76,523,o),
(107,523,cs),
(147,523,o),
(185,565,o),
(236,627,c),
(236,116,ls),
(236,61,o),
(211,48,o),
(172,48,cs),
(97,48,l),
(97,0,l)
);
}
);
vertWidth = 0;
width = 559;
},
{
layerId = "18A8C34B-6260-4854-BBF8-229863F38B25";
shapes = (
{
closed = 1;
nodes = (
(510,0,l),
(510,53,l),
(429,53,ls),
(387,53,o),
(378,76,o),
(378,118,cs),
(378,718,l),
(266,718,l),
(196,666,ls),
(130,617,o),
(82,599,o),
(42,589,c),
(42,544,o),
(68,515,o),
(100,515,cs),
(140,515,o),
(178,557,o),
(229,619,c),
(229,118,ls),
(229,68,o),
(213,53,o),
(179,53,cs),
(97,53,l),
(97,0,l)
);
}
);
vertWidth = 0;
width = 559;
},
{
layerId = "33F2F8B2-CCE7-4937-A852-9C044B0330C5";
shapes = (
{
closed = 1;
nodes = (
(363,0,l),
(363,20,l),
(298,20,ls),
(250,20,o),
(242,30,o),
(242,105,cs),
(242,718,l),
(224,718,l),
(180,666,ls),
(134,611,o),
(97,597,o),
(63,587,c),
(63,577,o),
(76,571,o),
(88,571,cs),
(132,571,o),
(168,612,o),
(214,668,c),
(214,105,ls),
(214,30,o),
(206,20,o),
(158,20,cs),
(86,20,l),
(86,0,l)
);
}
);
vertWidth = 0;
width = 425;
},
{
layerId = "5278E13D-D735-4789-ABCD-F52B0BBC306E";
shapes = (
{
closed = 1;
nodes = (
(376,0,l),
(376,41,l),
(342,41,ls),
(302,41,o),
(275,51,o),
(275,113,cs),
(275,718,l),
(220,718,l),
(165,667,ls),
(112,619,o),
(79,601,o),
(47,591,c),
(47,560,o),
(64,541,o),
(88,541,cs),
(119,541,o),
(151,583,o),
(190,640,c),
(190,113,ls),
(190,48,o),
(163,41,o),
(123,41,cs),
(79,41,l),
(79,0,l)
);
}
);
vertWidth = 0;
width = 442;
},
{
layerId = "E72CC6C8-F2F5-4BE7-9263-7F4440809454";
shapes = (
{
closed = 1;
nodes = (
(411,0,l),
(411,50,l),
(366,50,ls),
(331,50,o),
(310,68,o),
(310,116,cs),
(310,718,l),
(215,718,l),
(158,669,ls),
(103,621,o),
(64,604,o),
(31,594,c),
(31,552,o),
(52,527,o),
(79,527,cs),
(112,527,o),
(145,563,o),
(185,620,c),
(185,116,ls),
(185,61,o),
(160,50,o),
(128,50,cs),
(70,50,l),
(70,0,l)
);
}
);
vertWidth = 0;
width = 456;
},
{
layerId = "03D26766-37BE-4C80-9191-ECBB7A84F3C2";
shapes = (
{
closed = 1;
nodes = (
(437,0,l),
(437,56,l),
(384,56,ls),
(352,56,o),
(335,80,o),
(335,119,cs),
(335,718,l),
(211,718,l),
(153,670,ls),
(96,623,o),
(53,606,o),
(20,596,c),
(20,547,o),
(44,517,o),
(73,517,cs),
(107,517,o),
(141,548,o),
(181,606,c),
(181,119,ls),
(181,70,o),
(158,56,o),
(132,56,cs),
(64,56,l),
(64,0,l)
);
}
);
vertWidth = 0;
width = 466;
}
);
script = "";
subCategory = "Decimal Digit";
unicode = 49;
}
{
category = Number;
glyphname = two;
layers = (
{
layerId = "94EB6DF8-7434-4BE0-9F23-77BCD575F5B8";
shapes = (
{
closed = 1;
nodes = (
(469,0,l),
(474,127,l),
(454,127,l),
(452,95,ls),
(449,39,o),
(443,25,o),
(391,25,cs),
(92,25,l),
(289,249,ls),
(396,371,o),
(445,428,o),
(445,541,cs),
(445,634,o),
(390,724,o),
(254,724,cs),
(132,724,o),
(76,650,o),
(76,602,cs),
(76,578,o),
(85,564,o),
(99,564,c),
(99,649,o),
(156,699,o),
(254,699,cs),
(378,699,o),
(417,612,o),
(417,539,cs),
(417,439,o),
(372,382,o),
(259,253,cs),
(57,22,l),
(57,0,l)
);
}
);
vertWidth = 0;
width = 559;
},
{
layerId = "B2542900-2B87-4688-8902-A06B6D3D93DD";
shapes = (
{
closed = 1;
nodes = (
(491,0,l),
(496,173,l),
(454,173,l),
(450,155,ls),
(441,116,o),
(426,80,o),
(366,80,cs),
(135,80,l),
(304,267,ls),
(409,383,o),
(471,464,o),
(471,557,cs),
(471,658,o),
(394,724,o),
(268,724,cs),
(139,724,o),
(72,667,o),
(72,590,cs),
(72,539,o),
(110,525,o),
(158,525,c),
(158,604,o),
(177,674,o),
(268,674,cs),
(338,674,o),
(370,623,o),
(370,547,cs),
(370,455,o),
(334,389,o),
(228,266,cs),
(61,73,l),
(61,0,l)
);
}
);
vertWidth = 0;
width = 559;
},
{
layerId = "18A8C34B-6260-4854-BBF8-229863F38B25";
shapes = (
{
closed = 1;
nodes = (
(508,0,l),
(513,210,l),
(454,210,l),
(446,179,ls),
(434,135,o),
(404,110,o),
(363,110,cs),
(130,110,l),
(230,205,l),
(430,395,o),
(488,465,o),
(488,558,cs),
(488,661,o),
(408,724,o),
(259,724,cs),
(113,724,o),
(39,661,o),
(39,589,cs),
(39,517,o),
(91,490,o),
(167,490,c),
(167,604,o),
(191,663,o),
(259,663,cs),
(307,663,o),
(337,629,o),
(337,553,cs),
(337,450,o),
(306,380,o),
(183,254,cs),
(35,103,l),
(35,0,l)
);
}
);
vertWidth = 0;
width = 559;
},
{
layerId = "33F2F8B2-CCE7-4937-A852-9C044B0330C5";
shapes = (
{
closed = 1;
nodes = (
(357,0,l),
(359,131,l),
(339,131,l),
(338,96,ls),
(337,45,o),
(331,28,o),
(278,28,cs),
(78,28,l),
(232,283,ls),
(293,384,o),
(336,459,o),
(336,558,cs),
(336,653,o),
(289,724,o),
(199,724,cs),
(104,724,o),
(65,650,o),
(65,602,cs),
(65,574,o),
(74,563,o),
(88,563,c),
(88,639,o),
(120,699,o),
(199,699,cs),
(277,699,o),
(308,639,o),
(308,553,cs),
(308,469,o),
(274,399,o),
(202,280,cs),
(46,22,l),
(46,0,l)
);
}
);
vertWidth = 0;
width = 425;
},
{
layerId = "5278E13D-D735-4789-ABCD-F52B0BBC306E";
shapes = (
{
closed = 1;
nodes = (
(395,0,l),
(398,170,l),
(359,170,l),
(355,151,ls),
(346,104,o),
(332,77,o),
(288,77,cs),
(105,77,l),
(241,259,ls),
(324,364,o),
(380,448,o),
(380,554,cs),
(380,655,o),
(316,724,o),
(209,724,cs),
(100,724,o),
(45,666,o),
(45,595,cs),
(45,545,o),
(82,530,o),
(120,530,c),
(120,606,o),
(137,675,o),
(209,675,cs),
(263,675,o),
(289,624,o),
(289,545,cs),
(289,455,o),
(262,380,o),
(175,260,cs),
(37,67,l),
(37,0,l)
);
}
);
vertWidth = 0;
width = 442;
},
{
layerId = "03D26766-37BE-4C80-9191-ECBB7A84F3C2";
shapes = (
{
closed = 1;
nodes = (
(440,0,l),
(444,220,l),
(384,220,l),
(375,185,ls),
(364,138,o),
(329,118,o),
(307,118,cs),
(128,118,l),
(240,229,ls),
(348,337,o),
(424,433,o),
(424,550,cs),
(424,654,o),
(355,724,o),
(216,724,cs),
(84,724,o),
(22,651,o),
(22,582,cs),
(22,507,o),
(83,488,o),
(149,488,c),
(149,611,o),
(174,660,o),
(216,660,cs),
(243,660,o),
(267,631,o),
(267,549,cs),
(267,448,o),
(236,368,o),
(130,237,cs),
(22,103,l),
(22,0,l)
);
}
);
vertWidth = 0;
width = 466;
}
);
script = "";
subCategory = "Decimal Digit";
unicode = 50;
}
{
category = Number;
glyphname = three;
layers = (
{
layerId = "94EB6DF8-7434-4BE0-9F23-77BCD575F5B8";
shapes = (
{
closed = 1;
nodes = (
(373,-9,o),
(467,58,o),
(467,188,cs),
(467,322,o),
(372,368,o),
(291,376,c),
(361,394,o),
(442,438,o),
(442,556,cs),
(442,659,o),
(374,724,o),
(263,724,cs),
(144,724,o),
(88,656,o),
(88,604,cs),
(88,583,o),
(95,569,o),
(109,569,c),
(110,651,o),
(168,699,o),
(262,699,cs),
(355,699,o),
(414,647,o),
(414,557,cs),
(414,448,o),
(334,387,o),
(219,387,cs),
(198,387,l),
(198,362,l),
(221,362,ls),
(370,362,o),
(439,300,o),
(439,189,cs),
(439,76,o),
(362,16,o),
(252,16,cs),
(136,16,o),
(89,65,o),
(89,136,c),
(78,136,o),
(66,128,o),
(66,102,cs),
(66,48,o),
(124,-9,o),
(254,-9,cs)
);
}
);
vertWidth = 0;
width = 559;
},
{
layerId = "B2542900-2B87-4688-8902-A06B6D3D93DD";
shapes = (
{
closed = 1;
nodes = (
(362,-10,o),
(501,43,o),
(501,204,cs),
(501,336,o),
(390,373,o),
(316,381,c),
(408,403,o),
(476,475,o),
(476,565,cs),
(476,666,o),
(392,724,o),
(266,724,cs),
(137,724,o),
(70,667,o),
(70,590,cs),
(70,539,o),
(108,525,o),
(156,525,c),
(156,604,o),
(175,674,o),
(266,674,cs),
(343,674,o),
(373,628,o),
(373,550,cs),
(373,455,o),
(304,395,o),
(216,395,c),
(184,395,l),
(184,344,l),
(216,344,ls),
(328,344,o),
(397,289,o),
(397,205,cs),
(397,85,o),
(327,44,o),
(248,44,cs),
(167,44,o),
(121,95,o),
(121,165,c),
(83,165,o),
(58,141,o),
(58,101,cs),
(58,42,o),
(115,-10,o),
(247,-10,cs)
);
}
);
vertWidth = 0;
width = 559;
},
{
layerId = "18A8C34B-6260-4854-BBF8-229863F38B25";
shapes = (
{
closed = 1;
nodes = (
(381,-10,o),
(513,43,o),
(513,206,cs),
(513,321,o),
(415,366,o),
(335,381,c),
(422,410,o),
(488,471,o),
(488,561,cs),
(488,665,o),
(399,724,o),
(257,724,cs),
(111,724,o),
(36,668,o),
(36,597,cs),
(36,536,o),
(83,508,o),
(166,508,c),
(166,586,o),
(180,663,o),
(252,663,cs),
(306,663,o),
(335,619,o),
(335,547,cs),
(335,459,o),
(294,400,o),
(208,400,cs),
(142,400,l),
(142,338,l),
(204,338,ls),
(304,338,o),
(359,283,o),
(359,207,cs),
(359,92,o),
(301,60,o),
(236,60,cs),
(163,60,o),
(113,103,o),
(113,188,c),
(67,188,o),
(28,161,o),
(28,110,cs),
(28,47,o),
(92,-10,o),
(243,-10,cs)
);
}
);
vertWidth = 0;
width = 559;
},
{
layerId = "33F2F8B2-CCE7-4937-A852-9C044B0330C5";
shapes = (
{
closed = 1;
nodes = (
(288,-9,o),
(362,63,o),
(362,190,cs),
(362,323,o),
(292,371,o),
(212,376,c),
(292,390,o),
(343,471,o),
(343,561,cs),
(343,662,o),
(290,724,o),
(209,724,cs),
(128,724,o),
(76,668,o),
(76,593,cs),
(76,563,o),
(87,553,o),
(97,553,c),
(97,639,o),
(125,699,o),
(209,699,cs),
(280,699,o),
(315,649,o),
(315,560,cs),
(315,451,o),
(248,387,o),
(169,387,cs),
(149,387,l),
(149,362,l),
(169,362,ls),
(281,362,o),
(334,302,o),
(334,191,cs),
(334,86,o),
(281,16,o),
(196,16,cs),
(118,16,o),
(76,57,o),
(76,136,c),
(61,136,o),
(55,119,o),
(55,98,cs),
(55,42,o),
(106,-9,o),
(196,-9,cs)
);
}
);
vertWidth = 0;
width = 425;
},
{
layerId = "5278E13D-D735-4789-ABCD-F52B0BBC306E";
shapes = (
{
closed = 1;
nodes = (
(301,-10,o),
(401,43,o),
(401,196,cs),
(401,323,o),
(328,368,o),
(261,378,c),
(330,399,o),
(381,469,o),
(381,559,cs),
(381,665,o),
(314,724,o),
(217,724,cs),
(108,724,o),
(52,664,o),
(52,591,cs),
(52,547,o),
(85,532,o),
(123,532,c),
(123,611,o),
(146,675,o),
(210,675,cs),
(264,675,o),
(291,629,o),
(291,550,cs),
(291,454,o),
(252,395,o),
(182,395,c),
(143,395,l),
(143,348,l),
(181,348,ls),
(269,348,o),
(311,291,o),
(311,197,cs),
(311,85,o),
(262,42,o),
(205,42,cs),
(139,42,o),
(103,96,o),
(103,165,c),
(65,165,o),
(37,141,o),
(37,102,cs),
(37,41,o),
(86,-10,o),
(206,-10,c)
);
}
);
vertWidth = 0;
width = 442;
},
{
layerId = "03D26766-37BE-4C80-9191-ECBB7A84F3C2";
shapes = (
{
closed = 1;
nodes = (
(332,-10,o),
(443,43,o),
(443,204,cs),
(443,313,o),
(370,363,o),
(299,380,c),
(368,411,o),
(422,468,o),
(422,558,cs),
(422,664,o),
(345,724,o),
(216,724,cs),
(85,724,o),
(24,657,o),
(24,589,cs),
(24,527,o),
(71,504,o),
(143,504,c),
(143,583,o),
(161,660,o),
(209,660,cs),
(241,660,o),
(264,616,o),
(264,546,cs),
(264,460,o),
(247,402,o),
(176,402,c),
(109,402,l),
(109,338,l),
(171,338,ls),
(246,338,o),
(284,282,o),
(284,205,cs),
(284,94,o),
(243,64,o),
(197,64,cs),
(142,64,o),
(98,113,o),
(98,202,c),
(54,202,o),
(13,175,o),
(13,121,cs),
(13,46,o),
(64,-10,o),
(202,-10,c)
);
}
);
vertWidth = 0;
width = 466;
}
);
script = "";
subCategory = "Decimal Digit";
unicode = 51;
}
{
category = Number;
glyphname = four;
layers = (
{
layerId = "94EB6DF8-7434-4BE0-9F23-77BCD575F5B8";
shapes = (
{
closed = 1;
nodes = (
(496,0,l),
(496,20,l),
(457,20,ls),
(407,20,o),
(401,31,o),
(401,108,cs),
(401,208,l),
(543,208,l),
(543,233,l),
(401,233,l),
(401,714,l),
(373,714,l),
(21,225,l),
(21,208,l),
(374,208,l),
(374,108,ls),
(374,31,o),
(368,20,o),
(318,20,cs),
(265,20,l),
(265,0,l)
);
},
{
closed = 1;
nodes = (
(257,512,ls),
(293,562,o),
(363,662,o),
(376,685,c),
(375,623,o),
(374,507,o),
(374,449,cs),
(374,233,l),
(56,233,l)
);
}
);
vertWidth = 0;
width = 559;
},
{
layerId = "B2542900-2B87-4688-8902-A06B6D3D93DD";
shapes = (
{
closed = 1;
nodes = (
(516,0,l),
(516,42,l),
(503,42,ls),
(458,42,o),
(421,51,o),
(421,114,cs),
(421,196,l),
(545,196,l),
(545,252,l),
(421,252,l),
(421,714,l),
(326,714,l),
(17,237,l),
(17,196,l),
(325,196,l),
(325,114,ls),
(325,51,o),
(288,42,o),
(243,42,cs),
(215,42,l),
(215,0,l)
);
},
{
closed = 1;
nodes = (
(242,490,ls),
(265,526,o),
(319,617,o),
(332,644,c),
(327,582,o),
(325,495,o),
(325,437,cs),
(325,252,l),
(89,252,l)
);
}
);
vertWidth = 0;
width = 559;
},
{
layerId = "18A8C34B-6260-4854-BBF8-229863F38B25";
shapes = (
{
closed = 1;
nodes = (
(531,0,l),
(531,53,l),
(518,53,ls),
(473,53,o),
(436,62,o),
(436,125,cs),
(436,186,l),
(540,186,l),
(540,252,l),
(436,252,l),
(436,714,l),
(297,714,l),
(13,247,l),
(13,186,l),
(290,186,l),
(290,125,ls),
(290,62,o),
(253,53,o),
(208,53,cs),
(180,53,l),
(180,0,l)
);
},
{
closed = 1;
nodes = (
(218,475,ls),
(233,500,o),
(284,588,o),
(297,619,c),
(292,557,o),
(290,485,o),
(290,427,cs),
(290,252,l),
(83,252,l)
);
}
);
vertWidth = 0;
width = 559;
},
{
layerId = "33F2F8B2-CCE7-4937-A852-9C044B0330C5";
shapes = (
{
closed = 1;
nodes = (
(381,0,l),
(381,20,l),
(368,20,ls),
(314,20,o),
(306,29,o),
(306,101,cs),
(306,208,l),
(415,208,l),
(415,233,l),
(306,233,l),
(306,714,l),
(278,714,l),
(17,226,l),
(17,208,l),
(279,208,l),
(279,101,ls),
(279,29,o),
(271,20,o),
(218,20,cs),
(193,20,l),
(193,0,l)
);
},
{
closed = 1;
nodes = (
(197,511,ls),
(220,553,o),
(273,656,o),
(281,677,c),
(279,613,o),
(279,503,o),
(279,445,cs),
(279,233,l),
(48,233,l)
);
}
);
vertWidth = 0;
width = 425;
},
{
layerId = "5278E13D-D735-4789-ABCD-F52B0BBC306E";
shapes = (
{
closed = 1;
nodes = (
(412,0,l),
(412,41,l),
(402,41,ls),
(365,41,o),
(336,50,o),
(336,113,cs),
(336,197,l),
(429,197,l),
(429,252,l),
(336,252,l),
(336,714,l),
(250,714,l),
(13,236,l),
(13,197,l),
(252,197,l),
(252,113,ls),
(252,50,o),
(224,41,o),
(186,41,cs),
(165,41,l),
(165,0,l)
);
},
{
closed = 1;
nodes = (
(185,486,ls),
(206,529,o),
(245,614,o),
(257,646,c),
(253,584,o),
(252,499,o),
(252,441,cs),
(252,252,l),
(71,252,l)
);
}
);
vertWidth = 0;
width = 442;
},
{
layerId = "03D26766-37BE-4C80-9191-ECBB7A84F3C2";
shapes = (
{
closed = 1;
nodes = (
(452,0,l),
(452,56,l),
(441,56,ls),
(404,56,o),
(373,65,o),
(373,128,cs),
(373,184,l),
(447,184,l),
(447,252,l),
(373,252,l),
(373,714,l),
(224,714,l),
(9,249,l),
(9,184,l),
(220,184,l),
(220,128,ls),
(220,65,o),
(189,56,o),
(152,56,cs),
(128,56,l),
(128,0,l)
);
},
{
closed = 1;
nodes = (
(167,450,ls),
(188,498,o),
(209,553,o),
(226,603,c),
(221,541,o),
(220,493,o),
(220,435,cs),
(220,252,l),
(78,252,l)
);
}
);
vertWidth = 0;
width = 466;
}
);
script = "";
subCategory = "Decimal Digit";
unicode = 52;
}
{
category = Number;
glyphname = six;
layers = (
{
layerId = "94EB6DF8-7434-4BE0-9F23-77BCD575F5B8";
shapes = (
{
closed = 1;
nodes = (
(425,-10,o),
(488,83,o),
(488,220,cs),
(488,355,o),
(409,427,o),
(296,427,cs),
(217,427,o),
(154,392,o),
(109,357,c),
(109,596,o),
(198,699,o),
(321,699,cs),
(400,699,o),
(440,666,o),
(440,589,c),
(454,589,o),
(462,603,o),
(462,624,cs),
(462,672,o),
(423,724,o),
(322,724,cs),
(186,724,o),
(81,624,o),
(81,338,cs),
(81,102,o),
(161,-10,o),
(293,-10,cs)
);
},
{
closed = 1;
nodes = (
(171,15,o),
(113,125,o),
(109,325,c),
(142,353,o),
(205,402,o),
(296,402,cs),
(407,402,o),
(460,324,o),
(460,221,cs),
(460,99,o),
(408,15,o),
(296,15,cs)
);
}
);
vertWidth = 0;
width = 559;
},
{
layerId = "B2542900-2B87-4688-8902-A06B6D3D93DD";
shapes = (
{
closed = 1;
nodes = (
(429,-10,o),
(508,88,o),
(508,229,cs),
(508,357,o),
(429,434,o),
(307,434,cs),
(242,434,o),
(197,409,o),
(164,382,c),
(171,575,o),
(222,676,o),
(322,676,cs),
(386,676,o),
(410,624,o),
(410,559,c),
(460,559,o),
(487,581,o),
(487,619,cs),
(487,673,o),
(433,724,o),
(322,724,cs),
(145,724,o),
(61,550,o),
(61,360,cs),
(61,97,o),
(160,-10,o),
(293,-10,cs)
);
},
{
closed = 1;
nodes = (
(216,45,o),
(165,125,o),
(163,325,c),
(190,353,o),
(235,383,o),
(287,383,cs),
(364,383,o),
(406,333,o),
(406,219,cs),
(406,98,o),
(367,45,o),
(296,45,cs)
);
}
);
vertWidth = 0;
width = 559;
},
{
layerId = "BB0A671B-466D-4412-B862-1FE3A30BF7BB";
shapes = (
{
closed = 1;
nodes = (
(438,-10,o),
(517,88,o),
(517,230,cs),
(517,359,o),
(438,436,o),
(317,436,cs),
(250,436,o),
(206,415,o),
(177,393,c),
(184,572,o),
(234,670,o),
(321,670,cs),
(379,670,o),
(397,608,o),
(397,546,c),
(469,546,o),
(499,576,o),
(499,616,cs),
(499,672,o),
(448,724,o),
(327,724,cs),
(140,724,o),
(52,550,o),
(52,343,cs),
(52,97,o),
(151,-10,o),
(293,-10,cs)
);
},
{
closed = 1;
nodes = (
(227,51,o),
(178,132,o),
(176,327,c),
(198,352,o),
(244,380,o),
(287,380,cs),
(352,380,o),
(390,331,o),
(390,220,cs),
(390,103,o),
(355,51,o),
(296,51,cs)
);
}
);
vertWidth = 0;
width = 559;
},
{
layerId = "18A8C34B-6260-4854-BBF8-229863F38B25";
shapes = (
{
closed = 1;
nodes = (
(445,-10,o),
(524,88,o),
(524,231,cs),
(524,361,o),
(445,438,o),
(324,438,cs),
(256,438,o),
(213,419,o),
(186,401,c),
(194,570,o),
(242,665,o),
(321,665,cs),
(374,665,o),
(387,596,o),
(387,536,c),
(475,536,o),
(507,573,o),
(507,614,cs),
(507,671,o),
(459,724,o),
(330,724,cs),
(137,724,o),
(45,550,o),
(45,330,cs),
(45,97,o),
(145,-10,o),
(293,-10,cs)
);
},
{
closed = 1;
nodes = (
(235,56,o),
(187,137,o),
(186,329,c),
(203,352,o),
(251,377,o),
(287,377,cs),
(344,377,o),
(379,329,o),
(379,221,cs),
(379,106,o),
(347,56,o),
(296,56,cs)
);
}
);
vertWidth = 0;
width = 559;
},
{
layerId = "33F2F8B2-CCE7-4937-A852-9C044B0330C5";
shapes = (
{
closed = 1;
nodes = (
(296,-10,o),
(373,43,o),
(373,216,cs),
(373,354,o),
(322,429,o),
(226,429,cs),
(154,429,o),
(107,383,o),
(86,354,c),
(85,608,o),
(137,699,o),
(239,699,cs),
(309,699,o),
(335,661,o),
(335,587,c),
(345,587,o),
(355,592,o),
(355,625,cs),
(355,682,o),
(317,724,o),
(240,724,cs),
(127,724,o),
(58,637,o),
(58,339,cs),
(58,93,o),
(121,-10,o),
(227,-10,cs)
);
},
{
closed = 1;
nodes = (
(137,15,o),
(88,110,o),
(86,317,c),
(112,354,o),
(156,404,o),
(226,404,cs),
(307,404,o),
(345,344,o),
(345,217,cs),
(345,77,o),
(298,15,o),
(228,15,cs)
);
}
);
vertWidth = 0;
width = 425;
},
{
layerId = "5278E13D-D735-4789-ABCD-F52B0BBC306E";
shapes = (
{
closed = 1;
nodes = (
(342,-10,o),
(405,88,o),
(405,229,cs),
(405,356,o),
(342,433,o),
(249,433,cs),
(194,433,o),
(158,405,o),
(134,379,c),
(137,575,o),
(175,677,o),
(248,677,cs),
(300,677,o),
(322,631,o),
(322,562,c),
(365,562,o),
(388,581,o),
(388,619,cs),
(388,673,o),
(342,724,o),
(251,724,cs),
(109,724,o),
(45,582,o),
(45,340,cs),
(45,97,o),
(124,-10,o),
(232,-10,cs)
);
},
{
closed = 1;
nodes = (
(173,40,o),
(135,133,o),
(133,327,c),
(152,352,o),
(183,385,o),
(231,385,cs),
(288,385,o),
(318,334,o),
(318,219,cs),
(318,95,o),
(288,40,o),
(234,40,cs)
);
}
);
vertWidth = 0;
width = 442;
},
{
layerId = "E72CC6C8-F2F5-4BE7-9263-7F4440809454";
shapes = (
{
closed = 1;
nodes = (
(365,-10,o),
(429,88,o),
(429,230,cs),
(429,359,o),
(365,436,o),
(267,436,cs),
(210,436,o),
(179,414,o),
(157,394,c),
(163,570,o),
(194,668,o),
(255,668,cs),
(298,668,o),
(319,614,o),
(319,543,c),
(386,543,o),
(412,572,o),
(412,615,cs),
(412,672,o),
(366,724,o),
(259,724,cs),
(108,724,o),
(35,583,o),
(35,335,cs),
(35,97,o),
(117,-10,o),
(239,-10,cs)
);
},
{
closed = 1;
nodes = (
(183,50,o),
(159,143,o),
(157,335,c),
(173,353,o),
(198,377,o),
(236,377,cs),
(280,377,o),
(307,331,o),
(307,220,cs),
(307,103,o),
(282,50,o),
(239,50,cs)
);
}
);
vertWidth = 0;
width = 456;
},
{
layerId = "03D26766-37BE-4C80-9191-ECBB7A84F3C2";
shapes = (
{
closed = 1;
nodes = (
(381,-10,o),
(447,88,o),
(447,231,cs),
(447,362,o),
(381,439,o),
(280,439,cs),
(222,439,o),
(195,420,o),
(174,404,c),
(182,567,o),
(208,662,o),
(260,662,cs),
(297,662,o),
(317,602,o),
(317,530,c),
(401,530,o),
(430,566,o),
(430,612,cs),
(430,671,o),
(384,724,o),
(265,724,cs),
(107,724,o),
(27,584,o),
(27,332,cs),
(27,97,o),
(112,-10,o),
(244,-10,cs)
);
},
{
closed = 1;
nodes = (
(191,58,o),
(176,150,o),
(175,340,c),
(189,353,o),
(209,372,o),
(239,372,cs),
(274,372,o),
(299,328,o),
(299,221,cs),
(299,108,o),
(277,58,o),
(243,58,cs)
);
}
);
vertWidth = 0;
width = 466;
}
);
script = "";
subCategory = "Decimal Digit";
unicode = 54;
}
{
category = Number;
glyphname = seven;
layers = (
{
layerId = "94EB6DF8-7434-4BE0-9F23-77BCD575F5B8";
shapes = (
{
closed = 1;
nodes = (
(213,0,l),
(493,692,l),
(493,714,l),
(65,714,l),
(59,570,l),
(79,570,l),
(83,633,ls),
(86,682,o),
(97,686,o),
(133,686,cs),
(463,686,l),
(183,0,l)
);
}
);
vertWidth = 0;
width = 559;
},
{
layerId = "B2542900-2B87-4688-8902-A06B6D3D93DD";
shapes = (
{
closed = 1;
nodes = (
(265,0,l),
(511,685,l),
(511,714,l),
(64,714,l),
(59,533,l),
(101,533,l),
(105,583,ls),
(108,616,o),
(127,634,o),
(163,634,cs),
(426,634,l),
(190,0,l)
);
}
);
vertWidth = 0;
width = 559;
},
{
layerId = "18A8C34B-6260-4854-BBF8-229863F38B25";
shapes = (
{
closed = 1;
nodes = (
(250,0,l),
(526,665,l),
(526,714,l),
(49,714,l),
(44,504,l),
(104,504,l),
(110,554,ls),
(114,587,o),
(132,605,o),
(168,605,cs),
(431,605,l),
(165,0,l)
);
}
);
vertWidth = 0;
width = 559;
},
{
layerId = "33F2F8B2-CCE7-4937-A852-9C044B0330C5";
shapes = (
{
closed = 1;
nodes = (
(174,0,l),
(378,692,l),
(378,714,l),
(51,714,l),
(47,570,l),
(67,570,l),
(70,630,ls),
(73,680,o),
(82,686,o),
(117,686,cs),
(348,686,l),
(144,0,l)
);
}
);
vertWidth = 0;
width = 425;
},
{
layerId = "5278E13D-D735-4789-ABCD-F52B0BBC306E";
shapes = (
{
closed = 1;
nodes = (
(197,0,l),
(403,687,l),
(403,714,l),
(46,714,l),
(41,536,l),
(83,536,l),
(87,583,ls),
(90,621,o),
(102,637,o),
(131,637,c),
(340,637,l),
(135,0,l)
);
}
);
vertWidth = 0;
width = 442;
},
{
layerId = "03D26766-37BE-4C80-9191-ECBB7A84F3C2";
shapes = (
{
closed = 1;
nodes = (
(211,0,l),
(435,660,l),
(435,714,l),
(39,714,l),
(34,496,l),
(95,496,l),
(102,545,ls),
(106,580,o),
(120,597,o),
(150,597,c),
(349,597,l),
(118,0,l)
);
}
);
vertWidth = 0;
width = 466;
}
);
script = "";
subCategory = "Decimal Digit";
unicode = 55;
}
{
category = Punctuation;
glyphname = colon;
layers = (
{
layerId = "94EB6DF8-7434-4BE0-9F23-77BCD575F5B8";
shapes = (
{
closed = 1;
nodes = (
(162,433,o),
(175,442,o),
(175,473,cs),
(175,503,o),
(162,511,o),
(146,511,cs),
(131,511,o),
(117,503,o),
(117,473,cs),
(117,442,o),
(131,433,o),
(146,433,cs)
);
},
{
closed = 1;
nodes = (
(162,-5,o),
(175,4,o),
(175,35,cs),
(175,65,o),
(162,73,o),
(146,73,cs),
(131,73,o),
(117,65,o),
(117,35,cs),
(117,4,o),
(131,-5,o),
(146,-5,cs)
);
}
);
vertWidth = 0;
width = 239;
},
{
layerId = "B2542900-2B87-4688-8902-A06B6D3D93DD";
shapes = (
{
closed = 1;
nodes = (
(209,408,o),
(236,424,o),
(236,473,cs),
(236,523,o),
(209,538,o),
(177,538,cs),
(144,538,o),
(117,523,o),
(117,473,cs),
(117,424,o),
(144,408,o),
(177,408,cs)
);
},
{
closed = 1;
nodes = (
(209,-7,o),
(236,9,o),
(236,59,cs),
(236,108,o),
(209,124,o),
(177,124,cs),
(144,124,o),
(117,108,o),
(117,59,cs),
(117,9,o),
(144,-7,o),
(177,-7,cs)
);
}
);
vertWidth = 0;
width = 299;
},
{
layerId = "BB0A671B-466D-4412-B862-1FE3A30BF7BB";
shapes = (
{
closed = 1;
nodes = (
(235,394,o),
(268,412,o),
(268,468,cs),
(268,525,o),
(235,542,o),
(196,542,cs),
(155,542,o),
(123,525,o),
(123,468,cs),
(123,412,o),
(155,394,o),
(196,394,cs)
);
},
{
closed = 1;
nodes = (
(235,-8,o),
(268,11,o),
(268,67,cs),
(268,123,o),
(235,141,o),
(196,141,cs),
(155,141,o),
(123,123,o),
(123,67,cs),
(123,11,o),
(155,-8,o),
(196,-8,cs)
);
}
);
vertWidth = 0;
width = 332;
},
{
layerId = "18A8C34B-6260-4854-BBF8-229863F38B25";
shapes = (
{
closed = 1;
nodes = (
(254,384,o),
(292,404,o),
(292,465,cs),
(292,526,o),
(254,545,o),
(209,545,cs),
(163,545,o),
(127,526,o),
(127,465,cs),
(127,404,o),
(163,384,o),
(209,384,cs)
);
},
{
closed = 1;
nodes = (
(254,-8,o),
(292,12,o),
(292,72,cs),
(292,134,o),
(254,153,o),
(209,153,cs),
(163,153,o),
(127,134,o),
(127,72,cs),
(127,12,o),
(163,-8,o),
(209,-8,cs)
);
}
);
vertWidth = 0;
width = 356;
},
{
layerId = "33F2F8B2-CCE7-4937-A852-9C044B0330C5";
shapes = (
{
closed = 1;
nodes = (
(94,430,o),
(108,439,o),
(108,469,cs),
(108,499,o),
(94,508,o),
(80,508,cs),
(63,508,o),
(50,499,o),
(50,469,cs),
(50,439,o),
(63,430,o),
(80,430,cs)
);
},
{
closed = 1;
nodes = (
(94,-5,o),
(108,4,o),
(108,34,cs),
(108,64,o),
(94,73,o),
(80,73,cs),
(63,73,o),
(50,64,o),
(50,34,cs),
(50,4,o),
(63,-5,o),
(80,-5,cs)
);
}
);
vertWidth = 0;
width = 158;
},
{
layerId = "5278E13D-D735-4789-ABCD-F52B0BBC306E";
shapes = (
{
closed = 1;
nodes = (
(130,409,o),
(154,423,o),
(154,470,cs),
(154,517,o),
(130,531,o),
(103,531,cs),
(74,531,o),
(52,517,o),
(52,470,cs),
(52,423,o),
(74,409,o),
(103,409,cs)
);
},
{
closed = 1;
nodes = (
(130,-7,o),
(154,8,o),
(154,55,cs),
(154,102,o),
(130,117,o),
(103,117,cs),
(74,117,o),
(52,102,o),
(52,55,cs),
(52,8,o),
(74,-7,o),
(103,-7,cs)
);
}
);
vertWidth = 0;
width = 206;
},
{
layerId = "E72CC6C8-F2F5-4BE7-9263-7F4440809454";
shapes = (
{
closed = 1;
nodes = (
(158,392,o),
(190,410,o),
(190,465,cs),
(190,521,o),
(158,539,o),
(122,539,cs),
(84,539,o),
(54,521,o),
(54,465,cs),
(54,410,o),
(84,392,o),
(122,392,cs)
);
},
{
closed = 1;
nodes = (
(158,-8,o),
(190,10,o),
(190,66,cs),
(190,122,o),
(158,140,o),
(122,140,cs),
(84,140,o),
(54,122,o),
(54,66,cs),
(54,10,o),
(84,-8,o),
(122,-8,cs)
);
}
);
vertWidth = 0;
width = 244;
},
{
layerId = "03D26766-37BE-4C80-9191-ECBB7A84F3C2";
shapes = (
{
closed = 1;
nodes = (
(178,380,o),
(216,400,o),
(216,462,cs),
(216,524,o),
(178,544,o),
(136,544,cs),
(91,544,o),
(56,524,o),
(56,462,cs),
(56,400,o),
(91,380,o),
(136,380,cs)
);
},
{
closed = 1;
nodes = (
(178,-8,o),
(216,12,o),
(216,74,cs),
(216,136,o),
(178,156,o),
(136,156,cs),
(91,156,o),
(56,136,o),
(56,74,cs),
(56,12,o),
(91,-8,o),
(136,-8,cs)
);
}
);
vertWidth = 0;
width = 272;
}
);
metricLeft = period;
metricRight = period;
script = "";
subCategory = Other;
unicode = 58;
}
{
category = Punctuation;
glyphname = semicolon;
layers = (
{
layerId = "94EB6DF8-7434-4BE0-9F23-77BCD575F5B8";
shapes = (
{
closed = 1;
nodes = (
(159,-127,o),
(190,-67,o),
(190,0,cs),
(190,52,o),
(166,73,o),
(139,73,cs),
(120,73,o),
(112,60,o),
(112,42,cs),
(112,17,o),
(159,4,o),
(159,-30,cs),
(159,-61,o),
(137,-115,o),
(78,-132,c),
(78,-154,l)
);
},
{
closed = 1;
nodes = (
(162,433,o),
(175,442,o),
(175,473,cs),
(175,503,o),
(162,511,o),
(146,511,cs),
(131,511,o),
(117,503,o),
(117,473,cs),
(117,442,o),
(131,433,o),
(146,433,cs)
);
}
);
vertWidth = 0;
width = 275;
},
{
layerId = "B2542900-2B87-4688-8902-A06B6D3D93DD";
shapes = (
{
closed = 1;
nodes = (
(203,-120,o),
(247,-45,o),
(247,38,cs),
(247,94,o),
(212,124,o),
(172,124,cs),
(137,124,o),
(111,103,o),
(111,67,cs),
(111,10,o),
(182,17,o),
(182,-23,c),
(182,-61,o),
(152,-93,o),
(88,-114,c),
(88,-154,l)
);
},
{
closed = 1;
nodes = (
(213,408,o),
(241,424,o),
(241,473,cs),
(241,523,o),
(213,538,o),
(181,538,cs),
(148,538,o),
(122,523,o),
(122,473,cs),
(122,424,o),
(148,408,o),
(181,408,cs)
);
}
);
vertWidth = 0;
width = 326;
},
{
layerId = "BB0A671B-466D-4412-B862-1FE3A30BF7BB";
shapes = (
{
closed = 1;
nodes = (
(223,-119,o),
(270,-44,o),
(270,40,cs),
(270,104,o),
(236,141,o),
(187,141,cs),
(149,141,o),
(117,118,o),
(117,76,cs),
(117,6,o),
(190,15,o),
(190,-24,c),
(190,-62,o),
(160,-86,o),
(99,-107,c),
(99,-154,l)
);
},
{
closed = 1;
nodes = (
(234,394,o),
(269,412,o),
(269,468,cs),
(269,525,o),
(234,542,o),
(196,542,cs),
(154,542,o),
(123,525,o),
(123,468,cs),
(123,412,o),
(154,394,o),
(196,394,cs)
);
}
);
vertWidth = 0;
width = 345;
},
{
layerId = "18A8C34B-6260-4854-BBF8-229863F38B25";
shapes = (
{
closed = 1;
nodes = (
(237,-119,o),
(287,-43,o),
(287,42,cs),
(287,111,o),
(254,153,o),
(198,153,cs),
(157,153,o),
(122,129,o),
(122,83,cs),
(122,3,o),
(195,14,o),
(195,-24,c),
(195,-62,o),
(165,-81,o),
(107,-102,c),
(107,-154,l)
);
},
{
closed = 1;
nodes = (
(250,384,o),
(289,404,o),
(289,465,cs),
(289,526,o),
(250,545,o),
(206,545,cs),
(159,545,o),
(123,526,o),
(123,465,cs),
(123,404,o),
(159,384,o),
(206,384,cs)
);
}
);
vertWidth = 0;
width = 358;
},
{
layerId = "33F2F8B2-CCE7-4937-A852-9C044B0330C5";
shapes = (
{
closed = 1;
nodes = (
(91,-124,o),
(118,-58,o),
(118,0,cs),
(118,56,o),
(94,73,o),
(72,73,cs),
(55,73,o),
(42,62,o),
(42,47,cs),
(42,16,o),
(86,11,o),
(86,-26,cs),
(86,-61,o),
(67,-110,o),
(20,-128,c),
(20,-154,l)
);
},
{
closed = 1;
nodes = (
(95,430,o),
(108,439,o),
(108,469,cs),
(108,499,o),
(95,508,o),
(80,508,cs),
(63,508,o),
(50,499,o),
(50,469,cs),
(50,439,o),
(63,430,o),
(80,430,cs)
);
}
);
vertWidth = 0;
width = 172;
},
{
layerId = "5278E13D-D735-4789-ABCD-F52B0BBC306E";
shapes = (
{
closed = 1;
nodes = (
(123,-122,o),
(157,-52,o),
(157,26,cs),
(157,84,o),
(133,117,o),
(96,117,cs),
(70,117,o),
(49,97,o),
(49,64,cs),
(49,10,o),
(101,11,o),
(101,-26,cs),
(101,-62,o),
(79,-97,o),
(32,-116,c),
(32,-154,l)
);
},
{
closed = 1;
nodes = (
(131,409,o),
(154,423,o),
(154,470,cs),
(154,517,o),
(131,531,o),
(103,531,cs),
(74,531,o),
(52,517,o),
(52,470,cs),
(52,423,o),
(74,409,o),
(103,409,cs)
);
}
);
vertWidth = 0;
width = 213;
},
{
layerId = "E72CC6C8-F2F5-4BE7-9263-7F4440809454";
shapes = (
{
closed = 1;
nodes = (
(146,-121,o),
(185,-48,o),
(185,33,cs),
(185,99,o),
(161,140,o),
(113,140,cs),
(80,140,o),
(53,117,o),
(53,77,cs),
(53,5,o),
(110,11,o),
(110,-25,cs),
(110,-63,o),
(87,-87,o),
(41,-107,c),
(41,-154,l)
);
},
{
closed = 1;
nodes = (
(156,392,o),
(187,410,o),
(187,465,cs),
(187,521,o),
(156,539,o),
(119,539,cs),
(81,539,o),
(51,521,o),
(51,465,cs),
(51,410,o),
(81,392,o),
(119,392,cs)
);
}
);
vertWidth = 0;
width = 243;
},
{
layerId = "03D26766-37BE-4C80-9191-ECBB7A84F3C2";
shapes = (
{
closed = 1;
nodes = (
(163,-120,o),
(206,-45,o),
(206,38,cs),
(206,110,o),
(181,156,o),
(125,156,cs),
(88,156,o),
(56,131,o),
(56,86,cs),
(56,2,o),
(117,11,o),
(117,-25,cs),
(117,-63,o),
(92,-80,o),
(47,-100,c),
(47,-154,l)
);
},
{
closed = 1;
nodes = (
(174,380,o),
(211,400,o),
(211,462,cs),
(211,524,o),
(174,544,o),
(131,544,cs),
(86,544,o),
(51,524,o),
(51,462,cs),
(51,400,o),
(86,380,o),
(131,380,cs)
);
}
);
vertWidth = 0;
width = 264;
}
);
metricLeft = comma;
script = "";
subCategory = Other;
unicode = 59;
}
{
category = Symbol;
glyphname = equal;
layers = (
{
layerId = "94EB6DF8-7434-4BE0-9F23-77BCD575F5B8";
shapes = (
{
closed = 1;
nodes = (
(490,451,l),
(490,479,l),
(67,479,l),
(67,451,l)
);
},
{
closed = 1;
nodes = (
(490,235,l),
(490,263,l),
(67,263,l),
(67,235,l)
);
}
);
vertWidth = 0;
width = 559;
},
{
layerId = "B2542900-2B87-4688-8902-A06B6D3D93DD";
shapes = (
{
closed = 1;
nodes = (
(494,428,l),
(494,484,l),
(65,484,l),
(65,428,l)
);
},
{
closed = 1;
nodes = (
(494,229,l),
(494,286,l),
(65,286,l),
(65,229,l)
);
}
);
vertWidth = 0;
width = 559;
},
{
layerId = "18A8C34B-6260-4854-BBF8-229863F38B25";
shapes = (
{
closed = 1;
nodes = (
(497,419,l),
(497,489,l),
(63,489,l),
(63,419,l)
);
},
{
closed = 1;
nodes = (
(497,225,l),
(497,295,l),
(63,295,l),
(63,225,l)
);
}
);
vertWidth = 0;
width = 559;
},
{
layerId = "33F2F8B2-CCE7-4937-A852-9C044B0330C5";
shapes = (
{
closed = 1;
nodes = (
(372,443,l),
(372,471,l),
(50,471,l),
(50,443,l)
);
},
{
closed = 1;
nodes = (
(372,244,l),
(372,272,l),
(50,272,l),
(50,244,l)
);
}
);
vertWidth = 0;
width = 422;
},
{
layerId = "5278E13D-D735-4789-ABCD-F52B0BBC306E";
shapes = (
{
closed = 1;
nodes = (
(382,423,l),
(382,481,l),
(43,481,l),
(43,423,l)
);
},
{
closed = 1;
nodes = (
(382,233,l),
(382,291,l),
(43,291,l),
(43,233,l)
);
}
);
vertWidth = 0;
width = 425;
},
{
layerId = "03D26766-37BE-4C80-9191-ECBB7A84F3C2";
shapes = (
{
closed = 1;
nodes = (
(394,408,l),
(394,481,l),
(31,481,l),
(31,408,l)
);
},
{
closed = 1;
nodes = (
(394,233,l),
(394,306,l),
(31,306,l),
(31,233,l)
);
}
);
vertWidth = 0;
width = 425;
}
);
script = "";
subCategory = Math;
unicode = 61;
}
{
category = Punctuation;
glyphname = question;
layers = (
{
layerId = "94EB6DF8-7434-4BE0-9F23-77BCD575F5B8";
shapes = (
{
closed = 1;
nodes = (
(205,167,l),
(208,323,l),
(317,375,o),
(373,441,o),
(373,551,cs),
(373,650,o),
(307,724,o),
(199,724,cs),
(72,724,o),
(35,646,o),
(35,611,cs),
(35,584,o),
(43,569,o),
(57,569,c),
(57,629,o),
(90,699,o),
(201,699,cs),
(290,699,o),
(345,638,o),
(345,551,cs),
(345,448,o),
(292,389,o),
(180,337,c),
(183,167,l)
);
},
{
closed = 1;
nodes = (
(209,-5,o),
(222,4,o),
(222,35,cs),
(222,65,o),
(209,73,o),
(193,73,cs),
(178,73,o),
(164,65,o),
(164,35,cs),
(164,4,o),
(178,-5,o),
(193,-5,cs)
);
}
);
vertWidth = 0;
width = 415;
},
{
layerId = "B2542900-2B87-4688-8902-A06B6D3D93DD";
shapes = (
{
closed = 1;
nodes = (
(245,201,l),
(245,314,l),
(369,365,o),
(439,433,o),
(439,543,cs),
(439,657,o),
(346,724,o),
(220,724,cs),
(91,724,o),
(33,676,o),
(33,612,cs),
(33,569,o),
(68,547,o),
(116,547,c),
(116,616,o),
(145,675,o),
(228,675,cs),
(305,675,o),
(337,629,o),
(337,560,cs),
(337,480,o),
(300,400,o),
(184,353,c),
(184,201,l)
);
},
{
closed = 1;
nodes = (
(247,-7,o),
(276,10,o),
(276,61,cs),
(276,113,o),
(247,129,o),
(213,129,cs),
(178,129,o),
(150,113,o),
(150,61,cs),
(150,10,o),
(178,-7,o),
(213,-7,cs)
);
}
);
vertWidth = 0;
width = 477;
},
{
layerId = "18A8C34B-6260-4854-BBF8-229863F38B25";
shapes = (
{
closed = 1;
nodes = (
(300,238,l),
(323,323,l),
(462,381,o),
(522,433,o),
(522,538,cs),
(522,655,o),
(421,724,o),
(261,724,cs),
(101,724,o),
(29,657,o),
(29,590,cs),
(29,524,o),
(87,506,o),
(194,506,c),
(194,612,o),
(218,656,o),
(262,656,cs),
(302,656,o),
(326,619,o),
(326,553,cs),
(326,468,o),
(303,404,o),
(192,350,c),
(215,238,l)
);
},
{
closed = 1;
nodes = (
(305,-9,o),
(349,14,o),
(349,83,cs),
(349,153,o),
(305,175,o),
(255,175,cs),
(203,175,o),
(162,153,o),
(162,83,cs),
(162,14,o),
(203,-9,o),
(255,-9,cs)
);
}
);
vertWidth = 0;
width = 557;
},
{
layerId = "33F2F8B2-CCE7-4937-A852-9C044B0330C5";
shapes = (
{
closed = 1;
nodes = (
(171,167,l),
(173,323,l),
(261,369,o),
(306,438,o),
(306,552,cs),
(306,664,o),
(250,724,o),
(167,724,cs),
(76,724,o),
(38,662,o),
(38,612,cs),
(38,581,o),
(49,569,o),
(59,569,c),
(59,642,o),
(86,699,o),
(167,699,cs),
(240,699,o),
(278,642,o),
(278,550,cs),
(278,453,o),
(238,385,o),
(146,337,c),
(149,167,l)
);
},
{
closed = 1;
nodes = (
(178,-5,o),
(192,4,o),
(192,34,cs),
(192,64,o),
(178,73,o),
(161,73,cs),
(146,73,o),
(133,64,o),
(133,34,cs),
(133,4,o),
(146,-5,o),
(161,-5,cs)
);
}
);
vertWidth = 0;
width = 352;
},
{
layerId = "5278E13D-D735-4789-ABCD-F52B0BBC306E";
shapes = (
{
closed = 1;
nodes = (
(207,209,l),
(217,323,l),
(317,373,o),
(365,436,o),
(365,547,cs),
(365,660,o),
(298,724,o),
(192,724,cs),
(90,724,o),
(34,674,o),
(34,612,cs),
(34,569,o),
(64,553,o),
(109,553,c),
(109,627,o),
(130,676,o),
(191,676,cs),
(247,676,o),
(275,620,o),
(275,548,cs),
(275,461,o),
(246,394,o),
(155,346,c),
(164,209,l)
);
},
{
closed = 1;
nodes = (
(214,-7,o),
(238,8,o),
(238,55,cs),
(238,102,o),
(214,117,o),
(185,117,cs),
(157,117,o),
(135,102,o),
(135,55,cs),
(135,8,o),
(157,-7,o),
(185,-7,cs)
);
}
);
vertWidth = 0;
width = 412;
},
{
layerId = "03D26766-37BE-4C80-9191-ECBB7A84F3C2";
shapes = (
{
closed = 1;
nodes = (
(250,231,l),
(273,323,l),
(389,379,o),
(442,434,o),
(442,540,cs),
(442,656,o),
(356,724,o),
(221,724,cs),
(87,724,o),
(28,664,o),
(28,603,cs),
(28,543,o),
(78,525,o),
(167,525,c),
(167,612,o),
(187,661,o),
(222,661,cs),
(254,661,o),
(273,615,o),
(273,552,cs),
(273,471,o),
(258,395,o),
(164,349,c),
(187,231,l)
);
},
{
closed = 1;
nodes = (
(259,-8,o),
(296,12,o),
(296,74,cs),
(296,136,o),
(259,156,o),
(216,156,cs),
(171,156,o),
(136,136,o),
(136,74,cs),
(136,12,o),
(171,-8,o),
(216,-8,cs)
);
}
);
vertWidth = 0;
width = 480;
}
);
script = "";
subCategory = Other;
unicode = 63;
}
{
category = Punctuation;
glyphname = backslash;
layers = (
{
layerId = "94EB6DF8-7434-4BE0-9F23-77BCD575F5B8";
shapes = (
{
closed = 1;
nodes = (
(288,-121,l),
(29,760,l),
(0,760,l),
(259,-121,l)
);
}
);
vertWidth = 0;
width = 288;
},
{
layerId = "B2542900-2B87-4688-8902-A06B6D3D93DD";
shapes = (
{
closed = 1;
nodes = (
(288,-121,l),
(55,760,l),
(0,760,l),
(232,-121,l)
);
}
);
vertWidth = 0;
width = 288;
},
{
layerId = "18A8C34B-6260-4854-BBF8-229863F38B25";
shapes = (
{
closed = 1;
nodes = (
(288,-121,l),
(72,760,l),
(0,760,l),
(215,-121,l)
);
}
);
vertWidth = 0;
width = 288;
},
{
layerId = "33F2F8B2-CCE7-4937-A852-9C044B0330C5";
shapes = (
{
closed = 1;
nodes = (
(219,-121,l),
(29,760,l),
(0,760,l),
(190,-121,l)
);
}
);
vertWidth = 0;
width = 219;
},
{
layerId = "5278E13D-D735-4789-ABCD-F52B0BBC306E";
shapes = (
{
closed = 1;
nodes = (
(228,-121,l),
(49,760,l),
(0,760,l),
(179,-121,l)
);
}
);
vertWidth = 0;
width = 228;
},
{
layerId = "03D26766-37BE-4C80-9191-ECBB7A84F3C2";
shapes = (
{
closed = 1;
nodes = (
(240,-121,l),
(68,760,l),
(0,760,l),
(172,-121,l)
);
}
);
vertWidth = 0;
width = 240;
}
);
script = "";
subCategory = Other;
unicode = 92;
}
{
category = Punctuation;
glyphname = bracketright;
layers = (
{
layerId = "94EB6DF8-7434-4BE0-9F23-77BCD575F5B8";
shapes = (
{
closed = 1;
nodes = (
(282,-128,l),
(282,760,l),
(127,760,l),
(127,740,l),
(198,740,ls),
(248,740,o),
(254,729,o),
(254,652,cs),
(254,-20,ls),
(254,-97,o),
(248,-108,o),
(198,-108,cs),
(127,-108,l),
(127,-128,l)
);
}
);
vertWidth = 0;
width = 345;
},
{
layerId = "B2542900-2B87-4688-8902-A06B6D3D93DD";
shapes = (
{
closed = 1;
nodes = (
(328,-128,l),
(328,760,l),
(112,760,l),
(112,720,l),
(158,720,ls),
(204,720,o),
(237,711,o),
(237,646,cs),
(237,-15,ls),
(237,-79,o),
(204,-88,o),
(158,-88,cs),
(112,-88,l),
(112,-128,l)
);
}
);
vertWidth = 0;
width = 392;
},
{
layerId = "18A8C34B-6260-4854-BBF8-229863F38B25";
shapes = (
{
closed = 1;
nodes = (
(406,-128,l),
(406,760,l),
(127,760,l),
(127,707,l),
(170,707,ls),
(215,707,o),
(252,698,o),
(252,635,cs),
(252,-3,ls),
(252,-66,o),
(215,-75,o),
(170,-75,cs),
(127,-75,l),
(127,-128,l)
);
}
);
vertWidth = 0;
width = 479;
},
{
layerId = "33F2F8B2-CCE7-4937-A852-9C044B0330C5";
shapes = (
{
closed = 1;
nodes = (
(156,-128,l),
(156,760,l),
(27,760,l),
(27,740,l),
(72,740,ls),
(122,740,o),
(128,729,o),
(128,652,cs),
(128,-20,ls),
(128,-97,o),
(122,-108,o),
(72,-108,cs),
(27,-108,l),
(27,-128,l)
);
}
);
vertWidth = 0;
width = 233;
},
{
layerId = "5278E13D-D735-4789-ABCD-F52B0BBC306E";
shapes = (
{
closed = 1;
nodes = (
(217,-128,l),
(217,760,l),
(30,760,l),
(30,719,l),
(63,719,ls),
(99,719,o),
(128,710,o),
(128,647,cs),
(128,-15,ls),
(128,-78,o),
(99,-87,o),
(63,-87,cs),
(30,-87,l),
(30,-128,l)
);
}
);
vertWidth = 0;
width = 296;
},
{
layerId = "03D26766-37BE-4C80-9191-ECBB7A84F3C2";
shapes = (
{
closed = 1;
nodes = (
(296,-128,l),
(296,760,l),
(31,760,l),
(31,704,l),
(67,704,ls),
(105,704,o),
(135,695,o),
(135,632,cs),
(135,0,ls),
(135,-63,o),
(105,-72,o),
(67,-72,cs),
(31,-72,l),
(31,-128,l)
);
}
);
vertWidth = 0;
width = 379;
}
);
script = "";
subCategory = Parenthesis;
unicode = 93;
}
{
category = Symbol;
glyphname = asciicircum;
layers = (
{
layerId = "94EB6DF8-7434-4BE0-9F23-77BCD575F5B8";
shapes = (
{
closed = 1;
nodes = (
(88,272,l),
(278,679,l),
(470,272,l),
(501,272,l),
(290,714,l),
(265,714,l),
(57,272,l)
);
}
);
vertWidth = 0;
width = 559;
},
{
layerId = "B2542900-2B87-4688-8902-A06B6D3D93DD";
shapes = (
{
closed = 1;
nodes = (
(115,267,l),
(278,628,l),
(443,267,l),
(506,267,l),
(295,714,l),
(262,714,l),
(51,267,l)
);
}
);
vertWidth = 0;
width = 559;
},
{
layerId = "18A8C34B-6260-4854-BBF8-229863F38B25";
shapes = (
{
closed = 1;
nodes = (
(124,262,l),
(278,604,l),
(434,262,l),
(512,262,l),
(300,714,l),
(257,714,l),
(45,262,l)
);
}
);
vertWidth = 0;
width = 559;
},
{
layerId = "33F2F8B2-CCE7-4937-A852-9C044B0330C5";
shapes = (
{
closed = 1;
nodes = (
(72,271,l),
(211,665,l),
(352,271,l),
(384,271,l),
(223,714,l),
(199,714,l),
(40,271,l)
);
}
);
vertWidth = 0;
width = 424;
},
{
layerId = "5278E13D-D735-4789-ABCD-F52B0BBC306E";
shapes = (
{
closed = 1;
nodes = (
(85,267,l),
(211,624,l),
(338,267,l),
(394,267,l),
(226,714,l),
(197,714,l),
(30,267,l)
);
}
);
vertWidth = 0;
width = 424;
},
{
layerId = "03D26766-37BE-4C80-9191-ECBB7A84F3C2";
shapes = (
{
closed = 1;
nodes = (
(86,261,l),
(211,600,l),
(337,261,l),
(409,261,l),
(232,714,l),
(191,714,l),
(15,261,l)
);
}
);
vertWidth = 0;
width = 424;
}
);
script = "";
subCategory = Math;
unicode = 94;
}
{
category = Punctuation;
glyphname = braceleft;
layers = (
{
layerId = "94EB6DF8-7434-4BE0-9F23-77BCD575F5B8";
shapes = (
{
closed = 1;
nodes = (
(270,-132,l),
(270,-107,l),
(240,-107,ls),
(183,-107,o),
(158,-68,o),
(158,6,cs),
(158,187,ls),
(158,259,o),
(123,307,o),
(63,315,c),
(63,317,l),
(122,324,o),
(158,373,o),
(158,443,cs),
(158,620,ls),
(158,697,o),
(183,735,o),
(245,735,cs),
(270,735,l),
(270,760,l),
(240,760,ls),
(169,760,o),
(129,710,o),
(129,621,cs),
(129,445,ls),
(129,356,o),
(78,326,o),
(10,324,c),
(10,306,l),
(78,303,o),
(129,274,o),
(129,184,cs),
(129,8,ls),
(129,-78,o),
(169,-132,o),
(240,-132,cs)
);
}
);
vertWidth = 0;
width = 328;
},
{
layerId = "B2542900-2B87-4688-8902-A06B6D3D93DD";
shapes = (
{
closed = 1;
nodes = (
(341,-128,l),
(341,-87,l),
(311,-87,ls),
(252,-87,o),
(229,-50,o),
(229,19,cs),
(229,192,ls),
(229,259,o),
(194,305,o),
(120,317,c),
(120,318,l),
(192,330,o),
(229,375,o),
(229,441,cs),
(229,613,ls),
(229,683,o),
(252,719,o),
(312,719,cs),
(341,719,l),
(341,760,l),
(279,760,ls),
(187,760,o),
(138,708,o),
(138,618,cs),
(138,443,ls),
(138,361,o),
(86,338,o),
(20,336,c),
(20,297,l),
(86,294,o),
(138,272,o),
(138,189,cs),
(138,15,ls),
(138,-72,o),
(187,-128,o),
(279,-128,cs)
);
}
);
vertWidth = 0;
width = 419;
},
{
layerId = "BB0A671B-466D-4412-B862-1FE3A30BF7BB";
shapes = (
{
closed = 1;
nodes = (
(386,-126,l),
(386,-78,l),
(350,-78,ls),
(293,-78,o),
(275,-42,o),
(275,23,cs),
(275,195,ls),
(275,258,o),
(241,300,o),
(166,316,c),
(166,321,l),
(241,336,o),
(275,378,o),
(275,440,cs),
(275,611,ls),
(275,677,o),
(293,712,o),
(351,712,cs),
(386,712,l),
(386,760,l),
(304,760,ls),
(200,760,o),
(145,707,o),
(145,616,cs),
(145,442,ls),
(145,364,o),
(94,346,o),
(28,344,c),
(28,292,l),
(94,289,o),
(145,271,o),
(145,192,cs),
(145,20,ls),
(145,-70,o),
(200,-126,o),
(304,-126,cs)
);
}
);
vertWidth = 0;
width = 476;
},
{
layerId = "18A8C34B-6260-4854-BBF8-229863F38B25";
shapes = (
{
closed = 1;
nodes = (
(419,-125,l),
(419,-71,l),
(379,-71,ls),
(323,-71,o),
(309,-37,o),
(309,26,cs),
(309,197,ls),
(309,257,o),
(275,296,o),
(199,315,c),
(199,323,l),
(276,341,o),
(309,380,o),
(309,440,cs),
(309,610,ls),
(309,673,o),
(323,707,o),
(379,707,cs),
(419,707,l),
(419,760,l),
(322,760,ls),
(209,760,o),
(150,707,o),
(150,614,cs),
(150,442,ls),
(150,367,o),
(99,351,o),
(34,349,c),
(34,288,l),
(99,285,o),
(150,270,o),
(150,194,cs),
(150,23,ls),
(150,-68,o),
(209,-125,o),
(322,-125,cs)
);
}
);
vertWidth = 0;
width = 517;
},
{
layerId = "33F2F8B2-CCE7-4937-A852-9C044B0330C5";
shapes = (
{
closed = 1;
nodes = (
(261,-132,l),
(261,-107,l),
(245,-107,ls),
(195,-107,o),
(173,-70,o),
(173,13,cs),
(173,175,ls),
(173,260,o),
(142,303,o),
(93,313,c),
(93,315,l),
(142,325,o),
(173,370,o),
(173,455,cs),
(173,614,ls),
(173,698,o),
(195,735,o),
(245,735,cs),
(261,735,l),
(261,760,l),
(238,760,ls),
(177,760,o),
(146,705,o),
(146,621,cs),
(146,459,ls),
(146,355,o),
(106,333,o),
(52,326,c),
(52,302,l),
(106,295,o),
(146,275,o),
(146,171,cs),
(146,8,ls),
(146,-77,o),
(176,-132,o),
(240,-132,cs)
);
}
);
vertWidth = 0;
width = 314;
},
{
layerId = "5278E13D-D735-4789-ABCD-F52B0BBC306E";
shapes = (
{
closed = 1;
nodes = (
(306,-128,l),
(306,-86,l),
(281,-86,ls),
(235,-86,o),
(218,-49,o),
(218,19,cs),
(218,192,ls),
(218,259,o),
(190,305,o),
(131,317,c),
(131,318,l),
(190,329,o),
(218,375,o),
(218,441,cs),
(218,612,ls),
(218,682,o),
(235,718,o),
(281,718,cs),
(306,718,l),
(306,760,l),
(248,760,ls),
(170,760,o),
(128,708,o),
(128,617,cs),
(128,443,ls),
(128,362,o),
(88,339,o),
(35,337,c),
(35,297,l),
(88,294,o),
(128,272,o),
(128,189,cs),
(128,16,ls),
(128,-73,o),
(170,-128,o),
(248,-128,cs)
);
}
);
vertWidth = 0;
width = 341;
},
{
layerId = "E72CC6C8-F2F5-4BE7-9263-7F4440809454";
shapes = (
{
closed = 1;
nodes = (
(340,-126,l),
(340,-76,l),
(307,-76,ls),
(261,-76,o),
(250,-40,o),
(250,24,cs),
(250,195,ls),
(250,258,o),
(222,299,o),
(161,316,c),
(161,322,l),
(224,338,o),
(250,378,o),
(250,440,cs),
(250,611,ls),
(250,676,o),
(261,710,o),
(307,710,cs),
(340,710,l),
(340,760,l),
(259,760,ls),
(165,760,o),
(116,707,o),
(116,615,cs),
(116,442,ls),
(116,366,o),
(75,348,o),
(22,346,c),
(22,291,l),
(75,288,o),
(116,271,o),
(116,192,cs),
(116,21,ls),
(116,-70,o),
(165,-126,o),
(259,-126,cs)
);
}
);
vertWidth = 0;
width = 361;
},
{
layerId = "03D26766-37BE-4C80-9191-ECBB7A84F3C2";
shapes = (
{
closed = 1;
nodes = (
(364,-124,l),
(364,-68,l),
(326,-68,ls),
(280,-68,o),
(273,-34,o),
(273,27,cs),
(273,198,ls),
(273,257,o),
(246,294,o),
(183,315,c),
(183,325,l),
(249,344,o),
(273,381,o),
(273,440,cs),
(273,610,ls),
(273,671,o),
(280,705,o),
(326,705,cs),
(364,705,l),
(364,760,l),
(267,760,ls),
(162,760,o),
(108,707,o),
(108,613,cs),
(108,442,ls),
(108,369,o),
(66,354,o),
(12,352,c),
(12,286,l),
(66,283,o),
(108,270,o),
(108,195,cs),
(108,25,ls),
(108,-67,o),
(162,-124,o),
(267,-124,cs)
);
}
);
vertWidth = 0;
width = 376;
}
);
script = "";
subCategory = Parenthesis;
unicode = 123;
}
{
category = Symbol;
glyphname = bar;
layers = (
{
layerId = "94EB6DF8-7434-4BE0-9F23-77BCD575F5B8";
shapes = (
{
closed = 1;
nodes = (
(293,-240,l),
(293,760,l),
(265,760,l),
(265,-240,l)
);
}
);
vertWidth = 0;
width = 559;
},
{
layerId = "B2542900-2B87-4688-8902-A06B6D3D93DD";
shapes = (
{
closed = 1;
nodes = (
(308,-240,l),
(308,760,l),
(250,760,l),
(250,-240,l)
);
}
);
vertWidth = 0;
width = 558;
},
{
layerId = "BB0A671B-466D-4412-B862-1FE3A30BF7BB";
shapes = (
{
closed = 1;
nodes = (
(312,-240,l),
(312,760,l),
(246,760,l),
(246,-240,l)
);
}
);
vertWidth = 0;
width = 559;
},
{
layerId = "18A8C34B-6260-4854-BBF8-229863F38B25";
shapes = (
{
closed = 1;
nodes = (
(315,-240,l),
(315,760,l),
(243,760,l),
(243,-240,l)
);
}
);
vertWidth = 0;
width = 559;
},
{
layerId = "33F2F8B2-CCE7-4937-A852-9C044B0330C5";
shapes = (
{
closed = 1;
nodes = (
(226,-240,l),
(226,760,l),
(198,760,l),
(198,-240,l)
);
}
);
vertWidth = 0;
width = 423;
},
{
layerId = "5278E13D-D735-4789-ABCD-F52B0BBC306E";
shapes = (
{
closed = 1;
nodes = (
(246,-240,l),
(246,760,l),
(195,760,l),
(195,-240,l)
);
}
);
vertWidth = 0;
width = 442;
},
{
layerId = "E72CC6C8-F2F5-4BE7-9263-7F4440809454";
shapes = (
{
closed = 1;
nodes = (
(258,-240,l),
(258,760,l),
(197,760,l),
(197,-240,l)
);
}
);
vertWidth = 0;
width = 456;
},
{
layerId = "03D26766-37BE-4C80-9191-ECBB7A84F3C2";
shapes = (
{
closed = 1;
nodes = (
(267,-240,l),
(267,760,l),
(199,760,l),
(199,-240,l)
);
}
);
vertWidth = 0;
width = 466;
}
);
script = "";
subCategory = Other;
unicode = 124;
}
{
category = Punctuation;
glyphname = braceright;
layers = (
{
layerId = "94EB6DF8-7434-4BE0-9F23-77BCD575F5B8";
shapes = (
{
closed = 1;
nodes = (
(157,-132,ls),
(227,-132,o),
(267,-78,o),
(267,8,cs),
(267,184,ls),
(267,274,o),
(319,303,o),
(387,306,c),
(387,324,l),
(319,326,o),
(267,356,o),
(267,445,cs),
(267,621,ls),
(267,710,o),
(227,760,o),
(157,760,cs),
(127,760,l),
(127,735,l),
(152,735,ls),
(214,735,o),
(239,697,o),
(239,620,cs),
(239,443,ls),
(239,373,o),
(275,324,o),
(333,317,c),
(333,315,l),
(274,307,o),
(239,259,o),
(239,187,cs),
(239,6,ls),
(239,-68,o),
(214,-107,o),
(157,-107,cs),
(127,-107,l),
(127,-132,l)
);
}
);
vertWidth = 0;
width = 396;
},
{
layerId = "B2542900-2B87-4688-8902-A06B6D3D93DD";
shapes = (
{
closed = 1;
nodes = (
(175,-128,ls),
(267,-128,o),
(315,-72,o),
(315,15,cs),
(315,189,ls),
(315,272,o),
(368,294,o),
(434,297,c),
(434,336,l),
(368,338,o),
(315,361,o),
(315,443,cs),
(315,618,ls),
(315,708,o),
(267,760,o),
(175,760,cs),
(112,760,l),
(112,719,l),
(142,719,ls),
(202,719,o),
(225,683,o),
(225,613,cs),
(225,441,ls),
(225,375,o),
(262,330,o),
(334,318,c),
(334,317,l),
(259,305,o),
(225,259,o),
(225,192,cs),
(225,19,ls),
(225,-50,o),
(202,-87,o),
(143,-87,cs),
(112,-87,l),
(112,-128,l)
);
}
);
vertWidth = 0;
width = 453;
},
{
layerId = "BB0A671B-466D-4412-B862-1FE3A30BF7BB";
shapes = (
{
closed = 1;
nodes = (
(203,-126,ls),
(307,-126,o),
(361,-70,o),
(361,20,cs),
(361,192,ls),
(361,271,o),
(414,289,o),
(479,292,c),
(479,344,l),
(414,346,o),
(361,364,o),
(361,442,cs),
(361,616,ls),
(361,707,o),
(307,760,o),
(203,760,cs),
(121,760,l),
(121,712,l),
(157,712,ls),
(215,712,o),
(232,677,o),
(232,611,cs),
(232,440,ls),
(232,378,o),
(267,336,o),
(342,321,c),
(342,316,l),
(266,300,o),
(232,258,o),
(232,195,cs),
(232,23,ls),
(232,-42,o),
(215,-78,o),
(157,-78,cs),
(121,-78,l),
(121,-126,l)
);
}
);
vertWidth = 0;
width = 507;
},
{
layerId = "18A8C34B-6260-4854-BBF8-229863F38B25";
shapes = (
{
closed = 1;
nodes = (
(223,-125,ls),
(336,-125,o),
(395,-68,o),
(395,23,cs),
(395,194,ls),
(395,270,o),
(447,285,o),
(512,288,c),
(512,349,l),
(447,351,o),
(395,367,o),
(395,442,cs),
(395,614,ls),
(395,707,o),
(336,760,o),
(223,760,cs),
(127,760,l),
(127,707,l),
(167,707,ls),
(224,707,o),
(237,673,o),
(237,610,cs),
(237,440,ls),
(237,380,o),
(270,341,o),
(347,323,c),
(347,315,l),
(271,296,o),
(237,257,o),
(237,197,cs),
(237,26,ls),
(237,-37,o),
(224,-71,o),
(167,-71,cs),
(127,-71,l),
(127,-125,l)
);
}
);
vertWidth = 0;
width = 546;
},
{
layerId = "33F2F8B2-CCE7-4937-A852-9C044B0330C5";
shapes = (
{
closed = 1;
nodes = (
(74,-132,ls),
(138,-132,o),
(168,-77,o),
(168,8,cs),
(168,171,ls),
(168,275,o),
(208,295,o),
(262,302,c),
(262,326,l),
(208,333,o),
(168,355,o),
(168,459,cs),
(168,621,ls),
(168,705,o),
(137,760,o),
(76,760,cs),
(53,760,l),
(53,735,l),
(69,735,ls),
(119,735,o),
(141,698,o),
(141,614,cs),
(141,455,ls),
(141,370,o),
(172,325,o),
(221,315,c),
(221,313,l),
(172,303,o),
(141,260,o),
(141,175,cs),
(141,13,ls),
(141,-70,o),
(119,-107,o),
(69,-107,cs),
(53,-107,l),
(53,-132,l)
);
}
);
vertWidth = 0;
width = 267;
},
{
layerId = "5278E13D-D735-4789-ABCD-F52B0BBC306E";
shapes = (
{
closed = 1;
nodes = (
(94,-128,l),
(172,-128,o),
(213,-73,o),
(213,16,cs),
(213,189,ls),
(213,272,o),
(255,294,o),
(306,297,c),
(306,337,l),
(255,339,o),
(213,362,o),
(213,443,cs),
(213,617,ls),
(213,708,o),
(172,760,o),
(94,760,cs),
(35,760,l),
(35,718,l),
(61,718,ls),
(108,718,o),
(123,682,o),
(123,612,cs),
(123,441,ls),
(123,375,o),
(152,329,o),
(212,318,c),
(212,317,l),
(150,305,o),
(123,259,o),
(123,192,cs),
(123,19,ls),
(123,-49,o),
(108,-86,o),
(61,-86,cs),
(35,-86,l),
(35,-128,l)
);
}
);
vertWidth = 0;
width = 341;
},
{
layerId = "E72CC6C8-F2F5-4BE7-9263-7F4440809454";
shapes = (
{
closed = 1;
nodes = (
(103,-126,l),
(197,-126,o),
(245,-70,o),
(245,21,cs),
(245,192,ls),
(245,271,o),
(287,288,o),
(340,291,c),
(340,346,l),
(287,348,o),
(245,366,o),
(245,442,cs),
(245,615,ls),
(245,707,o),
(197,760,o),
(103,760,cs),
(22,760,l),
(22,710,l),
(55,710,ls),
(101,710,o),
(111,676,o),
(111,611,cs),
(111,440,ls),
(111,378,o),
(138,338,o),
(202,322,c),
(202,316,l),
(138,299,o),
(111,258,o),
(111,195,cs),
(111,24,ls),
(111,-40,o),
(101,-76,o),
(55,-76,cs),
(22,-76,l),
(22,-126,l)
);
}
);
vertWidth = 0;
width = 361;
},
{
layerId = "03D26766-37BE-4C80-9191-ECBB7A84F3C2";
shapes = (
{
closed = 1;
nodes = (
(109,-124,l),
(215,-124,o),
(268,-67,o),
(268,25,cs),
(268,195,ls),
(268,270,o),
(311,283,o),
(364,286,c),
(364,352,l),
(311,354,o),
(268,369,o),
(268,442,cs),
(268,613,ls),
(268,707,o),
(215,760,o),
(109,760,cs),
(12,760,l),
(12,705,l),
(51,705,ls),
(96,705,o),
(103,671,o),
(103,610,cs),
(103,440,ls),
(103,381,o),
(128,344,o),
(194,325,c),
(194,315,l),
(130,294,o),
(103,257,o),
(103,198,cs),
(103,27,ls),
(103,-34,o),
(96,-68,o),
(51,-68,cs),
(12,-68,l),
(12,-124,l)
);
}
);
vertWidth = 0;
width = 376;
}
);
script = "";
subCategory = Parenthesis;
unicode = 125;
}
{
category = Symbol;
glyphname = asciitilde;
layers = (
{
layerId = "94EB6DF8-7434-4BE0-9F23-77BCD575F5B8";
shapes = (
{
closed = 1;
nodes = (
(94,277,l),
(111,363,o),
(124,408,o),
(173,408,cs),
(220,408,o),
(250,367,o),
(277,339,cs),
(310,304,o),
(345,277,o),
(386,277,cs),
(467,277,o),
(483,381,o),
(494,436,c),
(463,436,l),
(447,370,o),
(437,305,o),
(386,305,cs),
(353,305,o),
(322,333,o),
(289,367,cs),
(255,402,o),
(223,436,o),
(173,436,cs),
(89,436,o),
(79,341,o),
(64,277,c)
);
}
);
vertWidth = 0;
width = 559;
},
{
layerId = "B2542900-2B87-4688-8902-A06B6D3D93DD";
shapes = (
{
closed = 1;
nodes = (
(111,270,l),
(119,349,o),
(136,387,o),
(175,387,cs),
(208,387,o),
(233,362,o),
(264,333,cs),
(301,298,o),
(336,270,o),
(382,270,cs),
(475,270,o),
(495,375,o),
(503,443,c),
(446,443,l),
(436,370,o),
(422,326,o),
(383,326,cs),
(355,326,o),
(329,350,o),
(300,377,cs),
(254,419,o),
(222,443,o),
(175,443,cs),
(82,443,o),
(63,346,o),
(55,270,c)
);
}
);
vertWidth = 0;
width = 559;
},
{
layerId = "18A8C34B-6260-4854-BBF8-229863F38B25";
shapes = (
{
closed = 1;
nodes = (
(119,262,l),
(122,345,o),
(141,378,o),
(176,378,cs),
(204,378,o),
(220,359,o),
(255,327,cs),
(303,283,o),
(333,262,o),
(384,262,cs),
(483,262,o),
(507,344,o),
(512,451,c),
(438,451,l),
(434,371,o),
(419,335,o),
(385,335,cs),
(361,335,o),
(340,354,o),
(306,384,cs),
(249,434,o),
(226,451,o),
(181,451,cs),
(79,451,o),
(48,366,o),
(46,262,c)
);
}
);
vertWidth = 0;
width = 559;
},
{
layerId = "33F2F8B2-CCE7-4937-A852-9C044B0330C5";
shapes = (
{
closed = 1;
nodes = (
(75,277,l),
(85,354,o),
(95,409,o),
(134,409,cs),
(155,409,o),
(168,394,o),
(203,345,cs),
(236,298,o),
(257,278,o),
(290,278,cs),
(357,278,o),
(370,368,o),
(378,435,c),
(350,435,l),
(340,358,o),
(329,305,o),
(290,305,cs),
(269,305,o),
(255,318,o),
(221,367,cs),
(188,415,o),
(167,436,o),
(134,436,cs),
(67,436,o),
(55,344,o),
(47,277,c)
);
}
);
vertWidth = 0;
width = 425;
},
{
layerId = "5278E13D-D735-4789-ABCD-F52B0BBC306E";
shapes = (
{
closed = 1;
nodes = (
(83,270,l),
(90,351,o),
(103,389,o),
(134,389,cs),
(155,389,o),
(170,370,o),
(199,335,cs),
(246,278,o),
(269,270,o),
(299,270,cs),
(370,270,o),
(392,362,o),
(398,444,c),
(344,444,l),
(338,363,o),
(326,325,o),
(296,325,cs),
(274,325,o),
(260,345,o),
(231,378,cs),
(194,418,o),
(169,444,o),
(131,444,cs),
(56,444,o),
(36,354,o),
(30,270,c)
);
}
);
vertWidth = 0;
width = 425;
},
{
layerId = "03D26766-37BE-4C80-9191-ECBB7A84F3C2";
shapes = (
{
closed = 1;
nodes = (
(83,260,l),
(83,344,o),
(99,376,o),
(129,376,cs),
(147,376,o),
(158,365,o),
(193,325,cs),
(242,270,o),
(268,260,o),
(299,260,cs),
(389,260,o),
(416,347,o),
(416,453,c),
(343,453,l),
(343,367,o),
(327,337,o),
(298,337,cs),
(278,337,o),
(269,352,o),
(238,385,cs),
(189,437,o),
(162,453,o),
(125,453,cs),
(38,453,o),
(10,366,o),
(10,260,c)
);
}
);
vertWidth = 0;
width = 425;
}
);
script = "";
subCategory = Math;
unicode = 126;
}
{
category = Symbol;
glyphname = multiply;
layers = (
{
layerId = "94EB6DF8-7434-4BE0-9F23-77BCD575F5B8";
shapes = (
{
closed = 1;
nodes = (
(279,337,l),
(474,143,l),
(494,162,l),
(299,357,l),
(494,553,l),
(475,573,l),
(279,377,l),
(84,572,l),
(65,552,l),
(260,357,l),
(66,163,l),
(84,143,l)
);
}
);
vertWidth = 0;
width = 559;
},
{
layerId = "B2542900-2B87-4688-8902-A06B6D3D93DD";
shapes = (
{
closed = 1;
nodes = (
(279,318,l),
(448,149,l),
(488,189,l),
(319,358,l),
(488,527,l),
(448,567,l),
(279,397,l),
(110,566,l),
(70,527,l),
(239,359,l),
(70,190,l),
(110,149,l)
);
}
);
vertWidth = 0;
width = 558;
},
{
layerId = "18A8C34B-6260-4854-BBF8-229863F38B25";
shapes = (
{
closed = 1;
nodes = (
(279,308,l),
(426,160,l),
(476,210,l),
(329,358,l),
(476,505,l),
(425,557,l),
(279,410,l),
(133,556,l),
(81,505,l),
(228,359,l),
(81,211,l),
(133,160,l)
);
}
);
vertWidth = 0;
width = 559;
},
{
layerId = "33F2F8B2-CCE7-4937-A852-9C044B0330C5";
shapes = (
{
closed = 1;
nodes = (
(219,340,l),
(361,150,l),
(384,168,l),
(237,363,l),
(384,560,l),
(362,577,l),
(219,387,l),
(76,577,l),
(54,560,l),
(201,363,l),
(54,168,l),
(77,150,l)
);
}
);
vertWidth = 0;
width = 425;
},
{
layerId = "5278E13D-D735-4789-ABCD-F52B0BBC306E";
shapes = (
{
closed = 1;
nodes = (
(215,314,l),
(343,151,l),
(386,186,l),
(251,358,l),
(386,529,l),
(343,564,l),
(215,403,l),
(88,565,l),
(44,530,l),
(180,358,l),
(44,185,l),
(87,151,l)
);
}
);
vertWidth = 0;
width = 425;
},
{
layerId = "03D26766-37BE-4C80-9191-ECBB7A84F3C2";
shapes = (
{
closed = 1;
nodes = (
(211,304,l),
(329,166,l),
(383,213,l),
(258,360,l),
(383,506,l),
(328,552,l),
(211,415,l),
(92,555,l),
(37,509,l),
(164,360,l),
(37,210,l),
(91,163,l)
);
}
);
vertWidth = 0;
width = 425;
}
);
script = "";
subCategory = Math;
unicode = 215;
}
{
category = Symbol;
glyphname = divide;
layers = (
{
layerId = "94EB6DF8-7434-4BE0-9F23-77BCD575F5B8";
shapes = (
{
closed = 1;
nodes = (
(494,343,l),
(494,371,l),
(65,371,l),
(65,343,l)
);
},
{
closed = 1;
nodes = (
(302,144,o),
(321,155,o),
(321,186,cs),
(321,219,o),
(302,229,o),
(280,229,cs),
(257,229,o),
(239,219,o),
(239,186,cs),
(239,155,o),
(257,144,o),
(280,144,cs)
);
},
{
closed = 1;
nodes = (
(302,486,o),
(321,497,o),
(321,529,cs),
(321,561,o),
(302,571,o),
(280,571,cs),
(257,571,o),
(239,561,o),
(239,529,cs),
(239,497,o),
(257,486,o),
(280,486,cs)
);
}
);
vertWidth = 0;
width = 559;
},
{
layerId = "B2542900-2B87-4688-8902-A06B6D3D93DD";
shapes = (
{
closed = 1;
nodes = (
(494,330,l),
(494,386,l),
(65,386,l),
(65,330,l)
);
},
{
closed = 1;
nodes = (
(308,116,o),
(330,130,o),
(330,170,cs),
(330,211,o),
(308,224,o),
(280,224,cs),
(251,224,o),
(230,211,o),
(230,170,cs),
(230,130,o),
(251,116,o),
(280,116,cs)
);
},
{
closed = 1;
nodes = (
(308,492,o),
(330,505,o),
(330,545,cs),
(330,586,o),
(308,599,o),
(280,599,cs),
(251,599,o),
(230,586,o),
(230,545,cs),
(230,505,o),
(251,492,o),
(280,492,cs)
);
}
);
vertWidth = 0;
width = 559;
},
{
layerId = "18A8C34B-6260-4854-BBF8-229863F38B25";
shapes = (
{
closed = 1;
nodes = (
(494,322,l),
(494,393,l),
(65,393,l),
(65,322,l)
);
},
{
closed = 1;
nodes = (
(311,107,o),
(336,123,o),
(336,168,cs),
(336,214,o),
(311,229,o),
(280,229,cs),
(248,229,o),
(224,214,o),
(224,168,cs),
(224,123,o),
(248,107,o),
(280,107,cs)
);
},
{
closed = 1;
nodes = (
(311,486,o),
(336,502,o),
(336,547,cs),
(336,593,o),
(311,608,o),
(280,608,cs),
(248,608,o),
(224,593,o),
(224,547,cs),
(224,502,o),
(248,486,o),
(280,486,cs)
);
}
);
vertWidth = 0;
width = 559;
},
{
layerId = "33F2F8B2-CCE7-4937-A852-9C044B0330C5";
shapes = (
{
closed = 1;
nodes = (
(375,344,l),
(375,372,l),
(50,372,l),
(50,344,l)
);
},
{
closed = 1;
nodes = (
(230,132,o),
(242,140,o),
(242,168,cs),
(242,198,o),
(230,206,o),
(213,206,cs),
(195,206,o),
(185,198,o),
(185,168,cs),
(185,140,o),
(195,132,o),
(213,132,cs)
);
},
{
closed = 1;
nodes = (
(230,513,o),
(242,521,o),
(242,549,cs),
(242,579,o),
(230,587,o),
(213,587,cs),
(195,587,o),
(185,579,o),
(185,549,cs),
(185,521,o),
(195,513,o),
(213,513,cs)
);
}
);
vertWidth = 0;
width = 425;
},
{
layerId = "5278E13D-D735-4789-ABCD-F52B0BBC306E";
shapes = (
{
closed = 1;
nodes = (
(382,329,l),
(382,386,l),
(43,386,l),
(43,329,l)
);
},
{
closed = 1;
nodes = (
(237,114,o),
(256,128,o),
(256,168,cs),
(256,209,o),
(237,222,o),
(213,222,cs),
(188,222,o),
(169,209,o),
(169,168,cs),
(169,128,o),
(188,114,o),
(213,114,cs)
);
},
{
closed = 1;
nodes = (
(237,493,o),
(256,507,o),
(256,547,cs),
(256,588,o),
(237,601,o),
(213,601,cs),
(188,601,o),
(169,588,o),
(169,547,cs),
(169,507,o),
(188,493,o),
(213,493,cs)
);
}
);
vertWidth = 0;
width = 425;
},
{
layerId = "03D26766-37BE-4C80-9191-ECBB7A84F3C2";
shapes = (
{
closed = 1;
nodes = (
(391,321,l),
(391,394,l),
(34,394,l),
(34,321,l)
);
},
{
closed = 1;
nodes = (
(241,106,o),
(264,122,o),
(264,168,cs),
(264,215,o),
(241,230,o),
(213,230,cs),
(182,230,o),
(161,215,o),
(161,168,cs),
(161,122,o),
(182,106,o),
(213,106,cs)
);
},
{
closed = 1;
nodes = (
(241,485,o),
(264,501,o),
(264,547,cs),
(264,594,o),
(241,609,o),
(213,609,cs),
(182,609,o),
(161,594,o),
(161,547,cs),
(161,501,o),
(182,485,o),
(213,485,cs)
);
}
);
vertWidth = 0;
width = 425;
}
);
script = "";
subCategory = Math;
unicode = 247;
}
{
category = Mark;
glyphname = "anudatta-deva";
layers = (
{
anchors = (
{
name = _vedic;
pos = (-299,340);
}
);
layerId = "94EB6DF8-7434-4BE0-9F23-77BCD575F5B8";
shapes = (
{
closed = 1;
nodes = (
(-95,-127,l),
(-95,-107,l),
(-502,-107,l),
(-502,-127,l)
);
}
);
vertWidth = 0;
width = 0;
},
{
anchors = (
{
name = _vedic;
pos = (-299,370);
}
);
layerId = "B2542900-2B87-4688-8902-A06B6D3D93DD";
shapes = (
{
closed = 1;
nodes = (
(-86,-144,l),
(-86,-92,l),
(-511,-92,l),
(-511,-144,l)
);
}
);
vertWidth = 0;
width = 0;
},
{
anchors = (
{
name = _vedic;
pos = (-299,420);
}
);
layerId = "BB0A671B-466D-4412-B862-1FE3A30BF7BB";
shapes = (
{
closed = 1;
nodes = (
(-62,-154,l),
(-62,-82,l),
(-536,-82,l),
(-536,-154,l)
);
}
);
vertWidth = 0;
width = 0;
},
{
anchors = (
{
name = _vedic;
pos = (-299,440);
}
);
layerId = "18A8C34B-6260-4854-BBF8-229863F38B25";
shapes = (
{
closed = 1;
nodes = (
(-47,-165,l),
(-47,-79,l),
(-550,-79,l),
(-550,-165,l)
);
}
);
vertWidth = 0;
width = 0;
},
{
anchors = (
{
name = _vedic;
pos = (-299,340);
}
);
layerId = "33F2F8B2-CCE7-4937-A852-9C044B0330C5";
shapes = (
{
closed = 1;
nodes = (
(-149,-127,l),
(-149,-107,l),
(-449,-107,l),
(-449,-127,l)
);
}
);
vertWidth = 0;
width = 0;
},
{
anchors = (
{
name = _vedic;
pos = (-299,380);
}
);
layerId = "5278E13D-D735-4789-ABCD-F52B0BBC306E";
shapes = (
{
closed = 1;
nodes = (
(-133,-144,l),
(-133,-92,l),
(-464,-92,l),
(-464,-144,l)
);
}
);
vertWidth = 0;
width = 0;
},
{
anchors = (
{
name = _vedic;
pos = (-299,420);
}
);
layerId = "E72CC6C8-F2F5-4BE7-9263-7F4440809454";
shapes = (
{
closed = 1;
nodes = (
(-110,-154,l),
(-110,-82,l),
(-487,-82,l),
(-487,-154,l)
);
}
);
vertWidth = 0;
width = 0;
},
{
anchors = (
{
name = _vedic;
pos = (-299,450);
}
);
layerId = "03D26766-37BE-4C80-9191-ECBB7A84F3C2";
shapes = (
{
closed = 1;
nodes = (
(-98,-165,l),
(-98,-79,l),
(-499,-79,l),
(-499,-165,l)
);
}
);
vertWidth = 0;
width = 0;
}
);
production = uni0952;
script = bengali;
subCategory = Nonspacing;
unicode = 2386;
}
{
category = Letter;
glyphname = "anusvara-beng";
layers = (
{
anchors = (
{
name = vedic;
pos = (-184,0);
}
);
layerId = "94EB6DF8-7434-4BE0-9F23-77BCD575F5B8";
shapes = (
{
closed = 1;
nodes = (
(275,380,o),
(326,433,o),
(326,509,cs),
(326,578,o),
(281,628,o),
(209,628,cs),
(136,628,o),
(85,574,o),
(85,500,cs),
(85,432,o),
(127,380,o),
(201,380,cs)
);
},
{
closed = 1;
nodes = (
(143,404,o),
(109,441,o),
(109,494,cs),
(109,553,o),
(151,604,o),
(218,604,cs),
(267,604,o),
(302,570,o),
(302,516,cs),
(302,455,o),
(261,404,o),
(193,404,cs)
);
},
{
closed = 1;
nodes = (
(356,-14,l),
(300,105,o),
(205,204,o),
(108,278,c),
(90,253,l),
(190,191,o),
(288,75,o),
(338,-24,c)
);
}
);
vertWidth = 0;
width = 411;
},
{
anchors = (
{
name = vedic;
pos = (-194,0);
}
);
layerId = "B2542900-2B87-4688-8902-A06B6D3D93DD";
shapes = (
{
closed = 1;
nodes = (
(264,365,o),
(320,419,o),
(320,497,cs),
(320,567,o),
(272,623,o),
(195,623,cs),
(118,623,o),
(63,568,o),
(63,492,cs),
(63,424,o),
(108,365,o),
(186,365,cs)
);
},
{
closed = 1;
nodes = (
(135,414,o),
(116,430,o),
(116,452,cs),
(116,511,o),
(172,569,o),
(230,569,cs),
(255,569,o),
(269,551,o),
(269,531,cs),
(269,480,o),
(212,414,o),
(156,414,cs)
);
},
{
closed = 1;
nodes = (
(362,-23,l),
(307,97,o),
(221,240,o),
(124,320,c),
(60,233,l),
(160,169,o),
(239,101,o),
(335,-38,c)
);
}
);
vertWidth = 0;
width = 385;
},
{
anchors = (
{
name = vedic;
pos = (-248,0);
}
);
layerId = "18A8C34B-6260-4854-BBF8-229863F38B25";
shapes = (
{
closed = 1;
nodes = (
(285,313,o),
(352,378,o),
(352,470,cs),
(352,554,o),
(295,621,o),
(203,621,cs),
(111,621,o),
(45,555,o),
(45,465,cs),
(45,384,o),
(99,313,o),
(192,313,cs)
);
},
{
closed = 1;
nodes = (
(147,402,o),
(134,411,o),
(134,434,cs),
(134,474,o),
(195,533,o),
(234,533,cs),
(255,533,o),
(265,523,o),
(265,507,cs),
(265,467,o),
(207,402,o),
(165,402,cs)
);
},
{
closed = 1;
nodes = (
(389,-67,l),
(317,96,o),
(224,226,o),
(117,285,c),
(44,142,l),
(145,102,o),
(218,67,o),
(327,-88,c)
);
}
);
vertWidth = 0;
width = 397;
},
{
anchors = (
{
name = vedic;
pos = (-136,0);
}
);
layerId = "33F2F8B2-CCE7-4937-A852-9C044B0330C5";
shapes = (
{
closed = 1;
nodes = (
(194,380,o),
(232,433,o),
(232,513,cs),
(232,579,o),
(206,628,o),
(150,628,cs),
(95,628,o),
(58,574,o),
(58,500,cs),
(58,433,o),
(87,380,o),
(142,380,cs)
);
},
{
closed = 1;
nodes = (
(104,404,o),
(81,441,o),
(81,494,cs),
(81,552,o),
(108,604,o),
(151,604,cs),
(186,604,o),
(211,571,o),
(211,517,cs),
(211,456,o),
(182,404,o),
(139,404,cs)
);
},
{
closed = 1;
nodes = (
(254,-14,l),
(214,105,o),
(148,203,o),
(79,278,c),
(61,253,l),
(132,191,o),
(199,72,o),
(240,-24,c)
);
}
);
vertWidth = 0;
width = 289;
},
{
anchors = (
{
name = vedic;
pos = (-167,0);
}
);
layerId = "5278E13D-D735-4789-ABCD-F52B0BBC306E";
shapes = (
{
closed = 1;
nodes = (
(193,365,o),
(236,420,o),
(236,497,cs),
(236,567,o),
(202,623,o),
(140,623,cs),
(82,623,o),
(40,568,o),
(40,492,cs),
(40,421,o),
(76,365,o),
(133,365,cs)
);
},
{
closed = 1;
nodes = (
(104,414,o),
(91,430,o),
(91,461,cs),
(91,510,o),
(124,569,o),
(160,569,cs),
(177,569,o),
(186,550,o),
(186,531,cs),
(186,481,o),
(154,414,o),
(121,414,cs)
);
},
{
closed = 1;
nodes = (
(264,-23,l),
(221,106,o),
(157,237,o),
(86,317,c),
(40,233,l),
(111,169,o),
(164,103,o),
(235,-38,c)
);
}
);
vertWidth = 0;
width = 276;
},
{
anchors = (
{
name = vedic;
pos = (-227,0);
}
);
layerId = "03D26766-37BE-4C80-9191-ECBB7A84F3C2";
shapes = (
{
closed = 1;
nodes = (
(255,314,o),
(314,378,o),
(314,470,cs),
(314,554,o),
(259,621,o),
(181,621,cs),
(100,621,o),
(40,554,o),
(40,464,cs),
(40,383,o),
(96,314,o),
(175,314,cs)
);
},
{
closed = 1;
nodes = (
(135,402,o),
(126,411,o),
(126,430,cs),
(126,474,o),
(183,533,o),
(210,533,cs),
(224,533,o),
(230,523,o),
(230,507,cs),
(230,468,o),
(178,402,o),
(146,402,cs)
);
},
{
closed = 1;
nodes = (
(347,-67,l),
(282,96,o),
(202,226,o),
(109,285,c),
(40,142,l),
(126,102,o),
(185,67,o),
(285,-88,c)
);
}
);
vertWidth = 0;
width = 347;
}
);
production = uni0982;
script = bengali;
subCategory = Other;
unicode = 2434;
}
{
category = Letter;
glyphname = "a-beng";
layers = (
{
anchors = (
{
name = bottom;
pos = (661,-13);
},
{
name = bottom.rakaar;
pos = (664,50);
},
{
name = bottom.rvocalic;
pos = (664,6);
},
{
name = bottom.virama;
pos = (654,0);
},
{
name = top;
pos = (664,602);
},
{
name = topright;
pos = (664,602);
},
{
name = vedic;
pos = (381,0);
}
);
layerId = "94EB6DF8-7434-4BE0-9F23-77BCD575F5B8";
shapes = (
{
closed = 1;
nodes = (
(664,-2,l),
(664,602,l),
(781,602,l),
(767,622,l),
(-19,622,l),
(-5,602,l),
(641,602,l),
(641,43,l),
(649,43,l),
(621,123,o),
(577,181,o),
(515,229,c),
(507,206,l),
(571,158,o),
(611,96,o),
(646,11,c),
(661,-3,l)
);
},
{
closed = 1;
nodes = (
(462,133,o),
(537,187,o),
(541,313,cs),
(545,441,o),
(459,518,o),
(354,513,cs),
(287,510,o),
(263,485,o),
(263,447,cs),
(263,413,o),
(286,390,o),
(319,390,cs),
(355,390,o),
(374,418,o),
(374,454,cs),
(374,527,o),
(327,577,o),
(289,605,c),
(248,605,l),
(311,570,o),
(345,521,o),
(352,484,c),
(358,486,o),
(363,487,o),
(371,487,cs),
(440,487,o),
(519,436,o),
(519,322,cs),
(519,216,o),
(460,159,o),
(360,159,cs),
(252,159,o),
(138,238,o),
(62,509,c),
(43,504,l),
(125,214,o),
(248,133,o),
(364,133,cs)
);
}
);
vertWidth = 0;
width = 762;
},
{
anchors = (
{
name = bottom;
pos = (678,0);
},
{
name = bottom.rakaar;
pos = (678,70);
},
{
name = bottom.rvocalic;
pos = (678,12);
},
{
name = bottom.virama;
pos = (658,6);
},
{
name = top;
pos = (678,570);
},
{
name = topright;
pos = (678,570);
},
{
name = vedic;
pos = (379,0);
}
);
layerId = "B2542900-2B87-4688-8902-A06B6D3D93DD";
shapes = (
{
closed = 1;
nodes = (
(678,-12,l),
(678,570,l),
(787,570,l),
(753,622,l),
(-29,622,l),
(4,570,l),
(624,570,l),
(624,71,l),
(631,87,l),
(589,169,o),
(540,214,o),
(485,248,c),
(464,186,l),
(529,150,o),
(583,99,o),
(626,24,c),
(673,-13,l)
);
},
{
closed = 1;
nodes = (
(474,93,o),
(523,194,o),
(523,303,cs),
(523,411,o),
(454,510,o),
(324,510,cs),
(253,510,o),
(199,476,o),
(199,407,cs),
(199,347,o),
(243,312,o),
(296,312,cs),
(353,312,o),
(386,355,o),
(386,413,cs),
(386,482,o),
(348,544,o),
(310,577,c),
(201,575,l),
(296,544,o),
(325,496,o),
(336,415,c),
(356,424,o),
(366,427,o),
(384,427,cs),
(422,427,o),
(465,392,o),
(470,315,cs),
(475,231,o),
(419,185,o),
(326,185,cs),
(214,185,o),
(128,263,o),
(59,492,c),
(17,479,l),
(100,171,o),
(214,93,o),
(335,93,cs)
);
}
);
vertWidth = 0;
width = 758;
},
{
anchors = (
{
name = bottom;
pos = (775,0);
},
{
name = bottom.rakaar;
pos = (775,100);
},
{
name = bottom.rvocalic;
pos = (775,11);
},
{
name = bottom.virama;
pos = (755,20);
},
{
name = top;
pos = (775,536);
},
{
name = topright;
pos = (775,536);
},
{
name = vedic;
pos = (427,0);
}
);
layerId = "18A8C34B-6260-4854-BBF8-229863F38B25";
shapes = (
{
closed = 1;
nodes = (
(775,-29,l),
(775,536,l),
(894,536,l),
(846,622,l),
(-39,622,l),
(8,536,l),
(660,536,l),
(660,80,l),
(679,97,l),
(640,177,o),
(599,217,o),
(570,236,c),
(534,142,l),
(594,113,o),
(638,74,o),
(678,14,c),
(764,-32,l)
);
},
{
closed = 1;
nodes = (
(488,12,o),
(601,80,o),
(601,258,cs),
(601,391,o),
(517,493,o),
(361,493,cs),
(263,493,o),
(207,438,o),
(207,360,cs),
(207,292,o),
(255,237,o),
(333,237,cs),
(408,237,o),
(447,287,o),
(447,354,cs),
(447,452,o),
(371,521,o),
(324,553,c),
(125,552,l),
(290,521,o),
(351,434,o),
(362,344,c),
(373,351,o),
(397,364,o),
(423,364,cs),
(470,364,o),
(518,340,o),
(518,278,cs),
(518,205,o),
(454,176,o),
(371,176,cs),
(247,176,o),
(145,244,o),
(72,470,c),
(8,455,l),
(78,163,o),
(190,12,o),
(378,12,cs)
);
}
);
vertWidth = 0;
width = 855;
},
{
anchors = (
{
name = bottom;
pos = (471,-13);
},
{
name = bottom.rakaar;
pos = (473,50);
},
{
name = bottom.rvocalic;
pos = (473,6);
},
{
name = bottom.virama;
pos = (465,0);
},
{
name = top;
pos = (473,602);
},
{
name = topright;
pos = (473,602);
},
{
name = vedic;
pos = (273,0);
}
);
layerId = "33F2F8B2-CCE7-4937-A852-9C044B0330C5";
shapes = (
{
closed = 1;
nodes = (
(473,-2,l),
(473,602,l),
(562,602,l),
(550,622,l),
(-15,622,l),
(-3,602,l),
(451,602,l),
(451,53,l),
(461,45,l),
(444,111,o),
(403,175,o),
(356,228,c),
(347,204,l),
(394,151,o),
(434,85,o),
(456,10,c),
(470,-3,l)
);
},
{
closed = 1;
nodes = (
(329,133,o),
(379,187,o),
(381,308,cs),
(384,442,o),
(328,512,o),
(248,512,cs),
(199,512,o),
(171,486,o),
(171,448,cs),
(171,416,o),
(190,394,o),
(219,394,cs),
(251,394,o),
(268,422,o),
(268,457,cs),
(268,534,o),
(230,582,o),
(205,605,c),
(168,605,l),
(219,573,o),
(242,530,o),
(248,483,c),
(254,485,o),
(261,486,o),
(267,486,cs),
(311,486,o),
(362,435,o),
(362,322,cs),
(362,216,o),
(321,159,o),
(251,159,cs),
(165,159,o),
(95,257,o),
(52,514,c),
(33,510,l),
(77,224,o),
(158,133,o),
(255,133,cs)
);
}
);
vertWidth = 0;
width = 547;
},
{
anchors = (
{
name = bottom;
pos = (508,0);
},
{
name = bottom.rakaar;
pos = (508,70);
},
{
name = bottom.rvocalic;
pos = (508,12);
},
{
name = bottom.virama;
pos = (494,6);
},
{
name = top;
pos = (508,570);
},
{
name = topright;
pos = (508,570);
},
{
name = vedic;
pos = (286,0);
}
);
layerId = "5278E13D-D735-4789-ABCD-F52B0BBC306E";
shapes = (
{
closed = 1;
nodes = (
(506,-12,l),
(506,570,l),
(598,570,l),
(570,622,l),
(-25,622,l),
(2,570,l),
(455,570,l),
(455,78,l),
(468,74,l),
(448,150,o),
(408,209,o),
(361,249,c),
(336,191,l),
(391,153,o),
(432,96,o),
(463,17,c),
(500,-13,l)
);
},
{
closed = 1;
nodes = (
(341,98,o),
(393,195,o),
(393,303,cs),
(393,415,o),
(340,510,o),
(240,510,cs),
(182,510,o),
(138,475,o),
(138,407,cs),
(138,347,o),
(172,312,o),
(218,312,cs),
(268,312,o),
(291,356,o),
(291,413,cs),
(291,482,o),
(254,544,o),
(224,577,c),
(122,575,l),
(209,544,o),
(239,496,o),
(246,415,c),
(258,424,o),
(269,427,o),
(284,427,cs),
(313,427,o),
(347,397,o),
(347,315,cs),
(347,231,o),
(307,190,o),
(244,190,cs),
(144,190,o),
(78,267,o),
(47,500,c),
(9,492,l),
(39,212,o),
(125,98,o),
(243,98,cs)
);
}
);
vertWidth = 0;
width = 573;
},
{
anchors = (
{
name = bottom;
pos = (686,0);
},
{
name = bottom.rakaar;
pos = (687,100);
},
{
name = bottom.rvocalic;
pos = (686,11);
},
{
name = bottom.virama;
pos = (668,20);
},
{
name = top;
pos = (686,536);
},
{
name = topright;
pos = (686,536);
},
{
name = vedic;
pos = (364,0);
}
);
layerId = "03D26766-37BE-4C80-9191-ECBB7A84F3C2";
shapes = (
{
closed = 1;
nodes = (
(683,-29,l),
(683,536,l),
(764,536,l),
(718,622,l),
(-35,622,l),
(10,536,l),
(572,536,l),
(572,108,l),
(593,108,l),
(571,167,o),
(536,211,o),
(496,241,c),
(453,137,l),
(508,109,o),
(558,69,o),
(597,12,c),
(672,-32,l)
);
},
{
closed = 1;
nodes = (
(423,20,o),
(531,80,o),
(531,258,cs),
(531,391,o),
(457,493,o),
(317,493,cs),
(228,493,o),
(179,438,o),
(179,360,cs),
(179,292,o),
(223,237,o),
(295,237,cs),
(363,237,o),
(399,287,o),
(399,354,cs),
(399,451,o),
(328,521,o),
(286,553,c),
(90,552,l),
(248,521,o),
(306,434,o),
(317,344,c),
(325,351,o),
(349,364,o),
(374,364,cs),
(412,364,o),
(451,340,o),
(451,278,cs),
(451,205,o),
(394,174,o),
(327,174,cs),
(225,174,o),
(134,244,o),
(73,470,c),
(6,455,l),
(71,163,o),
(162,20,o),
(331,20,cs)
);
}
);
vertWidth = 0;
width = 729;
}
);
metricLeft = "aaMatra-beng";
metricRight = "aaMatra-beng";
production = uni0985;
script = bengali;
subCategory = Other;
unicode = 2437;
}
{
category = Letter;
glyphname = "i-beng";
layers = (
{
anchors = (
{
name = bottom;
pos = (270,74);
},
{
name = bottom.rakaar;
pos = (382,-100);
},
{
name = bottom.rvocalic;
pos = (306,100);
},
{
name = bottom.virama;
pos = (236,90);
},
{
name = top;
pos = (267,626);
},
{
name = topright;
pos = (207,636);
},
{
name = vedic;
pos = (236,0);
}
);
layerId = "94EB6DF8-7434-4BE0-9F23-77BCD575F5B8";
shapes = (
{
closed = 1;
nodes = (
(394,618,l),
(388,720,o),
(346,769,o),
(274,769,cs),
(221,769,o),
(173,756,o),
(115,756,cs),
(54,756,o),
(21,783,o),
(21,861,cs),
(21,872,o),
(22,885,o),
(24,898,c),
(6,900,l),
(4,890,o),
(2,871,o),
(2,856,cs),
(2,767,o),
(48,733,o),
(115,733,cs),
(174,733,o),
(213,746,o),
(280,746,cs),
(342,746,o),
(370,693,o),
(375,618,c)
);
},
{
ref = "ha-beng";
}
);
vertWidth = 0;
width = 473;
},
{
anchors = (
{
name = bottom;
pos = (265,90);
},
{
name = bottom.rakaar;
pos = (385,-59);
},
{
name = bottom.rvocalic;
pos = (320,90);
},
{
name = bottom.virama;
pos = (244,90);
},
{
name = top;
pos = (274,617);
},
{
name = topright;
pos = (212,622);
},
{
name = vedic;
pos = (233,0);
}
);
layerId = "B2542900-2B87-4688-8902-A06B6D3D93DD";
shapes = (
{
closed = 1;
nodes = (
(394,612,l),
(388,739,o),
(344,805,o),
(251,805,cs),
(214,805,o),
(176,794,o),
(120,794,cs),
(55,794,o),
(17,807,o),
(17,885,cs),
(17,895,o),
(18,907,o),
(19,913,c),
(-23,917,l),
(-25,899,o),
(-26,880,o),
(-26,862,cs),
(-26,768,o),
(16,708,o),
(113,708,cs),
(179,708,o),
(229,720,o),
(266,720,cs),
(317,720,o),
(348,687,o),
(351,612,c)
);
},
{
ref = "ha-beng";
}
);
vertWidth = 0;
width = 466;
},
{
anchors = (
{
name = bottom;
pos = (330,25);
},
{
name = bottom.rakaar;
pos = (463,-100);
},
{
name = bottom.rvocalic;
pos = (423,18);
},
{
name = bottom.virama;
pos = (323,30);
},
{
name = top;
pos = (367,605);
},
{
name = topright;
pos = (315,604);
},
{
name = vedic;
pos = (269,0);
}
);
layerId = "18A8C34B-6260-4854-BBF8-229863F38B25";
shapes = (
{
closed = 1;
nodes = (
(492,588,l),
(489,737,o),
(426,831,o),
(320,831,cs),
(256,831,o),
(218,822,o),
(159,822,cs),
(82,822,o),
(58,847,o),
(58,897,cs),
(58,910,o),
(59,926,o),
(61,938,c),
(3,945,l),
(-3,919,o),
(-7,888,o),
(-7,851,cs),
(-7,748,o),
(56,682,o),
(166,682,cs),
(245,682,o),
(292,694,o),
(338,694,cs),
(389,694,o),
(421,676,o),
(420,588,c)
);
},
{
ref = "ha-beng";
}
);
vertWidth = 0;
width = 538;
},
{
anchors = (
{
name = bottom;
pos = (272,74);
},
{
name = bottom.rakaar;
pos = (384,-100);
},
{
name = bottom.rvocalic;
pos = (308,100);
},
{
name = bottom.virama;
pos = (238,90);
},
{
name = top;
pos = (269,626);
},
{
name = topright;
pos = (209,636);
},
{
name = vedic;
pos = (168,0);
}
);
layerId = "33F2F8B2-CCE7-4937-A852-9C044B0330C5";
shapes = (
{
closed = 1;
nodes = (
(286,618,l),
(280,726,o),
(256,768,o),
(191,768,cs),
(151,768,o),
(126,756,o),
(80,756,cs),
(26,756,o),
(3,784,o),
(3,861,cs),
(3,872,o),
(4,888,o),
(5,898,c),
(-13,900,l),
(-14,887,o),
(-15,870,o),
(-15,856,cs),
(-15,768,o),
(19,735,o),
(80,735,cs),
(129,735,o),
(147,747,o),
(192,747,cs),
(253,747,o),
(262,697,o),
(267,618,c)
);
},
{
pos = (2,0);
ref = "ha-beng";
}
);
vertWidth = 0;
width = 336;
},
{
anchors = (
{
name = bottom;
pos = (206,89);
},
{
name = bottom.rakaar;
pos = (294,-61);
},
{
name = bottom.rvocalic;
pos = (255,90);
},
{
name = bottom.virama;
pos = (194,90);
},
{
name = top;
pos = (219,617);
},
{
name = topright;
pos = (178,623);
},
{
name = vedic;
pos = (178,0);
}
);
layerId = "5278E13D-D735-4789-ABCD-F52B0BBC306E";
shapes = (
{
closed = 1;
nodes = (
(302,612,l),
(299,738,o),
(263,799,o),
(190,799,cs),
(153,799,o),
(130,790,o),
(94,790,cs),
(49,790,o),
(24,806,o),
(24,871,cs),
(24,885,o),
(25,901,o),
(27,912,c),
(-9,916,l),
(-12,896,o),
(-13,874,o),
(-13,859,cs),
(-13,760,o),
(23,712,o),
(97,712,cs),
(144,712,o),
(163,722,o),
(199,722,cs),
(238,722,o),
(261,688,o),
(262,612,c)
);
},
{
ref = "ha-beng";
}
);
vertWidth = 0;
width = 357;
},
{
anchors = (
{
name = bottom;
pos = (330,25);
},
{
name = bottom.rakaar;
pos = (463,-100);
},
{
name = bottom.rvocalic;
pos = (423,18);
},
{
name = bottom.virama;
pos = (323,30);
},
{
name = top;
pos = (367,605);
},
{
name = topright;
pos = (315,604);
},
{
name = vedic;
pos = (234,0);
}
);
layerId = "03D26766-37BE-4C80-9191-ECBB7A84F3C2";
shapes = (
{
closed = 1;
nodes = (
(428,588,l),
(422,755,o),
(365,823,o),
(269,823,cs),
(217,823,o),
(181,812,o),
(130,812,cs),
(63,812,o),
(37,841,o),
(37,895,cs),
(37,907,o),
(38,922,o),
(40,936,c),
(-14,943,l),
(-20,917,o),
(-23,886,o),
(-23,858,cs),
(-23,756,o),
(30,684,o),
(140,684,cs),
(200,684,o),
(239,695,o),
(277,695,cs),
(324,695,o),
(357,677,o),
(363,588,c)
);
},
{
ref = "ha-beng";
}
);
vertWidth = 0;
width = 469;
}
);
metricLeft = "ha-beng";
metricRight = "ha-beng";
production = uni0987;
script = bengali;
subCategory = Other;
unicode = 2439;
}
{
category = Letter;
glyphname = "ii-beng";
layers = (
{
anchors = (
{
name = bottom;
pos = (524,-32);
},
{
name = bottom.rakaar;
pos = (524,70);
},
{
name = bottom.rvocalic;
pos = (512,13);
},
{
name = bottom.virama;
pos = (519,0);
},
{
name = top;
pos = (339,626);
},
{
name = topright;
pos = (293,636);
},
{
name = vedic;
pos = (302,0);
}
);
layerId = "94EB6DF8-7434-4BE0-9F23-77BCD575F5B8";
shapes = (
{
closed = 1;
nodes = (
(524,9,l),
(500,81,o),
(484,139,o),
(484,236,cs),
(484,333,o),
(506,409,o),
(530,448,c),
(504,477,l),
(455,454,o),
(366,363,o),
(301,259,c),
(308,254,l),
(317,278,o),
(336,300,o),
(336,358,cs),
(336,460,o),
(269,509,o),
(173,509,cs),
(117,509,o),
(84,486,o),
(85,447,cs),
(86,416,o),
(107,400,o),
(135,400,cs),
(171,400,o),
(188,429,o),
(188,465,cs),
(188,508,o),
(161,564,o),
(101,606,c),
(59,606,l),
(116,578,o),
(151,540,o),
(166,486,c),
(151,470,l),
(166,479,o),
(180,484,o),
(199,484,cs),
(264,484,o),
(315,439,o),
(315,363,cs),
(315,318,o),
(308,281,o),
(287,248,cs),
(264,212,o),
(223,174,o),
(190,174,cs),
(139,174,o),
(104,235,o),
(84,270,c),
(68,262,l),
(92,215,o),
(132,148,o),
(194,148,cs),
(247,148,o),
(286,201,o),
(327,258,cs),
(375,325,o),
(467,432,o),
(513,452,c),
(508,459,l),
(483,429,o),
(460,337,o),
(460,244,cs),
(460,159,o),
(477,82,o),
(507,2,c)
);
},
{
closed = 1;
nodes = (
(624,602,l),
(610,622,l),
(-19,622,l),
(-5,602,l)
);
},
{
closed = 1;
nodes = (
(491,618,l),
(481,720,o),
(424,769,o),
(351,769,cs),
(291,769,o),
(261,755,o),
(190,755,cs),
(118,755,o),
(80,783,o),
(80,861,cs),
(80,872,o),
(81,885,o),
(83,898,c),
(65,900,l),
(62,886,o),
(61,869,o),
(61,856,cs),
(61,767,o),
(107,732,o),
(187,732,cs),
(260,732,o),
(283,746,o),
(357,746,cs),
(420,746,o),
(464,693,o),
(472,618,c)
);
}
);
vertWidth = 0;
width = 605;
},
{
anchors = (
{
name = bottom;
pos = (537,-12);
},
{
name = bottom.rakaar;
pos = (538,70);
},
{
name = bottom.rvocalic;
pos = (512,17);
},
{
name = bottom.virama;
pos = (516,0);
},
{
name = top;
pos = (367,617);
},
{
name = topright;
pos = (317,622);
},
{
name = vedic;
pos = (304,0);
}
);
layerId = "B2542900-2B87-4688-8902-A06B6D3D93DD";
shapes = (
{
closed = 1;
nodes = (
(535,4,l),
(511,64,o),
(500,121,o),
(500,181,cs),
(500,263,o),
(523,344,o),
(569,418,c),
(483,496,l),
(372,410,o),
(330,337,o),
(277,256,c),
(343,297,l),
(345,308,o),
(346,327,o),
(346,338,cs),
(346,425,o),
(294,508,o),
(168,508,cs),
(88,508,o),
(47,475,o),
(47,421,cs),
(47,374,o),
(77,342,o),
(128,342,cs),
(179,342,o),
(207,378,o),
(207,435,cs),
(207,478,o),
(179,544,o),
(141,577,c),
(45,577,l),
(94,559,o),
(139,521,o),
(152,468,c),
(99,409,l),
(138,428,o),
(162,438,o),
(203,438,cs),
(274,438,o),
(293,395,o),
(293,347,cs),
(293,314,o),
(280,277,o),
(259,246,cs),
(230,204,o),
(203,192,o),
(170,192,cs),
(142,192,o),
(113,208,o),
(86,261,c),
(50,245,l),
(94,141,o),
(141,107,o),
(194,107,cs),
(250,107,o),
(287,145,o),
(326,201,cs),
(382,281,o),
(424,342,o),
(513,421,c),
(485,417,l),
(456,355,o),
(442,286,o),
(442,224,cs),
(442,141,o),
(461,63,o),
(496,-14,c)
);
},
{
closed = 1;
nodes = (
(638,570,l),
(604,622,l),
(-29,622,l),
(4,570,l)
);
},
{
closed = 1;
nodes = (
(529,612,l),
(515,739,o),
(475,805,o),
(363,805,cs),
(315,805,o),
(273,796,o),
(214,796,cs),
(126,796,o),
(86,809,o),
(86,888,cs),
(86,895,o),
(86,904,o),
(87,913,c),
(46,917,l),
(43,899,o),
(42,883,o),
(42,867,cs),
(42,765,o),
(101,710,o),
(214,710,cs),
(285,710,o),
(346,720,o),
(390,720,cs),
(452,720,o),
(474,687,o),
(485,612,c)
);
}
);
vertWidth = 0;
width = 609;
},
{
anchors = (
{
name = bottom;
pos = (666,-30);
},
{
name = bottom.rakaar;
pos = (670,30);
},
{
name = bottom.rvocalic;
pos = (660,-57);
},
{
name = bottom.virama;
pos = (655,-65);
},
{
name = top;
pos = (467,605);
},
{
name = topright;
pos = (415,604);
},
{
name = vedic;
pos = (373,0);
}
);
layerId = "18A8C34B-6260-4854-BBF8-229863F38B25";
shapes = (
{
closed = 1;
nodes = (
(671,-92,l),
(650,-26,o),
(642,19,o),
(642,81,cs),
(642,175,o),
(670,284,o),
(721,372,c),
(579,486,l),
(494,432,o),
(428,351,o),
(384,274,c),
(413,209,l),
(420,235,o),
(422,262,o),
(422,288,cs),
(422,396,o),
(374,490,o),
(202,490,cs),
(107,490,o),
(51,445,o),
(51,372,cs),
(51,296,o),
(105,259,o),
(168,259,cs),
(235,259,o),
(281,304,o),
(281,382,cs),
(281,462,o),
(226,529,o),
(193,543,c),
(17,543,l),
(74,529,o),
(147,502,o),
(196,455,c),
(178,357,l),
(193,376,o),
(230,397,o),
(256,397,cs),
(312,397,o),
(343,363,o),
(343,309,cs),
(343,271,o),
(335,242,o),
(315,213,cs),
(292,179,o),
(261,159,o),
(210,159,cs),
(170,159,o),
(140,184,o),
(112,231,c),
(50,201,l),
(95,95,o),
(162,2,o),
(264,2,cs),
(352,2,o),
(410,72,o),
(484,171,cs),
(523,224,o),
(579,312,o),
(636,359,c),
(597,381,l),
(565,292,o),
(541,220,o),
(541,134,cs),
(541,39,o),
(578,-48,o),
(615,-114,c)
);
},
{
closed = 1;
nodes = (
(785,536,l),
(739,622,l),
(-39,622,l),
(8,536,l)
);
},
{
closed = 1;
nodes = (
(643,588,l),
(634,737,o),
(569,838,o),
(432,838,cs),
(356,838,o),
(305,822,o),
(229,822,cs),
(147,822,o),
(115,847,o),
(115,897,cs),
(115,910,o),
(116,926,o),
(118,938,c),
(60,945,l),
(54,919,o),
(50,888,o),
(50,859,cs),
(50,756,o),
(112,682,o),
(245,682,cs),
(328,682,o),
(392,701,o),
(460,701,cs),
(532,701,o),
(566,676,o),
(571,588,c)
);
}
);
vertWidth = 0;
width = 746;
},
{
anchors = (
{
name = bottom;
pos = (373,-32);
},
{
name = bottom.rakaar;
pos = (373,70);
},
{
name = bottom.rvocalic;
pos = (363,13);
},
{
name = bottom.virama;
pos = (368,0);
},
{
name = top;
pos = (244,626);
},
{
name = topright;
pos = (211,636);
},
{
name = vedic;
pos = (214,0);
}
);
layerId = "33F2F8B2-CCE7-4937-A852-9C044B0330C5";
shapes = (
{
closed = 1;
nodes = (
(374,9,l),
(359,72,o),
(344,131,o),
(344,230,cs),
(344,327,o),
(361,404,o),
(382,446,c),
(355,477,l),
(319,457,o),
(262,390,o),
(231,296,c),
(237,293,l),
(239,307,o),
(241,335,o),
(241,359,cs),
(241,462,o),
(193,509,o),
(122,509,cs),
(78,509,o),
(53,486,o),
(53,447,cs),
(53,416,o),
(70,400,o),
(93,400,cs),
(122,400,o),
(138,429,o),
(138,465,cs),
(138,508,o),
(116,566,o),
(76,606,c),
(40,606,l),
(79,578,o),
(105,540,o),
(116,486,c),
(101,469,l),
(114,478,o),
(126,483,o),
(142,483,cs),
(188,483,o),
(221,437,o),
(221,353,cs),
(221,309,o),
(216,272,o),
(202,238,cs),
(187,202,o),
(169,176,o),
(139,176,cs),
(103,176,o),
(77,233,o),
(63,269,c),
(46,260,l),
(64,212,o),
(92,151,o),
(141,151,cs),
(194,151,o),
(214,204,o),
(241,270,cs),
(266,331,o),
(299,403,o),
(364,452,c),
(358,453,l),
(339,423,o),
(322,328,o),
(322,238,cs),
(322,150,o),
(336,77,o),
(356,2,c)
);
},
{
closed = 1;
nodes = (
(444,602,l),
(432,622,l),
(-15,622,l),
(-3,602,l)
);
},
{
closed = 1;
nodes = (
(352,618,l),
(346,725,o),
(322,769,o),
(252,769,cs),
(204,769,o),
(180,755,o),
(134,755,cs),
(78,755,o),
(52,783,o),
(52,861,cs),
(52,872,o),
(53,888,o),
(54,898,c),
(36,900,l),
(35,887,o),
(34,870,o),
(34,856,cs),
(34,767,o),
(69,734,o),
(132,734,cs),
(181,734,o),
(202,748,o),
(257,748,cs),
(317,748,o),
(328,697,o),
(333,618,c)
);
}
);
vertWidth = 0;
width = 429;
},
{
anchors = (
{
name = bottom;
pos = (425,-12);
},
{
name = bottom.rakaar;
pos = (426,70);
},
{
name = bottom.rvocalic;
pos = (412,17);
},
{
name = bottom.virama;
pos = (413,0);
},
{
name = top;
pos = (296,617);
},
{
name = topright;
pos = (260,622);
},
{
name = vedic;
pos = (247,0);
}
);
layerId = "5278E13D-D735-4789-ABCD-F52B0BBC306E";
shapes = (
{
closed = 1;
nodes = (
(433,4,l),
(416,64,o),
(407,124,o),
(407,184,cs),
(407,265,o),
(423,344,o),
(459,418,c),
(377,482,l),
(325,427,o),
(295,372,o),
(268,304,c),
(276,308,l),
(279,321,o),
(280,339,o),
(280,349,cs),
(280,435,o),
(244,508,o),
(142,508,cs),
(78,508,o),
(45,475,o),
(45,421,cs),
(45,374,o),
(71,342,o),
(112,342,cs),
(156,342,o),
(182,376,o),
(182,433,cs),
(182,476,o),
(153,544,o),
(128,577,c),
(38,577,l),
(75,559,o),
(115,521,o),
(133,468,c),
(105,409,l),
(126,428,o),
(148,438,o),
(172,438,cs),
(218,438,o),
(239,399,o),
(239,344,cs),
(239,311,o),
(233,267,o),
(219,237,cs),
(203,202,o),
(181,186,o),
(154,186,cs),
(126,186,o),
(100,210,o),
(80,260,c),
(48,245,l),
(82,141,o),
(125,107,o),
(170,107,cs),
(222,107,o),
(254,143,o),
(294,219,cs),
(327,282,o),
(344,323,o),
(393,398,c),
(387,417,l),
(365,355,o),
(354,289,o),
(354,219,cs),
(354,141,o),
(370,65,o),
(395,-8,c)
);
},
{
closed = 1;
nodes = (
(519,570,l),
(492,622,l),
(-25,622,l),
(2,570,l)
);
},
{
closed = 1;
nodes = (
(415,612,l),
(406,739,o),
(371,805,o),
(285,805,cs),
(243,805,o),
(211,796,o),
(164,796,cs),
(104,796,o),
(77,809,o),
(77,888,cs),
(77,893,o),
(77,902,o),
(79,913,c),
(45,917,l),
(42,899,o),
(40,884,o),
(40,867,cs),
(40,766,o),
(83,710,o),
(169,710,cs),
(222,710,o),
(267,720,o),
(304,720,cs),
(350,720,o),
(370,687,o),
(376,612,c)
);
}
);
vertWidth = 0;
width = 494;
},
{
anchors = (
{
name = bottom;
pos = (574,-30);
},
{
name = bottom.rakaar;
pos = (578,30);
},
{
name = bottom.rvocalic;
pos = (572,-57);
},
{
name = bottom.virama;
pos = (565,-65);
},
{
name = top;
pos = (400,605);
},
{
name = topright;
pos = (355,604);
},
{
name = vedic;
pos = (321,0);
}
);
layerId = "03D26766-37BE-4C80-9191-ECBB7A84F3C2";
shapes = (
{
closed = 1;
nodes = (
(589,-83,l),
(566,-2,o),
(561,41,o),
(561,105,cs),
(561,202,o),
(588,297,o),
(627,372,c),
(489,486,l),
(412,433,o),
(373,351,o),
(334,274,c),
(364,209,l),
(371,234,o),
(373,260,o),
(373,288,cs),
(373,396,o),
(329,490,o),
(179,490,cs),
(94,490,o),
(42,445,o),
(42,372,cs),
(42,297,o),
(95,259,o),
(153,259,cs),
(213,259,o),
(259,301,o),
(257,382,cs),
(255,463,o),
(205,529,o),
(180,543,c),
(37,543,l),
(77,529,o),
(126,501,o),
(176,455,c),
(165,357,l),
(174,376,o),
(210,387,o),
(230,387,cs),
(275,387,o),
(302,360,o),
(302,306,cs),
(302,267,o),
(291,226,o),
(273,193,cs),
(255,159,o),
(228,135,o),
(198,135,cs),
(156,135,o),
(130,169,o),
(104,219,c),
(44,189,l),
(84,83,o),
(144,-10,o),
(242,-10,cs),
(324,-10,o),
(378,101,o),
(431,198,cs),
(469,264,o),
(505,330,o),
(549,359,c),
(507,375,l),
(477,303,o),
(465,240,o),
(465,155,cs),
(465,45,o),
(498,-39,o),
(532,-106,c)
);
},
{
closed = 1;
nodes = (
(678,536,l),
(634,622,l),
(-35,622,l),
(10,536,l)
);
},
{
closed = 1;
nodes = (
(557,588,l),
(546,737,o),
(500,829,o),
(368,829,cs),
(290,829,o),
(280,812,o),
(179,812,cs),
(112,812,o),
(88,841,o),
(88,895,cs),
(88,907,o),
(89,922,o),
(91,936,c),
(36,943,l),
(30,917,o),
(26,886,o),
(26,858,cs),
(26,756,o),
(80,684,o),
(206,684,cs),
(289,684,o),
(321,704,o),
(387,704,cs),
(455,704,o),
(480,676,o),
(488,588,c)
);
}
);
vertWidth = 0;
width = 643;
}
);
metricLeft = "aaMatra-beng";
metricRight = "aaMatra-beng";
production = uni0988;
script = bengali;
subCategory = Other;
unicode = 2440;
}
{
category = Letter;
glyphname = "u-beng";
layers = (
{
anchors = (
{
name = bottom;
pos = (445,40);
},
{
name = bottom.rakaar;
pos = (493,-26);
},
{
name = bottom.rvocalic;
pos = (412,85);
},
{
name = bottom.virama;
pos = (380,30);
},
{
name = nukta;
pos = (334,-12);
},
{
name = top;
pos = (284,602);
},
{
name = topright;
pos = (287,602);
},
{
name = vedic;
pos = (317,0);
}
);
layerId = "94EB6DF8-7434-4BE0-9F23-77BCD575F5B8";
shapes = (
{
closed = 1;
nodes = (
(522,618,l),
(512,720,o),
(457,769,o),
(382,769,cs),
(319,769,o),
(282,755,o),
(211,755,cs),
(139,755,o),
(101,783,o),
(101,861,cs),
(101,872,o),
(102,885,o),
(104,898,c),
(86,900,l),
(83,886,o),
(82,869,o),
(82,856,cs),
(82,767,o),
(128,732,o),
(208,732,cs),
(281,732,o),
(311,746,o),
(388,746,cs),
(453,746,o),
(495,693,o),
(503,618,c)
);
},
{
ref = "dda-beng";
}
);
vertWidth = 0;
width = 634;
},
{
anchors = (
{
name = bottom;
pos = (465,34);
},
{
name = bottom.rakaar;
pos = (513,-6);
},
{
name = bottom.rvocalic;
pos = (441,58);
},
{
name = bottom.virama;
pos = (381,14);
},
{
name = nukta;
pos = (334,-62);
},
{
name = top;
pos = (355,617);
},
{
name = topright;
pos = (297,622);
},
{
name = vedic;
pos = (309,0);
}
);
layerId = "B2542900-2B87-4688-8902-A06B6D3D93DD";
shapes = (
{
closed = 1;
nodes = (
(529,612,l),
(515,739,o),
(475,805,o),
(363,805,cs),
(315,805,o),
(273,796,o),
(214,796,cs),
(126,796,o),
(86,809,o),
(86,888,cs),
(86,895,o),
(86,904,o),
(87,913,c),
(46,917,l),
(43,899,o),
(42,883,o),
(42,867,cs),
(42,765,o),
(101,710,o),
(214,710,cs),
(285,710,o),
(346,720,o),
(390,720,cs),
(452,720,o),
(474,687,o),
(485,612,c)
);
},
{
ref = "dda-beng";
}
);
vertWidth = 0;
width = 618;
},
{
anchors = (
{
name = bottom;
pos = (515,-26);
},
{
name = bottom.rakaar;
pos = (582,-11);
},
{
name = bottom.rvocalic;
pos = (502,2);
},
{
name = bottom.virama;
pos = (437,-11);
},
{
name = nukta;
pos = (349,-142);
},
{
name = top;
pos = (427,597);
},
{
name = topright;
pos = (355,604);
},
{
name = vedic;
pos = (326,0);
}
);
layerId = "18A8C34B-6260-4854-BBF8-229863F38B25";
shapes = (
{
closed = 1;
nodes = (
(601,587,l),
(588,736,o),
(525,830,o),
(394,830,cs),
(325,830,o),
(296,821,o),
(237,821,cs),
(142,821,o),
(110,846,o),
(110,896,cs),
(110,909,o),
(111,925,o),
(113,937,c),
(55,944,l),
(49,918,o),
(45,887,o),
(45,858,cs),
(45,755,o),
(106,681,o),
(247,681,cs),
(318,681,o),
(361,693,o),
(407,693,cs),
(485,693,o),
(520,675,o),
(529,587,c)
);
},
{
ref = "dda-beng";
}
);
vertWidth = 0;
width = 652;
},
{
anchors = (
{
name = bottom;
pos = (318,40);
},
{
name = bottom.rakaar;
pos = (352,-26);
},
{
name = bottom.rvocalic;
pos = (296,85);
},
{
name = bottom.virama;
pos = (270,30);
},
{
name = nukta;
pos = (234,-12);
},
{
name = top;
pos = (243,623);
},
{
name = topright;
pos = (208,634);
},
{
name = vedic;
pos = (223,0);
}
);
layerId = "33F2F8B2-CCE7-4937-A852-9C044B0330C5";
shapes = (
{
closed = 1;
nodes = (
(371,618,l),
(365,725,o),
(341,769,o),
(271,769,cs),
(223,769,o),
(199,755,o),
(153,755,cs),
(97,755,o),
(71,783,o),
(71,861,cs),
(71,872,o),
(72,888,o),
(73,898,c),
(55,900,l),
(54,887,o),
(53,870,o),
(53,856,cs),
(53,767,o),
(88,734,o),
(151,734,cs),
(200,734,o),
(221,748,o),
(276,748,cs),
(336,748,o),
(347,697,o),
(352,618,c)
);
},
{
ref = "dda-beng";
}
);
vertWidth = 0;
width = 446;
},
{
anchors = (
{
name = bottom;
pos = (337,34);
},
{
name = bottom.rakaar;
pos = (376,-7);
},
{
name = bottom.rvocalic;
pos = (323,59);
},
{
name = bottom.virama;
pos = (281,15);
},
{
name = nukta;
pos = (234,-62);
},
{
name = top;
pos = (266,617);
},
{
name = topright;
pos = (222,623);
},
{
name = vedic;
pos = (219,0);
}
);
layerId = "5278E13D-D735-4789-ABCD-F52B0BBC306E";
shapes = (
{
closed = 1;
nodes = (
(388,612,l),
(382,737,o),
(341,801,o),
(262,801,cs),
(222,801,o),
(193,792,o),
(151,792,cs),
(94,792,o),
(70,814,o),
(70,870,cs),
(70,880,o),
(71,896,o),
(73,912,c),
(35,916,l),
(32,895,o),
(31,880,o),
(31,857,cs),
(31,765,o),
(73,712,o),
(158,712,cs),
(207,712,o),
(239,722,o),
(274,722,cs),
(320,722,o),
(342,687,o),
(349,612,c)
);
},
{
ref = "dda-beng";
}
);
vertWidth = 0;
width = 439;
},
{
anchors = (
{
name = bottom;
pos = (443,-23);
},
{
name = bottom.rakaar;
pos = (503,-11);
},
{
name = bottom.rvocalic;
pos = (436,5);
},
{
name = bottom.virama;
pos = (377,-10);
},
{
name = nukta;
pos = (302,-142);
},
{
name = top;
pos = (374,598);
},
{
name = topright;
pos = (309,605);
},
{
name = vedic;
pos = (277,0);
}
);
layerId = "03D26766-37BE-4C80-9191-ECBB7A84F3C2";
shapes = (
{
closed = 1;
nodes = (
(498,588,l),
(491,755,o),
(434,824,o),
(332,824,cs),
(276,824,o),
(241,812,o),
(187,812,cs),
(120,812,o),
(96,841,o),
(96,895,cs),
(96,907,o),
(97,922,o),
(99,936,c),
(44,943,l),
(38,917,o),
(34,886,o),
(34,858,cs),
(34,756,o),
(88,684,o),
(204,684,cs),
(267,684,o),
(308,696,o),
(342,696,cs),
(392,696,o),
(425,679,o),
(431,588,c)
);
},
{
ref = "dda-beng";
}
);
vertWidth = 0;
width = 554;
}
);
metricLeft = "dda-beng";
metricRight = "dda-beng";
production = uni0989;
script = bengali;
subCategory = Other;
unicode = 2441;
}
{
category = Letter;
glyphname = "uu-beng";
layers = (
{
anchors = (
{
name = bottom;
pos = (505,40);
},
{
name = bottom.rakaar;
pos = (553,-26);
},
{
name = bottom.rvocalic;
pos = (472,85);
},
{
name = bottom.virama;
pos = (440,30);
},
{
name = top;
pos = (382,623);
},
{
name = topright;
pos = (355,636);
},
{
name = vedic;
pos = (346,0);
}
);
layerId = "94EB6DF8-7434-4BE0-9F23-77BCD575F5B8";
shapes = (
{
closed = 1;
nodes = (
(563,84,o),
(623,169,o),
(623,286,cs),
(623,365,o),
(597,413,o),
(569,443,c),
(519,381,o),
(450,322,o),
(396,322,cs),
(360,322,o),
(343,340,o),
(343,369,cs),
(343,602,l),
(712,602,l),
(698,622,l),
(-19,622,l),
(-5,602,l),
(320,602,l),
(320,365,ls),
(320,335,o),
(333,319,o),
(348,310,cs),
(363,301,o),
(378,298,o),
(396,298,cs),
(456,298,o),
(516,342,o),
(577,412,c),
(562,421,l),
(581,398,o),
(601,360,o),
(601,293,cs),
(601,172,o),
(541,110,o),
(430,110,cs),
(276,110,o),
(205,282,o),
(155,499,c),
(136,494,l),
(171,326,o),
(217,188,o),
(324,108,c),
(342,117,l),
(201,143,o),
(110,278,o),
(55,499,c),
(36,494,l),
(97,230,o),
(203,84,o),
(422,84,cs)
);
},
{
closed = 1;
nodes = (
(588,618,l),
(578,720,o),
(530,769,o),
(446,769,cs),
(372,769,o),
(300,749,o),
(215,749,cs),
(136,749,o),
(81,783,o),
(81,861,cs),
(81,872,o),
(82,885,o),
(84,898,c),
(66,900,l),
(63,886,o),
(62,869,o),
(62,856,cs),
(62,767,o),
(125,726,o),
(212,726,cs),
(300,726,o),
(364,746,o),
(448,746,cs),
(523,746,o),
(561,693,o),
(569,618,c)
);
}
);
vertWidth = 0;
width = 693;
},
{
anchors = (
{
name = bottom;
pos = (525,34);
},
{
name = bottom.rakaar;
pos = (573,-6);
},
{
name = bottom.rvocalic;
pos = (501,58);
},
{
name = bottom.virama;
pos = (441,14);
},
{
name = top;
pos = (395,617);
},
{
name = topright;
pos = (367,622);
},
{
name = vedic;
pos = (339,0);
}
);
layerId = "B2542900-2B87-4688-8902-A06B6D3D93DD";
shapes = (
{
closed = 1;
nodes = (
(561,50,o),
(634,141,o),
(634,262,cs),
(634,359,o),
(600,426,o),
(542,477,c),
(503,415,o),
(446,354,o),
(387,354,cs),
(366,354,o),
(355,364,o),
(355,382,cs),
(355,570,l),
(707,570,l),
(673,622,l),
(-29,622,l),
(5,570,l),
(301,570,l),
(301,385,ls),
(301,351,o),
(311,325,o),
(333,305,cs),
(351,288,o),
(378,275,o),
(409,275,cs),
(469,275,o),
(536,322,o),
(580,389,c),
(543,383,l),
(570,365,o),
(583,339,o),
(583,284,cs),
(583,200,o),
(531,143,o),
(439,140,cs),
(287,135,o),
(235,292,o),
(175,502,c),
(133,490,l),
(179,307,o),
(218,194,o),
(301,129,c),
(330,127,l),
(221,158,o),
(139,279,o),
(72,502,c),
(30,490,l),
(106,187,o),
(239,50,o),
(427,50,cs)
);
},
{
closed = 1;
nodes = (
(592,612,l),
(578,739,o),
(530,809,o),
(419,809,cs),
(354,809,o),
(302,790,o),
(217,790,cs),
(130,790,o),
(97,809,o),
(97,888,cs),
(97,895,o),
(97,904,o),
(98,913,c),
(56,917,l),
(54,899,o),
(53,883,o),
(53,867,cs),
(53,759,o),
(105,704,o),
(217,704,cs),
(317,704,o),
(361,724,o),
(437,724,cs),
(509,724,o),
(537,687,o),
(548,612,c)
);
}
);
vertWidth = 0;
width = 678;
},
{
anchors = (
{
name = bottom;
pos = (606,-36);
},
{
name = bottom.rakaar;
pos = (673,-21);
},
{
name = bottom.rvocalic;
pos = (593,-8);
},
{
name = bottom.virama;
pos = (528,-21);
},
{
name = top;
pos = (490,602);
},
{
name = topright;
pos = (465,604);
},
{
name = vedic;
pos = (378,0);
}
);
layerId = "18A8C34B-6260-4854-BBF8-229863F38B25";
shapes = (
{
closed = 1;
nodes = (
(656,-35,o),
(738,80,o),
(738,234,cs),
(738,347,o),
(690,433,o),
(630,486,c),
(568,404,o),
(513,369,o),
(483,369,cs),
(466,369,o),
(448,375,o),
(448,401,cs),
(448,536,l),
(796,536,l),
(747,622,l),
(-39,622,l),
(10,536,l),
(333,536,l),
(333,370,ls),
(333,314,o),
(354,280,o),
(382,252,cs),
(412,222,o),
(450,206,o),
(496,206,cs),
(558,206,o),
(640,257,o),
(692,334,c),
(624,363,l),
(646,334,o),
(664,305,o),
(664,266,cs),
(664,182,o),
(592,126,o),
(488,126,cs),
(309,126,o),
(258,270,o),
(198,488,c),
(134,472,l),
(162,309,o),
(203,197,o),
(259,109,c),
(306,120,l),
(198,154,o),
(129,271,o),
(62,478,c),
(-1,462,l),
(64,143,o),
(209,-35,o),
(453,-35,cs)
);
},
{
closed = 1;
nodes = (
(694,588,l),
(681,737,o),
(608,835,o),
(460,835,cs),
(368,835,o),
(330,818,o),
(221,818,cs),
(129,818,o),
(101,847,o),
(101,897,cs),
(101,910,o),
(102,926,o),
(104,938,c),
(46,945,l),
(40,919,o),
(36,888,o),
(36,859,cs),
(36,756,o),
(91,680,o),
(246,680,cs),
(341,680,o),
(407,700,o),
(484,700,cs),
(564,700,o),
(613,676,o),
(622,588,c)
);
}
);
vertWidth = 0;
width = 757;
},
{
anchors = (
{
name = bottom;
pos = (361,40);
},
{
name = bottom.rakaar;
pos = (395,-26);
},
{
name = bottom.rvocalic;
pos = (338,85);
},
{
name = bottom.virama;
pos = (312,30);
},
{
name = top;
pos = (273,623);
},
{
name = topright;
pos = (253,636);
},
{
name = vedic;
pos = (241,0);
}
);
layerId = "33F2F8B2-CCE7-4937-A852-9C044B0330C5";
shapes = (
{
closed = 1;
nodes = (
(394,84,o),
(449,153,o),
(449,277,cs),
(449,358,o),
(422,413,o),
(395,443,c),
(366,378,o),
(322,322,o),
(281,322,cs),
(258,322,o),
(247,339,o),
(247,366,cs),
(247,602,l),
(497,602,l),
(484,622,l),
(-15,622,l),
(-3,602,l),
(225,602,l),
(225,365,ls),
(225,335,o),
(235,319,o),
(247,310,cs),
(258,301,o),
(270,298,o),
(284,298,cs),
(323,298,o),
(369,335,o),
(406,412,c),
(391,410,l),
(409,389,o),
(427,348,o),
(427,281,cs),
(427,161,o),
(375,109,o),
(300,109,cs),
(197,109,o),
(149,282,o),
(114,498,c),
(96,494,l),
(121,330,o),
(154,188,o),
(227,108,c),
(241,117,l),
(145,143,o),
(81,277,o),
(43,498,c),
(25,494,l),
(70,230,o),
(148,84,o),
(301,84,cs)
);
},
{
closed = 1;
nodes = (
(417,618,l),
(411,725,o),
(360,769,o),
(288,769,cs),
(245,769,o),
(193,755,o),
(147,755,cs),
(91,755,o),
(60,783,o),
(60,861,cs),
(60,872,o),
(61,888,o),
(62,898,c),
(44,900,l),
(43,887,o),
(42,870,o),
(42,856,cs),
(42,767,o),
(82,734,o),
(145,734,cs),
(194,734,o),
(243,748,o),
(293,748,cs),
(355,748,o),
(393,697,o),
(398,618,c)
);
}
);
vertWidth = 0;
width = 482;
},
{
anchors = (
{
name = bottom;
pos = (393,34);
},
{
name = bottom.rakaar;
pos = (432,-6);
},
{
name = bottom.rvocalic;
pos = (379,58);
},
{
name = bottom.virama;
pos = (335,14);
},
{
name = top;
pos = (305,617);
},
{
name = topright;
pos = (286,622);
},
{
name = vedic;
pos = (250,0);
}
);
layerId = "5278E13D-D735-4789-ABCD-F52B0BBC306E";
shapes = (
{
closed = 1;
nodes = (
(427,50,o),
(480,142,o),
(480,262,cs),
(480,358,o),
(446,424,o),
(401,469,c),
(377,403,o),
(332,353,o),
(298,353,cs),
(285,353,o),
(276,363,o),
(276,381,cs),
(276,570,l),
(525,570,l),
(496,622,l),
(-25,622,l),
(3,570,l),
(225,570,l),
(225,379,ls),
(225,348,o),
(232,324,o),
(251,305,cs),
(268,288,o),
(288,280,o),
(311,280,cs),
(360,280,o),
(411,326,o),
(443,393,c),
(403,368,l),
(421,350,o),
(434,323,o),
(434,280,cs),
(434,194,o),
(390,135,o),
(318,135,cs),
(207,135,o),
(171,292,o),
(129,502,c),
(93,490,l),
(121,307,o),
(149,195,o),
(201,129,c),
(226,127,l),
(149,158,o),
(95,279,o),
(47,502,c),
(11,490,l),
(62,187,o),
(161,50,o),
(314,50,cs)
);
},
{
closed = 1;
nodes = (
(446,612,l),
(437,739,o),
(395,809,o),
(307,809,cs),
(253,809,o),
(219,792,o),
(152,792,cs),
(95,792,o),
(71,814,o),
(71,870,cs),
(71,880,o),
(72,896,o),
(74,912,c),
(36,916,l),
(33,895,o),
(32,880,o),
(32,857,cs),
(32,765,o),
(74,712,o),
(159,712,cs),
(229,712,o),
(267,730,o),
(321,730,cs),
(375,730,o),
(400,687,o),
(408,612,c)
);
}
);
vertWidth = 0;
width = 500;
},
{
anchors = (
{
name = bottom;
pos = (537,-36);
},
{
name = bottom.rakaar;
pos = (599,-21);
},
{
name = bottom.rvocalic;
pos = (530,-8);
},
{
name = bottom.virama;
pos = (471,-21);
},
{
name = top;
pos = (441,602);
},
{
name = topright;
pos = (421,604);
},
{
name = vedic;
pos = (332,0);
}
);
layerId = "03D26766-37BE-4C80-9191-ECBB7A84F3C2";
shapes = (
{
closed = 1;
nodes = (
(579,-27,o),
(654,75,o),
(654,228,cs),
(654,342,o),
(611,422,o),
(558,475,c),
(507,385,o),
(466,348,o),
(436,348,cs),
(424,348,o),
(407,354,o),
(407,380,cs),
(407,536,l),
(699,536,l),
(652,622,l),
(-35,622,l),
(12,536,l),
(296,536,l),
(296,374,ls),
(296,319,o),
(309,281,o),
(337,251,cs),
(366,220,o),
(397,205,o),
(444,205,cs),
(505,205,o),
(570,253,o),
(604,331,c),
(548,322,l),
(565,301,o),
(576,272,o),
(576,243,cs),
(576,168,o),
(520,124,o),
(433,124,cs),
(273,124,o),
(232,268,o),
(179,486,c),
(118,470,l),
(139,307,o),
(174,195,o),
(212,107,c),
(258,118,l),
(169,152,o),
(115,271,o),
(56,476,c),
(-4,460,l),
(50,141,o),
(179,-27,o),
(411,-27,cs)
);
},
{
closed = 1;
nodes = (
(615,588,l),
(604,737,o),
(538,829,o),
(406,829,cs),
(328,829,o),
(288,812,o),
(187,812,cs),
(120,812,o),
(96,841,o),
(96,895,cs),
(96,907,o),
(97,922,o),
(99,936,c),
(44,943,l),
(38,917,o),
(34,886,o),
(34,858,cs),
(34,756,o),
(88,684,o),
(214,684,cs),
(297,684,o),
(359,704,o),
(425,704,cs),
(493,704,o),
(538,676,o),
(546,588,c)
);
}
);
vertWidth = 0;
width = 664;
}
);
metricLeft = "u-beng";
metricRight = "u-beng";
production = uni098A;
script = bengali;
subCategory = Other;
unicode = 2442;
}
{
category = Letter;
glyphname = "rVocalic-beng";
layers = (
{
anchors = (
{
name = bottom;
pos = (429,-13);
},
{
name = bottom.rakaar;
pos = (432,50);
},
{
name = bottom.rvocalic;
pos = (340,146);
},
{
name = bottom.virama;
pos = (422,0);
},
{
name = top;
pos = (432,602);
},
{
name = topright;
pos = (435,602);
},
{
name = vedic;
pos = (332,0);
}
);
layerId = "94EB6DF8-7434-4BE0-9F23-77BCD575F5B8";
shapes = (
{
closed = 1;
nodes = (
(432,-2,l),
(432,638,l),
(413,654,l),
(409,653,l),
(409,483,l),
(419,498,l),
(302,465,o),
(182,406,o),
(61,317,c),
(75,289,l),
(228,240,o),
(340,146,o),
(414,11,c),
(429,-3,l)
);
},
{
closed = 1;
nodes = (
(417,43,l),
(348,168,o),
(236,259,o),
(88,312,c),
(88,304,l),
(215,400,o),
(336,448,o),
(417,471,c),
(409,480,l),
(409,33,l)
);
},
{
closed = 1;
nodes = (
(160,479,o),
(245,524,o),
(281,599,c),
(269,594,l),
(296,576,o),
(335,532,o),
(368,479,c),
(391,474,l),
(350,552,o),
(302,600,o),
(268,624,c),
(229,546,o),
(156,505,o),
(89,505,cs),
(83,505,o),
(76,506,o),
(72,508,c),
(77,495,l),
(88,505,o),
(92,514,o),
(92,527,cs),
(92,548,o),
(79,563,o),
(55,563,cs),
(33,563,o),
(18,548,o),
(18,525,cs),
(18,491,o),
(46,479,o),
(83,479,cs)
);
},
{
closed = 1;
nodes = (
(566,101,l),
(566,602,l),
(683,602,l),
(669,622,l),
(566,622,l),
(563,661,l),
(547,674,l),
(543,673,l),
(543,136,l),
(551,146,l),
(517,210,o),
(475,272,o),
(424,315,c),
(417,292,l),
(468,248,o),
(512,183,o),
(548,114,c),
(563,100,l)
);
}
);
vertWidth = 0;
width = 664;
},
{
anchors = (
{
name = bottom;
pos = (505,0);
},
{
name = bottom.rakaar;
pos = (505,70);
},
{
name = bottom.rvocalic;
pos = (429,133);
},
{
name = bottom.virama;
pos = (485,6);
},
{
name = top;
pos = (505,570);
},
{
name = topright;
pos = (508,570);
},
{
name = vedic;
pos = (371,0);
}
);
layerId = "B2542900-2B87-4688-8902-A06B6D3D93DD";
shapes = (
{
closed = 1;
nodes = (
(505,-12,l),
(505,644,l),
(455,678,l),
(451,677,l),
(451,464,l),
(457,484,l),
(323,443,o),
(220,397,o),
(99,318,c),
(140,205,l),
(277,197,o),
(381,144,o),
(453,24,c),
(500,-13,l)
);
},
{
closed = 1;
nodes = (
(458,87,l),
(380,231,o),
(263,260,o),
(167,284,c),
(179,259,l),
(263,325,o),
(365,364,o),
(463,393,c),
(451,408,l),
(451,71,l)
);
},
{
closed = 1;
nodes = (
(226,437,o),
(316,471,o),
(373,551,c),
(332,546,l),
(366,520,o),
(374,500,o),
(416,444,c),
(451,453,l),
(410,536,o),
(373,587,o),
(332,625,c),
(269,536,o),
(186,518,o),
(153,518,cs),
(141,518,o),
(128,521,o),
(121,523,c),
(144,486,l),
(162,502,o),
(168,516,o),
(168,542,cs),
(168,577,o),
(144,602,o),
(104,602,cs),
(59,602,o),
(35,575,o),
(35,529,cs),
(35,464,o),
(93,437,o),
(146,437,cs)
);
},
{
closed = 1;
nodes = (
(662,85,l),
(662,570,l),
(771,570,l),
(736,622,l),
(662,622,l),
(658,665,l),
(612,698,l),
(608,697,l),
(608,168,l),
(615,184,l),
(577,253,o),
(531,302,o),
(482,338,c),
(475,263,l),
(530,234,o),
(573,182,o),
(610,121,c),
(659,84,l)
);
}
);
vertWidth = 0;
width = 742;
},
{
anchors = (
{
name = bottom;
pos = (549,0);
},
{
name = bottom.rakaar;
pos = (549,100);
},
{
name = bottom.rvocalic;
pos = (479,81);
},
{
name = bottom.virama;
pos = (529,20);
},
{
name = top;
pos = (549,536);
},
{
name = topright;
pos = (552,536);
},
{
name = vedic;
pos = (416,0);
}
);
layerId = "18A8C34B-6260-4854-BBF8-229863F38B25";
shapes = (
{
closed = 1;
nodes = (
(549,-42,l),
(549,636,l),
(443,694,l),
(434,690,l),
(434,406,l),
(447,480,l),
(325,447,o),
(172,379,o),
(68,315,c),
(132,148,l),
(258,140,o),
(388,98,o),
(452,1,c),
(538,-45,l)
);
},
{
closed = 1;
nodes = (
(453,84,l),
(381,232,o),
(263,255,o),
(170,262,c),
(193,190,l),
(251,231,o),
(369,295,o),
(454,317,c),
(434,354,l),
(434,67,l)
);
},
{
closed = 1;
nodes = (
(190,419,o),
(295,455,o),
(342,520,c),
(309,527,l),
(331,507,o),
(359,477,o),
(372,441,c),
(430,455,l),
(411,523,o),
(364,603,o),
(301,639,c),
(261,578,o),
(206,541,o),
(131,541,cs),
(115,541,o),
(101,545,o),
(88,551,c),
(148,482,l),
(169,500,o),
(176,517,o),
(176,547,cs),
(176,584,o),
(151,621,o),
(93,621,cs),
(41,621,o),
(6,585,o),
(6,532,cs),
(6,461,o),
(53,419,o),
(135,419,cs)
);
},
{
closed = 1;
nodes = (
(752,41,l),
(752,536,l),
(871,536,l),
(823,622,l),
(740,622,l),
(730,686,l),
(646,724,l),
(637,720,l),
(637,157,l),
(656,175,l),
(615,278,o),
(577,307,o),
(514,340,c),
(503,226,l),
(574,195,o),
(615,165,o),
(655,85,c),
(741,38,l)
);
}
);
vertWidth = 0;
width = 832;
},
{
anchors = (
{
name = bottom;
pos = (299,-13);
},
{
name = bottom.rakaar;
pos = (301,50);
},
{
name = bottom.rvocalic;
pos = (238,149);
},
{
name = bottom.virama;
pos = (292,0);
},
{
name = top;
pos = (301,602);
},
{
name = topright;
pos = (303,602);
},
{
name = vedic;
pos = (239,0);
}
);
layerId = "33F2F8B2-CCE7-4937-A852-9C044B0330C5";
shapes = (
{
closed = 1;
nodes = (
(303,-2,l),
(303,638,l),
(284,654,l),
(281,653,l),
(281,502,l),
(288,516,l),
(200,473,o),
(104,404,o),
(32,338,c),
(49,309,l),
(143,258,o),
(245,149,o),
(286,10,c),
(300,-3,l)
);
},
{
closed = 1;
nodes = (
(291,45,l),
(260,167,o),
(147,281,o),
(59,334,c),
(57,324,l),
(128,394,o),
(226,457,o),
(286,487,c),
(281,499,l),
(281,53,l)
);
},
{
closed = 1;
nodes = (
(111,482,o),
(173,526,o),
(200,599,c),
(184,594,l),
(204,576,o),
(224,538,o),
(251,482,c),
(264,491,l),
(236,561,o),
(211,602,o),
(188,624,c),
(157,548,o),
(105,507,o),
(58,507,cs),
(53,507,o),
(46,508,o),
(42,510,c),
(59,496,l),
(68,507,o),
(71,515,o),
(71,530,cs),
(71,551,o),
(60,568,o),
(37,568,cs),
(15,568,o),
(0,552,o),
(0,528,cs),
(0,499,o),
(24,482,o),
(58,482,cs)
);
},
{
closed = 1;
nodes = (
(404,98,l),
(404,602,l),
(493,602,l),
(481,622,l),
(404,622,l),
(402,661,l),
(385,674,l),
(382,673,l),
(382,153,l),
(392,145,l),
(376,206,o),
(340,266,o),
(297,316,c),
(295,284,l),
(335,235,o),
(368,176,o),
(387,110,c),
(401,97,l)
);
}
);
vertWidth = 0;
width = 478;
},
{
anchors = (
{
name = bottom;
pos = (371,0);
},
{
name = bottom.rakaar;
pos = (371,70);
},
{
name = bottom.rvocalic;
pos = (307,134);
},
{
name = bottom.virama;
pos = (356,6);
},
{
name = top;
pos = (371,570);
},
{
name = topright;
pos = (373,570);
},
{
name = vedic;
pos = (276,0);
}
);
layerId = "5278E13D-D735-4789-ABCD-F52B0BBC306E";
shapes = (
{
closed = 1;
nodes = (
(371,-12,l),
(371,644,l),
(324,678,l),
(320,677,l),
(320,476,l),
(326,501,l),
(230,454,o),
(140,399,o),
(57,342,c),
(111,235,l),
(213,203,o),
(282,134,o),
(328,17,c),
(365,-13,l)
);
},
{
closed = 1;
nodes = (
(333,74,l),
(300,201,o),
(211,278,o),
(126,308,c),
(132,293,l),
(185,335,o),
(267,382,o),
(328,411,c),
(320,432,l),
(320,78,l)
);
},
{
closed = 1;
nodes = (
(165,429,o),
(216,466,o),
(251,546,c),
(227,546,l),
(248,520,o),
(267,490,o),
(283,444,c),
(315,453,l),
(291,535,o),
(262,585,o),
(219,623,c),
(185,539,o),
(148,498,o),
(112,498,cs),
(103,498,o),
(89,501,o),
(84,505,c),
(116,476,l),
(130,492,o),
(135,507,o),
(135,532,cs),
(135,567,o),
(115,592,o),
(78,592,cs),
(41,592,o),
(17,566,o),
(17,521,cs),
(17,460,o),
(63,429,o),
(107,429,cs)
);
},
{
closed = 1;
nodes = (
(485,88,l),
(485,570,l),
(577,570,l),
(549,622,l),
(482,622,l),
(477,665,l),
(438,698,l),
(434,697,l),
(434,178,l),
(447,174,l),
(428,248,o),
(390,305,o),
(345,345,c),
(342,269,l),
(384,232,o),
(416,182,o),
(442,117,c),
(479,87,l)
);
}
);
vertWidth = 0;
width = 552;
},
{
anchors = (
{
name = bottom;
pos = (498,0);
},
{
name = bottom.rakaar;
pos = (498,100);
},
{
name = bottom.rvocalic;
pos = (441,110);
},
{
name = bottom.virama;
pos = (480,20);
},
{
name = top;
pos = (498,536);
},
{
name = topright;
pos = (501,536);
},
{
name = vedic;
pos = (351,0);
}
);
layerId = "03D26766-37BE-4C80-9191-ECBB7A84F3C2";
shapes = (
{
closed = 1;
nodes = (
(498,-29,l),
(498,636,l),
(395,694,l),
(387,690,l),
(387,432,l),
(397,493,l),
(281,452,o),
(142,383,o),
(62,330,c),
(140,178,l),
(243,160,o),
(345,111,o),
(412,12,c),
(487,-32,l)
);
},
{
closed = 1;
nodes = (
(408,108,l),
(374,201,o),
(296,256,o),
(231,282,c),
(241,247,l),
(287,284,o),
(358,315,o),
(407,332,c),
(387,386,l),
(387,108,l)
);
},
{
closed = 1;
nodes = (
(185,411,o),
(270,440,o),
(319,530,c),
(279,527,l),
(294,508,o),
(319,479,o),
(334,441,c),
(390,455,l),
(371,523,o),
(328,603,o),
(271,639,c),
(237,575,o),
(177,517,o),
(110,517,cs),
(101,517,o),
(88,518,o),
(80,521,c),
(133,483,l),
(152,501,o),
(159,518,o),
(159,548,cs),
(159,585,o),
(137,622,o),
(85,622,cs),
(33,622,o),
(0,586,o),
(0,533,cs),
(0,453,o),
(53,411,o),
(125,411,cs)
);
},
{
closed = 1;
nodes = (
(657,42,l),
(657,536,l),
(738,536,l),
(692,622,l),
(644,622,l),
(634,686,l),
(559,724,l),
(550,720,l),
(550,179,l),
(571,179,l),
(547,244,o),
(505,290,o),
(459,321,c),
(444,200,l),
(494,173,o),
(540,135,o),
(575,83,c),
(646,39,l)
);
}
);
vertWidth = 0;
width = 703;
}
);
metricLeft = "kha-beng";
metricRight = "jha-beng";
production = uni098B;
script = bengali;
subCategory = Other;
unicode = 2443;
}
{
category = Letter;
glyphname = "lVocalic-beng";
layers = (
{
anchors = (
{
name = top;
pos = (342,602);
},
{
name = vedic;
pos = (247,0);
}
);
layerId = "94EB6DF8-7434-4BE0-9F23-77BCD575F5B8";
shapes = (
{
closed = 1;
nodes = (
(367,71,o),
(453,140,o),
(453,265,cs),
(453,378,o),
(392,422,o),
(277,452,cs),
(180,477,o),
(112,498,o),
(112,588,cs),
(112,628,o),
(124,656,o),
(135,681,c),
(118,689,l),
(100,655,o),
(92,619,o),
(92,586,cs),
(92,484,o),
(157,460,o),
(266,431,cs),
(376,402,o),
(431,371,o),
(431,261,cs),
(431,161,o),
(364,95,o),
(310,82,c),
(323,77,l),
(332,201,o),
(293,280,o),
(195,280,cs),
(122,280,o),
(85,226,o),
(85,171,cs),
(85,109,o),
(120,73,o),
(157,73,cs),
(186,73,o),
(200,91,o),
(200,115,cs),
(200,139,o),
(182,155,o),
(160,155,cs),
(139,155,o),
(121,139,o),
(123,115,c),
(137,114,l),
(124,120,o),
(107,135,o),
(107,174,cs),
(107,238,o),
(158,258,o),
(196,258,cs),
(274,258,o),
(301,192,o),
(301,111,cs),
(301,85,o),
(298,69,o),
(296,56,c),
(299,53,l)
);
}
);
vertWidth = 0;
width = 495;
},
{
anchors = (
{
name = top;
pos = (370,570);
},
{
name = vedic;
pos = (262,0);
}
);
layerId = "B2542900-2B87-4688-8902-A06B6D3D93DD";
shapes = (
{
closed = 1;
nodes = (
(405,40,o),
(496,148,o),
(496,284,cs),
(496,430,o),
(427,472,o),
(277,507,cs),
(189,528,o),
(126,546,o),
(126,620,cs),
(126,646,o),
(132,672,o),
(142,698,c),
(103,712,l),
(85,674,o),
(77,631,o),
(77,599,cs),
(77,484,o),
(141,448,o),
(274,420,cs),
(380,397,o),
(446,377,o),
(446,264,cs),
(446,194,o),
(405,117,o),
(350,103,c),
(375,86,l),
(376,199,o),
(334,315,o),
(208,315,cs),
(112,315,o),
(60,251,o),
(60,172,cs),
(60,82,o),
(109,36,o),
(171,36,cs),
(219,36,o),
(241,70,o),
(241,105,cs),
(241,143,o),
(212,168,o),
(177,168,cs),
(144,168,o),
(115,145,o),
(114,117,c),
(154,119,l),
(131,127,o),
(113,147,o),
(113,182,cs),
(113,220,o),
(142,251,o),
(192,251,cs),
(272,251,o),
(301,161,o),
(301,73,cs),
(301,55,o),
(300,38,o),
(298,22,c),
(305,18,l)
);
}
);
vertWidth = 0;
width = 524;
},
{
anchors = (
{
name = top;
pos = (419,550);
},
{
name = vedic;
pos = (275,0);
}
);
layerId = "BB0A671B-466D-4412-B862-1FE3A30BF7BB";
shapes = (
{
closed = 1;
nodes = (
(414,6,o),
(531,92,o),
(531,271,cs),
(531,422,o),
(454,476,o),
(294,507,cs),
(205,525,o),
(143,541,o),
(143,618,cs),
(143,647,o),
(149,671,o),
(160,699,c),
(110,715,l),
(95,687,o),
(71,629,o),
(71,573,cs),
(71,453,o),
(144,413,o),
(275,389,cs),
(390,368,o),
(462,354,o),
(462,241,cs),
(462,166,o),
(420,111,o),
(362,104,c),
(408,76,l),
(409,210,o),
(347,325,o),
(215,325,cs),
(98,325,o),
(46,244,o),
(46,156,cs),
(46,56,o),
(100,6,o),
(171,6,cs),
(227,6,o),
(252,45,o),
(252,89,cs),
(252,135,o),
(220,166,o),
(175,166,cs),
(136,166,o),
(100,139,o),
(100,104,c),
(156,100,l),
(134,107,o),
(118,125,o),
(118,158,cs),
(118,195,o),
(147,224,o),
(194,224,cs),
(280,224,o),
(309,126,o),
(309,42,cs),
(309,26,o),
(308,11,o),
(305,-4,c),
(312,-9,l)
);
}
);
vertWidth = 0;
width = 551;
},
{
anchors = (
{
name = top;
pos = (454,536);
},
{
name = vedic;
pos = (285,0);
}
);
layerId = "18A8C34B-6260-4854-BBF8-229863F38B25";
shapes = (
{
closed = 1;
nodes = (
(420,-18,o),
(556,51,o),
(556,261,cs),
(556,417,o),
(474,479,o),
(306,507,cs),
(217,522,o),
(155,538,o),
(155,616,cs),
(155,648,o),
(161,670,o),
(173,699,c),
(115,718,l),
(102,696,o),
(67,628,o),
(67,555,cs),
(67,430,o),
(147,388,o),
(276,367,cs),
(398,347,o),
(473,338,o),
(473,225,cs),
(473,146,o),
(431,106,o),
(370,104,c),
(432,69,l),
(433,218,o),
(356,333,o),
(220,333,cs),
(87,333,o),
(35,239,o),
(35,145,cs),
(35,38,o),
(94,-15,o),
(171,-15,cs),
(232,-15,o),
(260,27,o),
(260,77,cs),
(260,130,o),
(225,164,o),
(174,164,cs),
(130,164,o),
(89,134,o),
(90,94,c),
(157,86,l),
(137,92,o),
(122,109,o),
(122,141,cs),
(122,177,o),
(150,204,o),
(196,204,cs),
(285,204,o),
(314,100,o),
(314,19,cs),
(314,5,o),
(313,-8,o),
(310,-22,c),
(317,-29,l)
);
}
);
vertWidth = 0;
width = 571;
},
{
anchors = (
{
name = top;
pos = (246,602);
},
{
name = vedic;
pos = (177,0);
}
);
layerId = "33F2F8B2-CCE7-4937-A852-9C044B0330C5";
shapes = (
{
closed = 1;
nodes = (
(268,71,o),
(327,137,o),
(327,264,cs),
(327,395,o),
(258,423,o),
(193,447,cs),
(135,468,o),
(80,489,o),
(80,585,cs),
(80,628,o),
(91,656,o),
(101,681,c),
(83,689,l),
(69,655,o),
(60,620,o),
(60,586,cs),
(60,475,o),
(120,450,o),
(180,429,cs),
(244,406,o),
(307,384,o),
(307,259,cs),
(307,159,o),
(263,95,o),
(222,82,c),
(232,77,l),
(238,201,o),
(215,280,o),
(140,280,cs),
(83,280,o),
(55,227,o),
(55,173,cs),
(55,109,o),
(86,73,o),
(119,73,cs),
(145,73,o),
(156,92,o),
(156,115,cs),
(156,139,o),
(141,155,o),
(122,155,cs),
(103,155,o),
(90,139,o),
(91,113,c),
(100,112,l),
(89,118,o),
(77,135,o),
(77,174,cs),
(77,238,o),
(112,258,o),
(140,258,cs),
(199,258,o),
(212,192,o),
(212,111,cs),
(212,89,o),
(211,73,o),
(208,56,c),
(211,53,l)
);
}
);
vertWidth = 0;
width = 355;
},
{
anchors = (
{
name = top;
pos = (286,570);
},
{
name = vedic;
pos = (192,0);
}
);
layerId = "5278E13D-D735-4789-ABCD-F52B0BBC306E";
shapes = (
{
closed = 1;
nodes = (
(292,40,o),
(369,146,o),
(369,284,cs),
(369,420,o),
(315,472,o),
(205,507,cs),
(141,527,o),
(96,543,o),
(96,616,cs),
(96,645,o),
(105,672,o),
(115,698,c),
(77,712,l),
(61,675,o),
(49,633,o),
(49,588,cs),
(49,482,o),
(104,446,o),
(196,420,cs),
(279,396,o),
(324,372,o),
(324,265,cs),
(324,195,o),
(295,120,o),
(254,105,c),
(282,86,l),
(283,199,o),
(242,315,o),
(149,315,cs),
(76,315,o),
(35,251,o),
(35,172,cs),
(35,84,o),
(74,36,o),
(122,36,cs),
(162,36,o),
(180,70,o),
(180,105,cs),
(180,143,o),
(157,168,o),
(125,168,cs),
(99,168,o),
(75,145,o),
(75,117,c),
(110,118,l),
(95,127,o),
(82,147,o),
(82,182,cs),
(82,219,o),
(103,251,o),
(138,251,cs),
(197,251,o),
(217,160,o),
(217,73,cs),
(217,55,o),
(217,38,o),
(215,22,c),
(220,18,l)
);
}
);
vertWidth = 0;
width = 385;
},
{
anchors = (
{
name = top;
pos = (356,550);
},
{
name = vedic;
pos = (225,0);
}
);
layerId = "E72CC6C8-F2F5-4BE7-9263-7F4440809454";
shapes = (
{
closed = 1;
nodes = (
(337,6,o),
(439,90,o),
(439,270,cs),
(439,406,o),
(378,469,o),
(251,505,cs),
(171,528,o),
(122,541,o),
(122,616,cs),
(122,647,o),
(128,671,o),
(139,699,c),
(89,715,l),
(70,678,o),
(52,631,o),
(52,570,cs),
(52,458,o),
(116,418,o),
(220,389,cs),
(317,362,o),
(373,346,o),
(373,242,cs),
(373,167,o),
(342,112,o),
(294,104,c),
(342,76,l),
(342,210,o),
(282,325,o),
(170,325,cs),
(73,325,o),
(27,246,o),
(27,159,cs),
(27,58,o),
(74,6,o),
(134,6,cs),
(185,6,o),
(207,42,o),
(207,89,cs),
(207,136,o),
(180,166,o),
(140,166,cs),
(105,166,o),
(78,139,o),
(79,104,c),
(129,99,l),
(112,107,o),
(100,126,o),
(100,158,cs),
(100,195,o),
(122,224,o),
(158,224,cs),
(228,224,o),
(252,125,o),
(252,42,cs),
(252,27,o),
(251,12,o),
(249,-4,c),
(255,-9,l)
);
}
);
vertWidth = 0;
width = 451;
},
{
anchors = (
{
name = top;
pos = (407,536);
},
{
name = vedic;
pos = (249,0);
}
);
layerId = "03D26766-37BE-4C80-9191-ECBB7A84F3C2";
shapes = (
{
closed = 1;
nodes = (
(370,-18,o),
(490,50,o),
(490,259,cs),
(490,395,o),
(423,466,o),
(285,503,cs),
(192,528,o),
(140,539,o),
(140,616,cs),
(140,648,o),
(145,670,o),
(157,699,c),
(97,718,l),
(77,680,o),
(54,630,o),
(54,557,cs),
(54,440,o),
(124,398,o),
(237,367,cs),
(345,337,o),
(409,328,o),
(409,225,cs),
(409,147,o),
(376,106,o),
(323,104,c),
(385,69,l),
(385,218,o),
(311,333,o),
(186,333,cs),
(70,333,o),
(22,242,o),
(22,150,cs),
(22,40,o),
(74,-15,o),
(142,-15,cs),
(201,-15,o),
(227,22,o),
(227,78,cs),
(227,131,o),
(197,164,o),
(151,164,cs),
(110,164,o),
(81,134,o),
(82,94,c),
(143,86,l),
(125,92,o),
(113,110,o),
(113,141,cs),
(113,177,o),
(135,204,o),
(173,204,cs),
(251,204,o),
(277,99,o),
(277,19,cs),
(277,6,o),
(276,-7,o),
(273,-22,c),
(280,-29,l)
);
}
);
vertWidth = 0;
width = 498;
}
);
production = uni098C;
script = bengali;
subCategory = Other;
unicode = 2444;
}
{
category = Letter;
glyphname = "e-beng";
layers = (
{
anchors = (
{
name = bottom;
pos = (543,-19);
},
{
name = bottom.rvocalic;
pos = (543,2);
},
{
name = bottom.virama;
pos = (533,0);
},
{
name = top;
pos = (457,602);
},
{
name = topright;
pos = (460,602);
},
{
name = vedic;
pos = (314,0);
}
);
layerId = "94EB6DF8-7434-4BE0-9F23-77BCD575F5B8";
shapes = (
{
closed = 1;
nodes = (
(543,-6,l),
(543,530,ls),
(543,596,o),
(520,631,o),
(459,631,cs),
(357,631,o),
(245,493,o),
(245,379,cs),
(245,317,o),
(279,299,o),
(307,299,cs),
(342,299,o),
(362,322,o),
(362,353,cs),
(362,386,o),
(342,406,o),
(313,406,cs),
(290,406,o),
(271,394,o),
(265,373,c),
(274,382,l),
(272,504,o),
(390,607,o),
(459,607,cs),
(505,607,o),
(520,585,o),
(520,528,cs),
(520,170,ls),
(520,135,o),
(520,89,o),
(522,52,c),
(487,119,o),
(440,128,o),
(395,128,cs),
(330,128,o),
(286,108,o),
(207,108,cs),
(118,108,o),
(75,154,o),
(75,249,cs),
(75,289,o),
(82,315,o),
(88,338,c),
(69,344,l),
(61,317,o),
(55,280,o),
(55,240,cs),
(55,119,o),
(120,82,o),
(205,82,cs),
(292,82,o),
(328,102,o),
(397,102,cs),
(447,102,o),
(490,86,o),
(527,7,c),
(540,-7,l)
);
}
);
vertWidth = 0;
width = 628;
},
{
anchors = (
{
name = bottom;
pos = (573,0);
},
{
name = bottom.rvocalic;
pos = (573,3);
},
{
name = bottom.virama;
pos = (553,6);
},
{
name = top;
pos = (480,570);
},
{
name = topright;
pos = (483,570);
},
{
name = vedic;
pos = (321,0);
}
);
layerId = "B2542900-2B87-4688-8902-A06B6D3D93DD";
shapes = (
{
closed = 1;
nodes = (
(573,-12,l),
(573,506,ls),
(573,582,o),
(537,632,o),
(456,632,cs),
(327,632,o),
(219,497,o),
(219,388,cs),
(219,312,o),
(263,272,o),
(325,270,cs),
(388,268,o),
(420,303,o),
(420,351,cs),
(420,391,o),
(396,428,o),
(344,428,cs),
(325,428,o),
(299,420,o),
(287,398,c),
(307,397,l),
(305,465,o),
(388,578,o),
(459,578,cs),
(508,578,o),
(519,545,o),
(519,496,cs),
(519,185,ls),
(519,150,o),
(520,116,o),
(523,81,c),
(484,150,o),
(450,174,o),
(388,174,cs),
(332,174,o),
(307,164,o),
(229,164,cs),
(154,164,o),
(97,198,o),
(97,286,cs),
(97,318,o),
(101,344,o),
(107,367,c),
(63,377,l),
(56,347,o),
(50,310,o),
(50,270,cs),
(50,123,o),
(133,73,o),
(228,73,cs),
(301,73,o),
(341,87,o),
(413,87,cs),
(461,87,o),
(487,74,o),
(521,24,c),
(568,-13,l)
);
}
);
vertWidth = 0;
width = 643;
},
{
anchors = (
{
name = bottom;
pos = (633,0);
},
{
name = bottom.rvocalic;
pos = (633,-10);
},
{
name = bottom.virama;
pos = (613,10);
},
{
name = top;
pos = (541,536);
},
{
name = topright;
pos = (544,536);
},
{
name = vedic;
pos = (349,0);
}
);
layerId = "18A8C34B-6260-4854-BBF8-229863F38B25";
shapes = (
{
closed = 1;
nodes = (
(633,-38,l),
(633,475,ls),
(633,568,o),
(572,633,o),
(466,633,cs),
(330,633,o),
(199,525,o),
(199,385,cs),
(199,298,o),
(254,249,o),
(329,249,cs),
(403,249,o),
(445,298,o),
(445,357,cs),
(445,411,o),
(409,446,o),
(360,446,cs),
(335,446,o),
(312,434,o),
(299,415,c),
(385,407,l),
(386,471,o),
(432,537,o),
(482,537,cs),
(506,537,o),
(518,523,o),
(518,500,cs),
(518,271,ls),
(518,214,o),
(524,136,o),
(533,98,c),
(485,190,o),
(438,204,o),
(370,204,cs),
(323,204,o),
(276,195,o),
(227,195,cs),
(159,195,o),
(103,238,o),
(103,323,cs),
(103,342,o),
(104,369,o),
(113,403,c),
(52,413,l),
(37,365,o),
(30,307,o),
(30,258,cs),
(30,94,o),
(129,32,o),
(238,32,cs),
(311,32,o),
(374,54,o),
(433,54,cs),
(477,54,o),
(517,42,o),
(553,-4,c),
(622,-41,l)
);
}
);
vertWidth = 0;
width = 698;
},
{
anchors = (
{
name = bottom;
pos = (404,-19);
},
{
name = bottom.rvocalic;
pos = (404,2);
},
{
name = bottom.virama;
pos = (395,0);
},
{
name = top;
pos = (342,602);
},
{
name = topright;
pos = (344,602);
},
{
name = vedic;
pos = (240,0);
}
);
layerId = "33F2F8B2-CCE7-4937-A852-9C044B0330C5";
shapes = (
{
closed = 1;
nodes = (
(406,-6,l),
(406,544,ls),
(406,604,o),
(385,630,o),
(346,630,cs),
(268,630,o),
(182,495,o),
(182,380,cs),
(182,321,o),
(211,301,o),
(236,301,cs),
(267,301,o),
(285,324,o),
(285,353,cs),
(285,386,o),
(265,403,o),
(240,403,cs),
(223,403,o),
(207,394,o),
(202,373,c),
(207,374,l),
(206,498,o),
(291,605,o),
(347,605,cs),
(374,605,o),
(384,587,o),
(384,528,cs),
(384,170,ls),
(384,135,o),
(384,88,o),
(386,57,c),
(363,110,o),
(326,124,o),
(293,124,cs),
(254,124,o),
(219,109,o),
(171,109,cs),
(105,109,o),
(70,157,o),
(70,254,cs),
(70,292,o),
(76,325,o),
(82,347,c),
(63,352,l),
(55,325,o),
(50,285,o),
(50,245,cs),
(50,123,o),
(104,83,o),
(170,83,cs),
(224,83,o),
(249,98,o),
(298,98,cs),
(333,98,o),
(363,82,o),
(388,7,c),
(403,-7,l)
);
}
);
vertWidth = 0;
width = 480;
},
{
anchors = (
{
name = bottom;
pos = (433,0);
},
{
name = bottom.rvocalic;
pos = (433,3);
},
{
name = bottom.virama;
pos = (419,6);
},
{
name = top;
pos = (357,570);
},
{
name = topright;
pos = (360,570);
},
{
name = vedic;
pos = (247,0);
}
);
layerId = "5278E13D-D735-4789-ABCD-F52B0BBC306E";
shapes = (
{
closed = 1;
nodes = (
(429,-12,l),
(429,513,ls),
(429,588,o),
(394,632,o),
(340,632,cs),
(243,632,o),
(156,497,o),
(156,388,cs),
(156,312,o),
(196,272,o),
(242,270,cs),
(297,268,o),
(320,306,o),
(320,351,cs),
(320,391,o),
(299,428,o),
(259,428,cs),
(244,428,o),
(226,420,o),
(217,398,c),
(239,397,l),
(239,473,o),
(295,576,o),
(341,576,cs),
(372,576,o),
(378,543,o),
(378,506,cs),
(378,185,ls),
(378,156,o),
(380,120,o),
(384,85,c),
(361,142,o),
(320,158,o),
(281,158,cs),
(240,158,o),
(217,153,o),
(169,153,cs),
(118,153,o),
(79,181,o),
(79,264,cs),
(79,308,o),
(84,338,o),
(89,360,c),
(48,366,l),
(41,334,o),
(35,292,o),
(35,251,cs),
(35,106,o),
(109,70,o),
(180,70,cs),
(231,70,o),
(256,79,o),
(300,79,cs),
(346,79,o),
(367,64,o),
(390,14,c),
(423,-13,l)
);
}
);
vertWidth = 0;
width = 494;
},
{
anchors = (
{
name = bottom;
pos = (549,0);
},
{
name = bottom.rvocalic;
pos = (549,-10);
},
{
name = bottom.virama;
pos = (531,10);
},
{
name = top;
pos = (471,536);
},
{
name = topright;
pos = (474,536);
},
{
name = vedic;
pos = (297,0);
}
);
layerId = "03D26766-37BE-4C80-9191-ECBB7A84F3C2";
shapes = (
{
closed = 1;
nodes = (
(550,-38,l),
(550,475,ls),
(550,568,o),
(490,633,o),
(391,633,cs),
(274,633,o),
(160,525,o),
(160,385,cs),
(160,298,o),
(222,249,o),
(291,249,cs),
(356,249,o),
(396,298,o),
(396,357,cs),
(396,411,o),
(363,446,o),
(322,446,cs),
(300,446,o),
(281,434,o),
(269,415,c),
(330,407,l),
(333,491,o),
(377,537,o),
(413,537,cs),
(428,537,o),
(439,523,o),
(439,500,cs),
(439,271,ls),
(439,216,o),
(445,136,o),
(454,98,c),
(412,186,o),
(363,203,o),
(311,203,cs),
(275,203,o),
(239,194,o),
(193,194,cs),
(128,194,o),
(92,230,o),
(92,313,cs),
(92,341,o),
(96,372,o),
(105,406,c),
(42,416,l),
(28,367,o),
(20,312,o),
(20,258,cs),
(20,96,o),
(106,35,o),
(204,35,cs),
(272,35,o),
(324,57,o),
(372,57,cs),
(404,57,o),
(440,42,o),
(471,-4,c),
(539,-41,l)
);
}
);
vertWidth = 0;
width = 595;
}
);
production = uni098F;
script = bengali;
subCategory = Other;
unicode = 2447;
}
{
category = Letter;
glyphname = "ai-beng";
layers = (
{
anchors = (
{
name = bottom;
pos = (543,-19);
},
{
name = bottom.rvocalic;
pos = (543,2);
},
{
name = bottom.virama;
pos = (533,0);
},
{
name = top;
pos = (486,602);
},
{
name = topright;
pos = (462,616);
},
{
name = vedic;
pos = (359,0);
}
);
layerId = "94EB6DF8-7434-4BE0-9F23-77BCD575F5B8";
shapes = (
{
closed = 1;
nodes = (
(608,415,o),
(649,476,o),
(649,565,cs),
(649,691,o),
(561,730,o),
(419,743,cs),
(307,753,o),
(213,764,o),
(213,869,cs),
(213,901,o),
(220,923,o),
(232,944,c),
(213,952,l),
(201,929,o),
(193,903,o),
(193,867,cs),
(193,749,o),
(283,729,o),
(412,720,cs),
(538,711,o),
(627,679,o),
(627,567,cs),
(627,486,o),
(594,432,o),
(535,378,c),
(540,355,l)
);
},
{
ref = "e-beng";
}
);
vertWidth = 0;
width = 719;
},
{
anchors = (
{
name = bottom;
pos = (573,0);
},
{
name = bottom.rvocalic;
pos = (573,3);
},
{
name = bottom.virama;
pos = (553,6);
},
{
name = top;
pos = (500,600);
},
{
name = topright;
pos = (464,602);
},
{
name = vedic;
pos = (379,0);
}
);
layerId = "B2542900-2B87-4688-8902-A06B6D3D93DD";
shapes = (
{
closed = 1;
nodes = (
(621,384,o),
(683,458,o),
(683,566,cs),
(683,734,o),
(546,756,o),
(419,774,cs),
(319,788,o),
(230,800,o),
(230,889,cs),
(230,916,o),
(236,944,o),
(246,968,c),
(207,982,l),
(189,944,o),
(181,901,o),
(181,869,cs),
(181,732,o),
(300,714,o),
(417,699,cs),
(529,685,o),
(640,672,o),
(640,557,cs),
(640,486,o),
(599,437,o),
(542,394,c),
(565,334,l)
);
},
{
ref = "e-beng";
}
);
vertWidth = 0;
width = 758;
},
{
anchors = (
{
name = bottom;
pos = (608,0);
},
{
name = bottom.rvocalic;
pos = (608,-5);
},
{
name = bottom.virama;
pos = (588,8);
},
{
name = top;
pos = (548,603);
},
{
name = topright;
pos = (502,599);
},
{
name = vedic;
pos = (394,0);
}
);
layerId = "BB0A671B-466D-4412-B862-1FE3A30BF7BB";
shapes = (
{
closed = 1;
nodes = (
(667,368,o),
(725,448,o),
(725,563,cs),
(725,758,o),
(572,776,o),
(438,795,cs),
(306,814,o),
(235,831,o),
(235,915,cs),
(235,943,o),
(242,974,o),
(255,1001,c),
(198,1020,l),
(176,976,o),
(164,932,o),
(164,884,cs),
(164,733,o),
(301,710,o),
(431,694,cs),
(573,677,o),
(663,657,o),
(663,552,cs),
(663,486,o),
(633,439,o),
(570,393,c),
(596,303,l)
);
},
{
alignment = -1;
ref = "e-beng";
}
);
vertWidth = 0;
width = 789;
},
{
anchors = (
{
name = bottom;
pos = (633,0);
},
{
name = bottom.rvocalic;
pos = (633,-10);
},
{
name = bottom.virama;
pos = (613,10);
},
{
name = top;
pos = (583,606);
},
{
name = topright;
pos = (530,596);
},
{
name = vedic;
pos = (405,0);
}
);
layerId = "18A8C34B-6260-4854-BBF8-229863F38B25";
shapes = (
{
closed = 1;
nodes = (
(701,356,o),
(756,441,o),
(756,561,cs),
(756,768,o),
(594,790,o),
(451,810,cs),
(338,826,o),
(238,840,o),
(238,933,cs),
(238,962,o),
(246,995,o),
(261,1025,c),
(191,1047,l),
(167,1000,o),
(152,955,o),
(152,894,cs),
(152,733,o),
(302,707,o),
(442,690,cs),
(566,675,o),
(679,663,o),
(679,549,cs),
(679,486,o),
(657,441,o),
(591,392,c),
(618,280,l)
);
},
{
ref = "e-beng";
}
);
vertWidth = 0;
width = 811;
},
{
anchors = (
{
name = bottom;
pos = (404,-19);
},
{
name = bottom.rvocalic;
pos = (404,2);
},
{
name = bottom.virama;
pos = (395,0);
},
{
name = top;
pos = (356,602);
},
{
name = topright;
pos = (332,616);
},
{
name = vedic;
pos = (275,0);
}
);
layerId = "33F2F8B2-CCE7-4937-A852-9C044B0330C5";
shapes = (
{
closed = 1;
nodes = (
(451,413,o),
(485,477,o),
(485,565,cs),
(485,691,o),
(416,730,o),
(316,743,cs),
(238,753,o),
(172,763,o),
(172,861,cs),
(172,896,o),
(182,924,o),
(190,945,c),
(171,952,l),
(162,929,o),
(152,899,o),
(152,859,cs),
(152,752,o),
(216,729,o),
(309,720,cs),
(396,712,o),
(463,679,o),
(463,567,cs),
(463,487,o),
(438,433,o),
(396,379,c),
(404,353,l)
);
},
{
ref = "e-beng";
}
);
vertWidth = 0;
width = 550;
},
{
anchors = (
{
name = bottom;
pos = (433,0);
},
{
name = bottom.rvocalic;
pos = (433,3);
},
{
name = bottom.virama;
pos = (419,6);
},
{
name = top;
pos = (377,600);
},
{
name = topright;
pos = (347,602);
},
{
name = vedic;
pos = (284,0);
}
);
layerId = "5278E13D-D735-4789-ABCD-F52B0BBC306E";
shapes = (
{
closed = 1;
nodes = (
(469,384,o),
(513,456,o),
(513,571,cs),
(513,726,o),
(420,755,o),
(317,772,cs),
(234,786,o),
(172,798,o),
(172,884,cs),
(172,914,o),
(179,944,o),
(188,968,c),
(152,982,l),
(138,948,o),
(127,907,o),
(127,865,cs),
(127,741,o),
(207,716,o),
(304,701,cs),
(397,687,o),
(472,674,o),
(472,557,cs),
(472,482,o),
(445,435,o),
(405,394,c),
(422,334,l)
);
},
{
ref = "e-beng";
}
);
vertWidth = 0;
width = 568;
},
{
anchors = (
{
name = bottom;
pos = (500,0);
},
{
name = bottom.rvocalic;
pos = (500,-5);
},
{
name = bottom.virama;
pos = (484,8);
},
{
name = top;
pos = (449,603);
},
{
name = topright;
pos = (408,599);
},
{
name = vedic;
pos = (316,0);
}
);
layerId = "E72CC6C8-F2F5-4BE7-9263-7F4440809454";
shapes = (
{
closed = 1;
nodes = (
(538,371,o),
(587,448,o),
(587,567,cs),
(587,732,o),
(470,765,o),
(361,787,cs),
(273,805,o),
(196,821,o),
(196,908,cs),
(196,938,o),
(203,970,o),
(214,995,c),
(164,1012,l),
(146,969,o),
(134,927,o),
(134,878,cs),
(134,744,o),
(227,708,o),
(344,686,cs),
(447,667,o),
(529,657,o),
(529,554,cs),
(529,487,o),
(507,441,o),
(457,396,c),
(478,308,l)
);
},
{
alignment = -1;
ref = "e-beng";
}
);
vertWidth = 0;
width = 633;
},
{
anchors = (
{
name = bottom;
pos = (549,0);
},
{
name = bottom.rvocalic;
pos = (549,-10);
},
{
name = bottom.virama;
pos = (531,10);
},
{
name = top;
pos = (501,606);
},
{
name = topright;
pos = (453,596);
},
{
name = vedic;
pos = (340,0);
}
);
layerId = "03D26766-37BE-4C80-9191-ECBB7A84F3C2";
shapes = (
{
closed = 1;
nodes = (
(588,361,o),
(640,442,o),
(640,564,cs),
(640,735,o),
(507,773,o),
(393,798,cs),
(302,818,o),
(213,838,o),
(213,925,cs),
(213,955,o),
(220,988,o),
(232,1015,c),
(172,1034,l),
(152,985,o),
(139,941,o),
(139,887,cs),
(139,746,o),
(242,702,o),
(373,675,cs),
(484,652,o),
(571,644,o),
(571,551,cs),
(571,490,o),
(552,445,o),
(495,397,c),
(518,290,l)
);
},
{
ref = "e-beng";
}
);
vertWidth = 0;
width = 680;
}
);
metricLeft = "e-beng";
production = uni0990;
script = bengali;
subCategory = Other;
unicode = 2448;
}
{
category = Letter;
glyphname = "o-beng";
layers = (
{
anchors = (
{
name = bottom;
pos = (510,41);
},
{
name = bottom.rakaar;
pos = (558,-25);
},
{
name = bottom.rvocalic;
pos = (477,86);
},
{
name = bottom.virama;
pos = (445,31);
},
{
name = top;
pos = (438,602);
},
{
name = topright;
pos = (435,602);
},
{
name = vedic;
pos = (345,0);
}
);
layerId = "94EB6DF8-7434-4BE0-9F23-77BCD575F5B8";
shapes = (
{
closed = 1;
nodes = (
(552,85,o),
(625,146,o),
(625,254,cs),
(625,367,o),
(541,408,o),
(496,408,cs),
(467,408,o),
(447,391,o),
(447,362,cs),
(447,332,o),
(468,317,o),
(496,317,cs),
(543,317,o),
(607,375,o),
(607,486,cs),
(607,569,o),
(553,616,o),
(467,616,cs),
(332,616,o),
(228,506,o),
(228,421,cs),
(228,377,o),
(253,357,o),
(282,357,cs),
(311,357,o),
(330,375,o),
(330,405,cs),
(330,431,o),
(312,451,o),
(285,451,cs),
(269,451,o),
(252,445,o),
(240,416,c),
(253,409,l),
(258,532,o),
(379,595,o),
(469,595,cs),
(545,595,o),
(585,553,o),
(585,489,cs),
(585,432,o),
(564,389,o),
(531,374,c),
(536,364,l),
(572,363,o),
(603,318,o),
(603,256,cs),
(603,153,o),
(528,111,o),
(439,111,cs),
(269,111,o),
(137,248,o),
(59,517,c),
(40,512,l),
(125,207,o),
(276,85,o),
(437,85,cs)
);
}
);
vertWidth = 0;
width = 690;
},
{
anchors = (
{
name = bottom;
pos = (510,39);
},
{
name = bottom.rakaar;
pos = (558,-1);
},
{
name = bottom.rvocalic;
pos = (486,63);
},
{
name = bottom.virama;
pos = (426,19);
},
{
name = top;
pos = (435,570);
},
{
name = topright;
pos = (438,570);
},
{
name = vedic;
pos = (341,0);
}
);
layerId = "B2542900-2B87-4688-8902-A06B6D3D93DD";
shapes = (
{
closed = 1;
nodes = (
(571,55,o),
(638,144,o),
(638,245,cs),
(638,341,o),
(568,416,o),
(476,416,cs),
(430,416,o),
(402,390,o),
(402,348,cs),
(402,306,o),
(428,278,o),
(476,278,cs),
(554,278,o),
(617,392,o),
(617,486,cs),
(617,574,o),
(560,631,o),
(455,631,cs),
(310,631,o),
(188,529,o),
(188,420,cs),
(188,354,o),
(229,322,o),
(275,322,cs),
(321,322,o),
(352,346,o),
(352,396,cs),
(352,436,o),
(328,465,o),
(290,465,cs),
(275,465,o),
(251,460,o),
(236,442,c),
(282,430,l),
(294,512,o),
(375,577,o),
(469,577,cs),
(530,577,o),
(560,549,o),
(560,503,cs),
(560,452,o),
(527,419,o),
(484,390,c),
(499,355,l),
(533,355,o),
(585,328,o),
(585,264,cs),
(585,202,o),
(535,146,o),
(426,146,cs),
(283,146,o),
(142,249,o),
(56,550,c),
(15,538,l),
(94,199,o),
(261,55,o),
(422,55,cs)
);
}
);
vertWidth = 0;
width = 683;
},
{
anchors = (
{
name = bottom;
pos = (551,4);
},
{
name = bottom.rakaar;
pos = (608,0);
},
{
name = bottom.rvocalic;
pos = (535,29);
},
{
name = bottom.virama;
pos = (474,6);
},
{
name = top;
pos = (472,525);
},
{
name = topright;
pos = (475,525);
},
{
name = vedic;
pos = (358,0);
}
);
layerId = "BB0A671B-466D-4412-B862-1FE3A30BF7BB";
shapes = (
{
closed = 1;
nodes = (
(589,31,o),
(677,113,o),
(677,228,cs),
(677,346,o),
(565,428,o),
(489,428,cs),
(440,428,o),
(406,394,o),
(406,343,cs),
(406,293,o),
(439,259,o),
(493,259,cs),
(578,259,o),
(650,364,o),
(650,468,cs),
(650,562,o),
(582,630,o),
(460,630,cs),
(308,630,o),
(186,534,o),
(186,418,cs),
(186,347,o),
(231,309,o),
(288,309,cs),
(347,309,o),
(381,344,o),
(381,398,cs),
(381,446,o),
(354,471,o),
(313,471,cs),
(286,471,o),
(264,458,o),
(255,441,c),
(332,416,l),
(335,495,o),
(414,557,o),
(492,557,cs),
(541,557,o),
(561,535,o),
(561,504,cs),
(561,462,o),
(532,421,o),
(485,402,c),
(505,343,l),
(546,345,o),
(602,319,o),
(602,262,cs),
(602,196,o),
(541,155,o),
(441,155,cs),
(278,155,o),
(161,245,o),
(69,533,c),
(14,518,l),
(92,185,o),
(242,31,o),
(442,31,cs)
);
}
);
vertWidth = 0;
width = 716;
},
{
anchors = (
{
name = bottom;
pos = (580,-21);
},
{
name = bottom.rakaar;
pos = (645,0);
},
{
name = bottom.rvocalic;
pos = (570,5);
},
{
name = bottom.virama;
pos = (508,-4);
},
{
name = top;
pos = (498,493);
},
{
name = topright;
pos = (501,493);
},
{
name = vedic;
pos = (370,0);
}
);
layerId = "18A8C34B-6260-4854-BBF8-229863F38B25";
shapes = (
{
closed = 1;
nodes = (
(602,14,o),
(705,91,o),
(705,215,cs),
(705,350,o),
(562,436,o),
(499,436,cs),
(447,436,o),
(409,397,o),
(409,339,cs),
(409,284,o),
(447,246,o),
(505,246,cs),
(596,246,o),
(674,343,o),
(674,455,cs),
(674,554,o),
(598,629,o),
(464,629,cs),
(307,629,o),
(185,537,o),
(185,417,cs),
(185,342,o),
(233,300,o),
(297,300,cs),
(365,300,o),
(402,342,o),
(402,399,cs),
(402,453,o),
(372,476,o),
(330,476,cs),
(294,476,o),
(274,456,o),
(269,440,c),
(369,406,l),
(365,482,o),
(442,542,o),
(509,542,cs),
(549,542,o),
(562,525,o),
(562,504,cs),
(562,470,o),
(536,423,o),
(486,411,c),
(509,335,l),
(556,337,o),
(614,313,o),
(614,260,cs),
(614,192,o),
(546,162,o),
(452,162,cs),
(275,162,o),
(174,242,o),
(78,520,c),
(13,504,l),
(91,175,o),
(228,14,o),
(457,14,cs)
);
}
);
vertWidth = 0;
width = 740;
},
{
anchors = (
{
name = bottom;
pos = (377,41);
},
{
name = bottom.rakaar;
pos = (411,-25);
},
{
name = bottom.rvocalic;
pos = (354,86);
},
{
name = bottom.virama;
pos = (328,31);
},
{
name = top;
pos = (325,602);
},
{
name = topright;
pos = (324,602);
},
{
name = vedic;
pos = (257,0);
}
);
layerId = "33F2F8B2-CCE7-4937-A852-9C044B0330C5";
shapes = (
{
closed = 1;
nodes = (
(409,85,o),
(460,146,o),
(460,254,cs),
(460,360,o),
(394,408,o),
(356,408,cs),
(334,408,o),
(317,393,o),
(317,365,cs),
(317,338,o),
(334,320,o),
(357,320,cs),
(394,320,o),
(446,387,o),
(446,486,cs),
(446,570,o),
(405,616,o),
(340,616,cs),
(244,616,o),
(170,506,o),
(170,421,cs),
(170,377,o),
(190,357,o),
(214,357,cs),
(238,357,o),
(254,375,o),
(254,405,cs),
(254,431,o),
(240,451,o),
(216,451,cs),
(204,451,o),
(190,444,o),
(182,416,c),
(196,409,l),
(200,532,o),
(279,593,o),
(342,593,cs),
(396,593,o),
(424,552,o),
(424,489,cs),
(424,434,o),
(404,389,o),
(377,374,c),
(386,365,l),
(411,364,o),
(438,317,o),
(438,256,cs),
(438,153,o),
(389,110,o),
(325,110,cs),
(203,110,o),
(112,248,o),
(56,517,c),
(37,512,l),
(97,207,o),
(205,85,o),
(324,85,cs)
);
}
);
vertWidth = 0;
width = 515;
},
{
anchors = (
{
name = bottom;
pos = (396,39);
},
{
name = bottom.rakaar;
pos = (435,-1);
},
{
name = bottom.rvocalic;
pos = (383,63);
},
{
name = bottom.virama;
pos = (340,19);
},
{
name = top;
pos = (341,570);
},
{
name = topright;
pos = (343,570);
},
{
name = vedic;
pos = (266,0);
}
);
layerId = "5278E13D-D735-4789-ABCD-F52B0BBC306E";
shapes = (
{
closed = 1;
nodes = (
(433,55,o),
(486,131,o),
(486,231,cs),
(486,339,o),
(412,416,o),
(359,416,cs),
(325,416,o),
(302,390,o),
(302,348,cs),
(302,306,o),
(324,278,o),
(361,278,cs),
(420,278,o),
(469,393,o),
(469,486,cs),
(469,574,o),
(422,631,o),
(340,631,cs),
(243,631,o),
(148,529,o),
(148,420,cs),
(148,355,o),
(181,323,o),
(220,323,cs),
(256,323,o),
(282,348,o),
(282,398,cs),
(282,433,o),
(262,460,o),
(235,460,cs),
(219,460,o),
(202,455,o),
(194,442,c),
(231,430,l),
(235,512,o),
(290,581,o),
(359,581,cs),
(396,581,o),
(413,549,o),
(413,503,cs),
(413,455,o),
(394,421,o),
(359,390,c),
(373,337,l),
(401,337,o),
(439,308,o),
(439,247,cs),
(439,183,o),
(402,140,o),
(329,140,cs),
(208,140,o),
(125,239,o),
(65,547,c),
(25,538,l),
(82,189,o),
(191,55,o),
(326,55,cs)
);
}
);
vertWidth = 0;
width = 532;
},
{
anchors = (
{
name = bottom;
pos = (459,7);
},
{
name = bottom.rakaar;
pos = (509,0);
},
{
name = bottom.rvocalic;
pos = (451,31);
},
{
name = bottom.virama;
pos = (401,6);
},
{
name = top;
pos = (396,528);
},
{
name = topright;
pos = (398,528);
},
{
name = vedic;
pos = (295,0);
}
);
layerId = "E72CC6C8-F2F5-4BE7-9263-7F4440809454";
shapes = (
{
closed = 1;
nodes = (
(481,31,o),
(557,110,o),
(557,222,cs),
(557,345,o),
(451,421,o),
(398,421,cs),
(362,421,o),
(327,399,o),
(327,344,cs),
(327,293,o),
(357,260,o),
(403,260,cs),
(475,260,o),
(534,366,o),
(534,469,cs),
(534,563,o),
(475,630,o),
(372,630,cs),
(249,630,o),
(147,528,o),
(147,420,cs),
(147,348,o),
(186,310,o),
(235,310,cs),
(284,310,o),
(313,345,o),
(313,397,cs),
(313,434,o),
(289,467,o),
(259,467,cs),
(234,467,o),
(218,454,o),
(213,440,c),
(263,414,l),
(273,502,o),
(340,557,o),
(400,557,cs),
(434,557,o),
(451,536,o),
(451,500,cs),
(451,460,o),
(429,416,o),
(389,396,c),
(406,336,l),
(442,337,o),
(488,310,o),
(488,254,cs),
(488,188,o),
(438,153,o),
(363,153,cs),
(238,153,o),
(134,236,o),
(71,550,c),
(16,537,l),
(74,181,o),
(194,31,o),
(365,31,cs)
);
}
);
vertWidth = 0;
width = 591;
},
{
anchors = (
{
name = bottom;
pos = (505,-17);
},
{
name = bottom.rakaar;
pos = (562,0);
},
{
name = bottom.rvocalic;
pos = (500,8);
},
{
name = bottom.virama;
pos = (445,-3);
},
{
name = top;
pos = (435,498);
},
{
name = topright;
pos = (438,498);
},
{
name = vedic;
pos = (317,0);
}
);
layerId = "03D26766-37BE-4C80-9191-ECBB7A84F3C2";
shapes = (
{
closed = 1;
nodes = (
(516,13,o),
(609,94,o),
(609,216,cs),
(609,349,o),
(479,425,o),
(427,425,cs),
(389,425,o),
(345,406,o),
(345,341,cs),
(345,284,o),
(381,247,o),
(433,247,cs),
(514,247,o),
(581,346,o),
(581,457,cs),
(581,555,o),
(514,629,o),
(395,629,cs),
(253,629,o),
(147,528,o),
(147,420,cs),
(147,343,o),
(190,301,o),
(246,301,cs),
(305,301,o),
(336,342,o),
(336,396,cs),
(336,435,o),
(309,472,o),
(277,472,cs),
(245,472,o),
(229,453,o),
(227,438,c),
(287,403,l),
(301,495,o),
(377,540,o),
(430,540,cs),
(461,540,o),
(478,526,o),
(478,498,cs),
(478,463,o),
(454,413,o),
(411,400,c),
(430,335,l),
(471,337,o),
(523,312,o),
(523,259,cs),
(523,192,o),
(464,162,o),
(387,162,cs),
(260,162,o),
(140,233,o),
(76,552,c),
(10,536,l),
(68,176,o),
(196,13,o),
(393,13,cs)
);
}
);
vertWidth = 0;
width = 634;
}
);
production = uni0993;
script = bengali;
subCategory = Other;
unicode = 2451;
}
{
category = Letter;
glyphname = "au-beng";
layers = (
{
anchors = (
{
name = bottom;
pos = (510,41);
},
{
name = bottom.rakaar;
pos = (558,-25);
},
{
name = bottom.rvocalic;
pos = (477,86);
},
{
name = bottom.virama;
pos = (445,31);
},
{
name = top;
pos = (516,602);
},
{
name = topright;
pos = (472,616);
},
{
name = vedic;
pos = (375,0);
}
);
layerId = "94EB6DF8-7434-4BE0-9F23-77BCD575F5B8";
shapes = (
{
closed = 1;
nodes = (
(639,415,o),
(680,476,o),
(680,562,cs),
(680,691,o),
(592,730,o),
(450,743,cs),
(338,753,o),
(244,764,o),
(244,869,cs),
(244,901,o),
(251,923,o),
(263,944,c),
(244,952,l),
(232,929,o),
(224,903,o),
(224,867,cs),
(224,749,o),
(314,729,o),
(443,720,cs),
(569,711,o),
(658,679,o),
(658,564,cs),
(658,486,o),
(625,432,o),
(566,378,c),
(571,355,l)
);
},
{
ref = "o-beng";
}
);
vertWidth = 0;
width = 750;
},
{
anchors = (
{
name = bottom;
pos = (510,39);
},
{
name = bottom.rakaar;
pos = (558,-1);
},
{
name = bottom.rvocalic;
pos = (486,63);
},
{
name = bottom.virama;
pos = (426,19);
},
{
name = top;
pos = (530,600);
},
{
name = topright;
pos = (474,602);
},
{
name = vedic;
pos = (384,0);
}
);
layerId = "B2542900-2B87-4688-8902-A06B6D3D93DD";
shapes = (
{
closed = 1;
nodes = (
(631,384,o),
(693,458,o),
(693,567,cs),
(693,736,o),
(551,757,o),
(429,774,cs),
(329,788,o),
(240,800,o),
(240,889,cs),
(240,916,o),
(246,944,o),
(256,968,c),
(217,982,l),
(199,944,o),
(191,901,o),
(191,869,cs),
(191,732,o),
(310,714,o),
(426,699,cs),
(539,684,o),
(650,672,o),
(650,557,cs),
(650,476,o),
(608,429,o),
(551,386,c),
(575,334,l)
);
},
{
ref = "o-beng";
}
);
vertWidth = 0;
width = 768;
},
{
anchors = (
{
name = bottom;
pos = (569,7);
},
{
name = bottom.rakaar;
pos = (628,-1);
},
{
name = bottom.rvocalic;
pos = (552,33);
},
{
name = bottom.virama;
pos = (489,7);
},
{
name = top;
pos = (596,603);
},
{
name = topright;
pos = (535,599);
},
{
name = vedic;
pos = (401,0);
}
);
layerId = "BB0A671B-466D-4412-B862-1FE3A30BF7BB";
shapes = (
{
closed = 1;
nodes = (
(680,379,o),
(738,454,o),
(738,565,cs),
(738,755,o),
(585,776,o),
(450,795,cs),
(343,810,o),
(248,823,o),
(248,915,cs),
(248,943,o),
(255,974,o),
(268,1001,c),
(211,1020,l),
(189,976,o),
(177,932,o),
(177,884,cs),
(177,733,o),
(314,710,o),
(444,694,cs),
(563,679,o),
(676,664,o),
(676,550,cs),
(676,479,o),
(645,436,o),
(583,389,c),
(609,314,l)
);
},
{
alignment = -1;
ref = "o-beng";
}
);
vertWidth = 0;
width = 802;
},
{
anchors = (
{
name = bottom;
pos = (612,-16);
},
{
name = bottom.rakaar;
pos = (679,-1);
},
{
name = bottom.rvocalic;
pos = (599,12);
},
{
name = bottom.virama;
pos = (534,-1);
},
{
name = top;
pos = (643,606);
},
{
name = topright;
pos = (580,596);
},
{
name = vedic;
pos = (413,0);
}
);
layerId = "18A8C34B-6260-4854-BBF8-229863F38B25";
shapes = (
{
closed = 1;
nodes = (
(716,376,o),
(771,451,o),
(771,561,cs),
(771,768,o),
(609,790,o),
(466,810,cs),
(353,826,o),
(253,840,o),
(253,933,cs),
(253,962,o),
(261,995,o),
(276,1025,c),
(206,1047,l),
(182,1000,o),
(167,955,o),
(167,894,cs),
(167,733,o),
(317,707,o),
(457,690,cs),
(581,675,o),
(695,659,o),
(695,545,cs),
(695,482,o),
(672,441,o),
(606,392,c),
(633,300,l)
);
},
{
ref = "o-beng";
}
);
vertWidth = 0;
width = 826;
},
{
anchors = (
{
name = bottom;
pos = (510,41);
},
{
name = bottom.rakaar;
pos = (558,-25);
},
{
name = bottom.rvocalic;
pos = (477,86);
},
{
name = bottom.virama;
pos = (445,31);
},
{
name = top;
pos = (516,602);
},
{
name = topright;
pos = (472,616);
},
{
name = vedic;
pos = (275,0);
}
);
layerId = "33F2F8B2-CCE7-4937-A852-9C044B0330C5";
shapes = (
{
closed = 1;
nodes = (
(451,413,o),
(485,477,o),
(485,565,cs),
(485,691,o),
(416,730,o),
(316,743,cs),
(238,753,o),
(172,763,o),
(172,861,cs),
(172,896,o),
(182,924,o),
(190,945,c),
(171,952,l),
(162,929,o),
(152,899,o),
(152,859,cs),
(152,752,o),
(216,729,o),
(309,720,cs),
(396,712,o),
(463,679,o),
(463,567,cs),
(463,487,o),
(438,433,o),
(396,379,c),
(404,353,l)
);
},
{
ref = "o-beng";
}
);
vertWidth = 0;
width = 550;
},
{
anchors = (
{
name = bottom;
pos = (510,39);
},
{
name = bottom.rakaar;
pos = (558,-1);
},
{
name = bottom.rvocalic;
pos = (486,63);
},
{
name = bottom.virama;
pos = (426,19);
},
{
name = top;
pos = (530,600);
},
{
name = topright;
pos = (474,602);
},
{
name = vedic;
pos = (294,0);
}
);
layerId = "5278E13D-D735-4789-ABCD-F52B0BBC306E";
shapes = (
{
closed = 1;
nodes = (
(489,384,o),
(533,456,o),
(533,571,cs),
(533,727,o),
(440,755,o),
(337,772,cs),
(254,786,o),
(192,798,o),
(192,884,cs),
(192,914,o),
(199,944,o),
(208,968,c),
(172,982,l),
(158,948,o),
(147,907,o),
(147,865,cs),
(147,741,o),
(227,716,o),
(324,701,cs),
(417,687,o),
(492,674,o),
(492,557,cs),
(492,482,o),
(465,435,o),
(425,394,c),
(442,334,l)
);
},
{
ref = "o-beng";
}
);
vertWidth = 0;
width = 588;
},
{
anchors = (
{
name = bottom;
pos = (569,7);
},
{
name = bottom.rakaar;
pos = (628,-1);
},
{
name = bottom.rvocalic;
pos = (552,33);
},
{
name = bottom.virama;
pos = (489,7);
},
{
name = top;
pos = (596,603);
},
{
name = topright;
pos = (535,599);
},
{
name = vedic;
pos = (329,0);
}
);
layerId = "E72CC6C8-F2F5-4BE7-9263-7F4440809454";
shapes = (
{
closed = 1;
nodes = (
(564,371,o),
(612,448,o),
(612,567,cs),
(612,731,o),
(496,765,o),
(387,787,cs),
(299,805,o),
(222,821,o),
(222,908,cs),
(222,938,o),
(229,970,o),
(239,995,c),
(189,1012,l),
(172,969,o),
(160,927,o),
(160,878,cs),
(160,744,o),
(253,708,o),
(370,686,cs),
(473,667,o),
(555,657,o),
(555,554,cs),
(555,487,o),
(533,441,o),
(483,396,c),
(503,308,l)
);
},
{
alignment = -1;
ref = "o-beng";
}
);
vertWidth = 0;
width = 658;
},
{
anchors = (
{
name = bottom;
pos = (612,-16);
},
{
name = bottom.rakaar;
pos = (679,-1);
},
{
name = bottom.rvocalic;
pos = (599,12);
},
{
name = bottom.virama;
pos = (534,-1);
},
{
name = top;
pos = (643,606);
},
{
name = topright;
pos = (580,596);
},
{
name = vedic;
pos = (355,0);
}
);
layerId = "03D26766-37BE-4C80-9191-ECBB7A84F3C2";
shapes = (
{
closed = 1;
nodes = (
(618,361,o),
(670,442,o),
(670,564,cs),
(670,735,o),
(537,773,o),
(423,798,cs),
(332,818,o),
(243,838,o),
(243,925,cs),
(243,955,o),
(250,988,o),
(262,1015,c),
(202,1034,l),
(182,985,o),
(169,941,o),
(169,887,cs),
(169,746,o),
(272,702,o),
(403,675,cs),
(514,652,o),
(601,644,o),
(601,551,cs),
(601,490,o),
(582,445,o),
(525,397,c),
(548,290,l)
);
},
{
ref = "o-beng";
}
);
vertWidth = 0;
width = 710;
}
);
metricLeft = "o-beng";
metricRight = "ai-beng";
production = uni0994;
script = bengali;
subCategory = Other;
unicode = 2452;
}
{
category = Letter;
glyphname = "kha-beng";
layers = (
{
anchors = (
{
name = bottom;
pos = (467,11);
},
{
name = bottom.rakaar;
pos = (477,50);
},
{
name = bottom.rvocalic;
pos = (477,6);
},
{
name = bottom.virama;
pos = (467,0);
},
{
name = top;
pos = (477,602);
},
{
name = topright;
pos = (482,564);
},
{
name = vedic;
pos = (267,0);
}
);
layerId = "94EB6DF8-7434-4BE0-9F23-77BCD575F5B8";
shapes = (
{
closed = 1;
nodes = (
(477,-2,l),
(477,602,l),
(594,602,l),
(580,622,l),
(477,622,l),
(474,661,l),
(458,674,l),
(454,673,l),
(454,33,l),
(462,43,l),
(395,175,o),
(276,275,o),
(136,322,c),
(139,310,l),
(280,330,o),
(345,396,o),
(345,483,cs),
(345,558,o),
(308,596,o),
(279,624,c),
(240,549,o),
(167,508,o),
(94,508,cs),
(86,508,o),
(77,509,o),
(72,511,c),
(80,496,l),
(92,507,o),
(96,516,o),
(96,530,cs),
(96,552,o),
(82,568,o),
(57,568,cs),
(34,568,o),
(18,552,o),
(18,528,cs),
(18,494,o),
(47,482,o),
(85,482,cs),
(172,482,o),
(257,526,o),
(292,599,c),
(278,594,l),
(298,576,o),
(322,545,o),
(322,488,cs),
(322,391,o),
(226,344,o),
(109,333,c),
(119,295,l),
(268,256,o),
(387,153,o),
(459,11,c),
(474,-3,l)
);
}
);
vertWidth = 0;
width = 575;
},
{
anchors = (
{
name = bottom;
pos = (524,30);
},
{
name = bottom.rakaar;
pos = (529,70);
},
{
name = bottom.rvocalic;
pos = (529,12);
},
{
name = bottom.virama;
pos = (509,6);
},
{
name = top;
pos = (529,560);
},
{
name = topright;
pos = (499,552);
},
{
name = vedic;
pos = (284,0);
}
);
layerId = "B2542900-2B87-4688-8902-A06B6D3D93DD";
shapes = (
{
closed = 1;
nodes = (
(529,-12,l),
(529,570,l),
(638,570,l),
(603,622,l),
(529,622,l),
(525,665,l),
(479,698,l),
(475,697,l),
(475,71,l),
(482,87,l),
(421,199,o),
(335,266,o),
(221,304,c),
(233,273,l),
(345,294,o),
(404,346,o),
(404,450,cs),
(404,531,o),
(356,587,o),
(315,625,c),
(252,536,o),
(189,498,o),
(152,498,cs),
(139,498,o),
(130,501,o),
(124,505,c),
(144,476,l),
(162,492,o),
(168,506,o),
(168,532,cs),
(168,567,o),
(144,592,o),
(104,592,cs),
(59,592,o),
(35,565,o),
(35,519,cs),
(35,447,o),
(90,417,o),
(142,417,cs),
(223,417,o),
(299,471,o),
(356,551,c),
(315,546,l),
(338,525,o),
(350,501,o),
(350,465,cs),
(350,376,o),
(230,340,o),
(126,340,c),
(166,234,l),
(314,217,o),
(406,144,o),
(477,24,c),
(524,-13,l)
);
}
);
vertWidth = 0;
width = 609;
},
{
anchors = (
{
name = bottom;
pos = (585,37);
},
{
name = bottom.rakaar;
pos = (596,100);
},
{
name = bottom.rvocalic;
pos = (596,11);
},
{
name = bottom.virama;
pos = (576,20);
},
{
name = top;
pos = (556,582);
},
{
name = topright;
pos = (546,572);
},
{
name = vedic;
pos = (318,0);
}
);
layerId = "18A8C34B-6260-4854-BBF8-229863F38B25";
shapes = (
{
closed = 1;
nodes = (
(596,-29,l),
(596,536,l),
(715,536,l),
(667,622,l),
(584,622,l),
(574,686,l),
(490,724,l),
(481,720,l),
(481,80,l),
(500,97,l),
(446,211,o),
(368,259,o),
(292,285,c),
(301,242,l),
(402,267,o),
(449,324,o),
(449,421,cs),
(449,534,o),
(361,601,o),
(297,637,c),
(254,571,o),
(203,514,o),
(129,514,cs),
(119,514,o),
(103,515,o),
(95,518,c),
(148,472,l),
(169,490,o),
(176,507,o),
(176,537,cs),
(176,574,o),
(151,611,o),
(93,611,cs),
(41,611,o),
(6,575,o),
(6,522,cs),
(6,438,o),
(63,395,o),
(140,395,cs),
(210,395,o),
(292,425,o),
(343,518,c),
(295,535,l),
(317,515,o),
(337,491,o),
(337,463,cs),
(337,382,o),
(253,346,o),
(110,346,c),
(167,181,l),
(298,171,o),
(433,113,o),
(500,14,c),
(585,-32,l)
);
}
);
vertWidth = 0;
width = 676;
},
{
anchors = (
{
name = bottom;
pos = (324,11);
},
{
name = bottom.rakaar;
pos = (330,20);
},
{
name = bottom.rvocalic;
pos = (332,6);
},
{
name = bottom.virama;
pos = (328,32);
},
{
name = top;
pos = (332,545);
},
{
name = topright;
pos = (337,567);
},
{
name = vedic;
pos = (189,0);
}
);
layerId = "33F2F8B2-CCE7-4937-A852-9C044B0330C5";
shapes = (
{
closed = 1;
nodes = (
(332,-2,l),
(332,602,l),
(421,602,l),
(409,622,l),
(332,622,l),
(330,661,l),
(313,674,l),
(310,673,l),
(310,53,l),
(320,45,l),
(289,167,o),
(176,281,o),
(85,320,c),
(95,310,l),
(192,330,o),
(239,387,o),
(239,473,cs),
(239,553,o),
(212,595,o),
(188,624,c),
(157,548,o),
(105,507,o),
(58,507,cs),
(53,507,o),
(46,508,o),
(42,510,c),
(59,496,l),
(68,507,o),
(71,515,o),
(71,530,cs),
(71,551,o),
(60,568,o),
(37,568,cs),
(15,568,o),
(0,552,o),
(0,528,cs),
(0,499,o),
(24,482,o),
(58,482,cs),
(111,482,o),
(173,526,o),
(200,599,c),
(182,591,l),
(199,573,o),
(217,535,o),
(217,478,cs),
(217,381,o),
(146,344,o),
(65,333,c),
(75,295,l),
(172,258,o),
(274,149,o),
(315,10,c),
(329,-3,l)
);
}
);
vertWidth = 0;
width = 406;
},
{
anchors = (
{
name = bottom;
pos = (389,30);
},
{
name = bottom.rakaar;
pos = (394,70);
},
{
name = bottom.rvocalic;
pos = (394,12);
},
{
name = bottom.virama;
pos = (380,6);
},
{
name = top;
pos = (383,560);
},
{
name = topright;
pos = (368,552);
},
{
name = vedic;
pos = (216,0);
}
);
layerId = "5278E13D-D735-4789-ABCD-F52B0BBC306E";
shapes = (
{
closed = 1;
nodes = (
(394,-12,l),
(394,570,l),
(486,570,l),
(458,622,l),
(391,622,l),
(386,665,l),
(347,698,l),
(343,697,l),
(343,81,l),
(353,87,l),
(319,195,o),
(250,264,o),
(178,295,c),
(181,280,l),
(256,300,o),
(299,349,o),
(299,443,cs),
(299,531,o),
(254,587,o),
(213,623,c),
(185,539,o),
(148,498,o),
(112,498,cs),
(103,498,o),
(89,501,o),
(84,505,c),
(116,476,l),
(130,492,o),
(135,507,o),
(135,532,cs),
(135,567,o),
(115,592,o),
(78,592,cs),
(41,592,o),
(17,566,o),
(17,521,cs),
(17,458,o),
(63,427,o),
(107,427,cs),
(165,427,o),
(214,466,o),
(249,546,c),
(220,542,l),
(236,521,o),
(249,498,o),
(249,461,cs),
(249,373,o),
(174,346,o),
(89,341,c),
(122,234,l),
(223,217,o),
(299,143,o),
(349,24,c),
(389,-13,l)
);
}
);
vertWidth = 0;
width = 461;
},
{
anchors = (
{
name = bottom;
pos = (520,37);
},
{
name = bottom.rakaar;
pos = (524,100);
},
{
name = bottom.rvocalic;
pos = (524,7);
},
{
name = bottom.virama;
pos = (503,0);
},
{
name = top;
pos = (470,582);
},
{
name = topright;
pos = (461,572);
},
{
name = vedic;
pos = (271,0);
}
);
layerId = "03D26766-37BE-4C80-9191-ECBB7A84F3C2";
shapes = (
{
closed = 1;
nodes = (
(524,-29,l),
(524,536,l),
(605,536,l),
(559,622,l),
(511,622,l),
(501,686,l),
(422,724,l),
(413,720,l),
(413,108,l),
(434,108,l),
(400,199,o),
(325,252,o),
(260,278,c),
(273,248,l),
(354,273,o),
(389,333,o),
(389,417,cs),
(389,533,o),
(314,601,o),
(255,637,c),
(221,573,o),
(177,506,o),
(110,506,cs),
(101,506,o),
(88,507,o),
(80,510,c),
(133,472,l),
(152,490,o),
(159,507,o),
(159,537,cs),
(159,574,o),
(137,611,o),
(85,611,cs),
(33,611,o),
(0,575,o),
(0,522,cs),
(0,442,o),
(52,398,o),
(123,398,cs),
(179,398,o),
(251,426,o),
(297,520,c),
(252,522,l),
(270,508,o),
(287,484,o),
(287,450,cs),
(287,383,o),
(221,352,o),
(92,352,c),
(148,187,l),
(270,169,o),
(371,111,o),
(438,12,c),
(513,-32,l)
);
}
);
vertWidth = 0;
width = 570;
}
);
metricRight = "aaMatra-beng";
production = uni0996;
script = bengali;
subCategory = Other;
unicode = 2454;
}
{
category = Letter;
glyphname = "ga-beng";
layers = (
{
anchors = (
{
name = bottom;
pos = (457,74);
},
{
name = bottom.rakaar;
pos = (474,-17);
},
{
name = bottom.rvocalic;
pos = (474,0);
},
{
name = bottom.virama;
pos = (469,5);
},
{
name = top;
pos = (474,545);
},
{
name = topright;
pos = (479,564);
},
{
name = vedic;
pos = (286,0);
}
);
layerId = "94EB6DF8-7434-4BE0-9F23-77BCD575F5B8";
shapes = (
{
closed = 1;
nodes = (
(474,-9,l),
(474,602,l),
(591,602,l),
(577,622,l),
(474,622,l),
(471,661,l),
(455,674,l),
(451,673,l),
(451,580,ls),
(451,526,o),
(452,462,o),
(455,407,c),
(461,403,l),
(411,538,o),
(336,631,o),
(234,631,cs),
(144,631,o),
(80,561,o),
(35,461,c),
(60,440,l),
(100,467,o),
(138,487,o),
(187,487,cs),
(237,487,o),
(258,451,o),
(258,415,cs),
(258,362,o),
(229,310,o),
(155,267,c),
(176,242,l),
(234,283,o),
(282,339,o),
(282,412,cs),
(282,471,o),
(246,512,o),
(189,512,cs),
(138,512,o),
(92,489,o),
(59,462,c),
(65,457,l),
(112,560,o),
(170,607,o),
(237,607,cs),
(333,607,o),
(405,501,o),
(454,367,c),
(451,402,l),
(451,3,l),
(471,-10,l)
);
}
);
vertWidth = 0;
width = 572;
},
{
anchors = (
{
name = bottom;
pos = (504,49);
},
{
name = bottom.rakaar;
pos = (515,-3);
},
{
name = bottom.rvocalic;
pos = (515,-2);
},
{
name = bottom.virama;
pos = (495,6);
},
{
name = top;
pos = (515,560);
},
{
name = topright;
pos = (485,552);
},
{
name = vedic;
pos = (297,0);
}
);
layerId = "B2542900-2B87-4688-8902-A06B6D3D93DD";
shapes = (
{
closed = 1;
nodes = (
(515,-24,l),
(515,570,l),
(624,570,l),
(589,622,l),
(515,622,l),
(511,665,l),
(465,698,l),
(461,697,l),
(461,560,ls),
(461,521,o),
(465,460,o),
(468,435,c),
(479,435,l),
(403,573,o),
(328,629,o),
(240,629,cs),
(164,629,o),
(83,584,o),
(15,455,c),
(82,388,l),
(126,423,o),
(167,438,o),
(208,438,cs),
(249,438,o),
(268,415,o),
(268,383,cs),
(268,336,o),
(213,296,o),
(127,263,c),
(187,172,l),
(289,235,o),
(328,291,o),
(328,368,cs),
(328,436,o),
(284,490,o),
(210,490,cs),
(160,490,o),
(127,474,o),
(106,462,c),
(128,450,l),
(169,536,o),
(215,551,o),
(254,551,cs),
(328,551,o),
(393,513,o),
(476,361,c),
(461,420,l),
(461,3,l),
(512,-25,l)
);
}
);
vertWidth = 0;
width = 595;
},
{
anchors = (
{
name = bottom;
pos = (579,62);
},
{
name = bottom.rakaar;
pos = (603,-24);
},
{
name = bottom.rvocalic;
pos = (603,-3);
},
{
name = bottom.virama;
pos = (563,10);
},
{
name = top;
pos = (563,582);
},
{
name = topright;
pos = (553,572);
},
{
name = vedic;
pos = (341,0);
}
);
layerId = "18A8C34B-6260-4854-BBF8-229863F38B25";
shapes = (
{
closed = 1;
nodes = (
(603,-40,l),
(603,536,l),
(722,536,l),
(674,622,l),
(591,622,l),
(581,686,l),
(497,724,l),
(488,720,l),
(488,617,ls),
(488,549,o),
(491,492,o),
(499,416,c),
(512,417,l),
(454,570,o),
(360,637,o),
(262,637,cs),
(151,637,o),
(57,565,o),
(-10,441,c),
(104,329,l),
(140,355,o),
(185,386,o),
(226,386,cs),
(254,386,o),
(274,374,o),
(274,344,cs),
(274,305,o),
(225,274,o),
(123,250,c),
(211,100,l),
(357,156,o),
(405,245,o),
(405,327,cs),
(405,406,o),
(357,468,o),
(266,468,cs),
(216,468,o),
(177,452,o),
(147,433,c),
(165,400,l),
(187,447,o),
(245,515,o),
(309,515,cs),
(371,515,o),
(440,467,o),
(502,317,c),
(488,386,l),
(488,-1,l),
(592,-43,l)
);
}
);
vertWidth = 0;
width = 683;
},
{
anchors = (
{
name = bottom;
pos = (326,54);
},
{
name = bottom.rakaar;
pos = (339,-17);
},
{
name = bottom.rvocalic;
pos = (341,-3);
},
{
name = bottom.virama;
pos = (334,5);
},
{
name = top;
pos = (341,545);
},
{
name = topright;
pos = (346,567);
},
{
name = vedic;
pos = (207,0);
}
);
layerId = "33F2F8B2-CCE7-4937-A852-9C044B0330C5";
shapes = (
{
closed = 1;
nodes = (
(341,-9,l),
(341,602,l),
(430,602,l),
(418,622,l),
(341,622,l),
(339,661,l),
(322,674,l),
(319,673,l),
(319,550,ls),
(319,512,o),
(319,473,o),
(321,435,c),
(329,423,l),
(295,543,o),
(235,631,o),
(156,631,cs),
(85,631,o),
(37,561,o),
(22,457,c),
(49,443,l),
(70,465,o),
(94,480,o),
(126,480,cs),
(166,480,o),
(187,449,o),
(187,409,cs),
(187,351,o),
(161,306,o),
(107,265,c),
(126,242,l),
(171,281,o),
(210,330,o),
(210,404,cs),
(210,467,o),
(176,504,o),
(125,504,cs),
(92,504,o),
(63,489,o),
(42,463,c),
(50,457,l),
(62,560,o),
(109,608,o),
(161,608,cs),
(223,608,o),
(282,529,o),
(325,377,c),
(319,421,l),
(319,3,l),
(338,-10,l)
);
}
);
vertWidth = 0;
width = 415;
},
{
anchors = (
{
name = bottom;
pos = (376,59);
},
{
name = bottom.rakaar;
pos = (386,-3);
},
{
name = bottom.rvocalic;
pos = (386,-2);
},
{
name = bottom.virama;
pos = (367,6);
},
{
name = top;
pos = (375,560);
},
{
name = topright;
pos = (360,552);
},
{
name = vedic;
pos = (226,0);
}
);
layerId = "5278E13D-D735-4789-ABCD-F52B0BBC306E";
shapes = (
{
closed = 1;
nodes = (
(386,-24,l),
(386,570,l),
(478,570,l),
(450,622,l),
(383,622,l),
(378,665,l),
(339,698,l),
(335,697,l),
(335,585,ls),
(335,529,o),
(337,489,o),
(342,435,c),
(349,435,l),
(302,573,o),
(240,629,o),
(169,629,cs),
(104,629,o),
(37,576,o),
(1,436,c),
(86,384,l),
(101,412,o),
(127,430,o),
(155,430,cs),
(184,430,o),
(200,409,o),
(200,380,cs),
(200,331,o),
(155,296,o),
(89,263,c),
(138,178,l),
(224,236,o),
(259,293,o),
(259,362,cs),
(259,429,o),
(222,481,o),
(161,481,cs),
(129,481,o),
(100,468,o),
(85,449,c),
(97,444,l),
(110,527,o),
(152,558,o),
(190,558,cs),
(240,558,o),
(292,510,o),
(341,358,c),
(335,420,l),
(335,3,l),
(382,-25,l)
);
}
);
vertWidth = 0;
width = 453;
},
{
anchors = (
{
name = bottom;
pos = (519,80);
},
{
name = bottom.rakaar;
pos = (532,-24);
},
{
name = bottom.rvocalic;
pos = (532,-3);
},
{
name = bottom.virama;
pos = (480,10);
},
{
name = top;
pos = (482,582);
},
{
name = topright;
pos = (473,572);
},
{
name = vedic;
pos = (289,0);
}
);
layerId = "03D26766-37BE-4C80-9191-ECBB7A84F3C2";
shapes = (
{
closed = 1;
nodes = (
(532,-40,l),
(532,536,l),
(613,536,l),
(567,622,l),
(519,622,l),
(509,686,l),
(434,724,l),
(425,720,l),
(425,590,ls),
(425,526,o),
(430,457,o),
(433,427,c),
(447,417,l),
(404,568,o),
(319,637,o),
(221,637,cs),
(126,637,o),
(39,563,o),
(-10,423,c),
(112,325,l),
(133,356,o),
(174,383,o),
(207,383,cs),
(238,383,o),
(252,370,o),
(252,343,cs),
(252,301,o),
(206,268,o),
(115,238,c),
(196,100,l),
(335,156,o),
(369,241,o),
(369,327,cs),
(369,406,o),
(322,467,o),
(243,467,cs),
(199,467,o),
(168,452,o),
(141,428,c),
(157,407,l),
(166,454,o),
(206,517,o),
(265,517,cs),
(322,517,o),
(384,457,o),
(433,297,c),
(421,392,l),
(421,-1,l),
(521,-43,l)
);
}
);
vertWidth = 0;
width = 578;
}
);
metricRight = "pa-beng";
production = uni0997;
script = bengali;
subCategory = Other;
unicode = 2455;
}
{
category = Letter;
glyphname = "gha-beng";
layers = (
{
anchors = (
{
name = bottom;
pos = (415,11);
},
{
name = bottom.rakaar;
pos = (425,50);
},
{
name = bottom.rvocalic;
pos = (425,6);
},
{
name = bottom.virama;
pos = (415,0);
},
{
name = top;
pos = (425,602);
},
{
name = topright;
pos = (428,602);
},
{
name = vedic;
pos = (261,0);
}
);
layerId = "94EB6DF8-7434-4BE0-9F23-77BCD575F5B8";
shapes = (
{
closed = 1;
nodes = (
(425,-2,l),
(425,602,l),
(542,602,l),
(528,622,l),
(-19,622,l),
(-5,602,l),
(402,602,l),
(402,33,l),
(410,43,l),
(340,178,o),
(229,254,o),
(81,307,c),
(81,299,l),
(163,363,o),
(254,407,o),
(316,437,c),
(304,459,l),
(272,439,o),
(230,421,o),
(197,421,cs),
(145,421,o),
(87,453,o),
(87,516,cs),
(87,580,o),
(135,600,o),
(170,605,c),
(139,619,l),
(101,608,o),
(61,580,o),
(61,514,cs),
(61,447,o),
(119,397,o),
(201,399,c),
(202,404,l),
(137,371,o),
(95,342,o),
(54,312,c),
(68,284,l),
(221,235,o),
(332,156,o),
(407,11,c),
(422,-3,l)
);
}
);
vertWidth = 0;
width = 523;
},
{
anchors = (
{
name = bottom;
pos = (441,30);
},
{
name = bottom.rakaar;
pos = (446,70);
},
{
name = bottom.rvocalic;
pos = (446,12);
},
{
name = bottom.virama;
pos = (426,6);
},
{
name = top;
pos = (446,570);
},
{
name = topright;
pos = (449,570);
},
{
name = vedic;
pos = (263,0);
}
);
layerId = "B2542900-2B87-4688-8902-A06B6D3D93DD";
shapes = (
{
closed = 1;
nodes = (
(446,-12,l),
(446,570,l),
(555,570,l),
(521,622,l),
(-29,622,l),
(5,570,l),
(392,570,l),
(392,71,l),
(399,87,l),
(338,197,o),
(261,247,o),
(108,304,c),
(120,279,l),
(191,329,o),
(262,361,o),
(337,394,c),
(294,470,l),
(259,449,o),
(221,438,o),
(193,438,cs),
(150,438,o),
(127,465,o),
(127,498,cs),
(127,548,o),
(165,570,o),
(209,580,c),
(146,617,l),
(103,611,o),
(41,579,o),
(41,511,cs),
(41,443,o),
(104,401,o),
(186,389,c),
(161,408,l),
(124,387,o),
(83,367,o),
(40,338,c),
(81,225,l),
(214,208,o),
(323,144,o),
(394,24,c),
(441,-13,l)
);
}
);
vertWidth = 0;
width = 526;
},
{
anchors = (
{
name = bottom;
pos = (513,37);
},
{
name = bottom.rakaar;
pos = (523,100);
},
{
name = bottom.rvocalic;
pos = (523,11);
},
{
name = bottom.virama;
pos = (503,20);
},
{
name = top;
pos = (488,592);
},
{
name = topright;
pos = (489,572);
},
{
name = vedic;
pos = (301,0);
}
);
layerId = "18A8C34B-6260-4854-BBF8-229863F38B25";
shapes = (
{
closed = 1;
nodes = (
(523,-29,l),
(523,536,l),
(642,536,l),
(593,622,l),
(-39,622,l),
(8,536,l),
(408,536,l),
(408,80,l),
(427,97,l),
(354,242,o),
(230,282,o),
(139,285,c),
(180,233,l),
(222,265,o),
(310,306,o),
(393,341,c),
(331,464,l),
(309,449,o),
(288,439,o),
(255,439,cs),
(221,439,o),
(198,457,o),
(198,488,cs),
(198,515,o),
(214,536,o),
(242,547,c),
(66,602,l),
(47,580,o),
(29,550,o),
(29,507,cs),
(29,422,o),
(108,392,o),
(176,390,c),
(206,419,l),
(155,399,o),
(84,366,o),
(36,337,c),
(106,175,l),
(232,170,o),
(362,111,o),
(426,14,c),
(512,-32,l)
);
}
);
vertWidth = 0;
width = 603;
},
{
anchors = (
{
name = bottom;
pos = (300,11);
},
{
name = bottom.rakaar;
pos = (308,20);
},
{
name = bottom.rvocalic;
pos = (308,6);
},
{
name = bottom.virama;
pos = (304,32);
},
{
name = top;
pos = (314,602);
},
{
name = topright;
pos = (308,602);
},
{
name = vedic;
pos = (191,0);
}
);
layerId = "33F2F8B2-CCE7-4937-A852-9C044B0330C5";
shapes = (
{
closed = 1;
nodes = (
(308,-2,l),
(308,602,l),
(397,602,l),
(385,622,l),
(-15,622,l),
(-3,602,l),
(286,602,l),
(286,53,l),
(296,45,l),
(265,167,o),
(152,271,o),
(64,307,c),
(66,298,l),
(124,359,o),
(185,403,o),
(231,436,c),
(219,457,l),
(198,436,o),
(176,422,o),
(143,422,cs),
(105,422,o),
(62,446,o),
(62,506,cs),
(62,576,o),
(123,600,o),
(160,605,c),
(131,619,l),
(75,604,o),
(38,568,o),
(38,504,cs),
(38,440,o),
(86,399,o),
(150,400,c),
(150,409,l),
(111,378,o),
(75,346,o),
(40,311,c),
(54,282,l),
(148,248,o),
(250,149,o),
(291,10,c),
(305,-3,l)
);
}
);
vertWidth = 0;
width = 382;
},
{
anchors = (
{
name = bottom;
pos = (325,30);
},
{
name = bottom.rakaar;
pos = (329,70);
},
{
name = bottom.rvocalic;
pos = (329,8);
},
{
name = bottom.virama;
pos = (320,6);
},
{
name = top;
pos = (319,570);
},
{
name = topright;
pos = (321,570);
},
{
name = vedic;
pos = (198,0);
}
);
layerId = "5278E13D-D735-4789-ABCD-F52B0BBC306E";
shapes = (
{
closed = 1;
nodes = (
(329,-12,l),
(329,570,l),
(421,570,l),
(393,622,l),
(-25,622,l),
(3,570,l),
(278,570,l),
(278,78,l),
(291,74,l),
(258,201,o),
(169,278,o),
(84,308,c),
(85,279,l),
(139,326,o),
(198,363,o),
(250,396,c),
(214,470,l),
(192,446,o),
(172,438,o),
(152,438,cs),
(121,438,o),
(97,460,o),
(97,497,cs),
(97,542,o),
(127,570,o),
(184,580,c),
(120,617,l),
(73,611,o),
(21,578,o),
(21,508,cs),
(21,443,o),
(70,407,o),
(125,399,c),
(122,408,l),
(87,387,o),
(54,363,o),
(23,338,c),
(69,235,l),
(171,203,o),
(240,134,o),
(286,17,c),
(323,-13,l)
);
}
);
vertWidth = 0;
width = 396;
},
{
anchors = (
{
name = bottom;
pos = (447,37);
},
{
name = bottom.rakaar;
pos = (451,90);
},
{
name = bottom.rvocalic;
pos = (451,7);
},
{
name = bottom.virama;
pos = (430,0);
},
{
name = top;
pos = (410,592);
},
{
name = topright;
pos = (411,572);
},
{
name = vedic;
pos = (248,0);
}
);
layerId = "03D26766-37BE-4C80-9191-ECBB7A84F3C2";
shapes = (
{
closed = 1;
nodes = (
(451,-29,l),
(451,536,l),
(532,536,l),
(486,622,l),
(-35,622,l),
(10,536,l),
(340,536,l),
(340,108,l),
(361,108,l),
(327,201,o),
(258,260,o),
(193,286,c),
(188,267,l),
(223,292,o),
(276,320,o),
(329,345,c),
(269,464,l),
(254,454,o),
(242,446,o),
(219,446,cs),
(192,446,o),
(172,463,o),
(172,490,cs),
(172,517,o),
(189,536,o),
(221,547,c),
(74,586,l),
(33,568,o),
(11,536,o),
(11,494,cs),
(11,414,o),
(84,390,o),
(137,388,c),
(146,409,l),
(103,390,o),
(61,370,o),
(19,341,c),
(93,182,l),
(196,164,o),
(298,111,o),
(365,12,c),
(440,-32,l)
);
}
);
vertWidth = 0;
width = 497;
}
);
metricLeft = "ba-beng";
metricRight = "ba-beng";
production = uni0998;
script = bengali;
subCategory = Other;
unicode = 2456;
}
{
category = Letter;
glyphname = "nga-beng";
layers = (
{
anchors = (
{
name = bottom;
pos = (400,34);
},
{
name = bottom.rakaar;
pos = (488,-56);
},
{
name = bottom.rvocalic;
pos = (407,55);
},
{
name = bottom.virama;
pos = (375,0);
},
{
name = top;
pos = (301,602);
},
{
name = topright;
pos = (304,602);
},
{
name = vedic;
pos = (304,0);
}
);
layerId = "94EB6DF8-7434-4BE0-9F23-77BCD575F5B8";
shapes = (
{
closed = 1;
nodes = (
(498,54,o),
(559,139,o),
(559,256,cs),
(559,335,o),
(533,383,o),
(505,413,c),
(455,349,o),
(383,285,o),
(319,285,cs),
(287,285,o),
(269,302,o),
(269,331,cs),
(269,497,ls),
(269,575,o),
(310,611,o),
(361,611,cs),
(406,611,o),
(438,584,o),
(438,530,cs),
(438,479,o),
(412,438,o),
(336,438,cs),
(243,438,o),
(176,504,o),
(132,621,c),
(114,614,l),
(139,543,o),
(199,414,o),
(335,414,cs),
(430,414,o),
(461,475,o),
(461,527,cs),
(461,587,o),
(427,633,o),
(361,633,cs),
(288,633,o),
(246,576,o),
(246,500,cs),
(246,328,ls),
(246,298,o),
(258,282,o),
(273,272,cs),
(287,263,o),
(304,260,o),
(322,260,cs),
(386,260,o),
(451,312,o),
(513,382,c),
(497,390,l),
(516,367,o),
(537,328,o),
(537,263,cs),
(537,142,o),
(473,80,o),
(369,80,cs),
(196,80,o),
(112,248,o),
(50,499,c),
(30,494,l),
(101,191,o),
(203,54,o),
(367,54,cs)
);
}
);
vertWidth = 0;
width = 609;
},
{
anchors = (
{
name = bottom;
pos = (406,24);
},
{
name = bottom.rakaar;
pos = (508,-20);
},
{
name = bottom.rvocalic;
pos = (426,20);
},
{
name = bottom.virama;
pos = (376,0);
},
{
name = top;
pos = (350,570);
},
{
name = topright;
pos = (323,570);
},
{
name = vedic;
pos = (307,0);
}
);
layerId = "B2542900-2B87-4688-8902-A06B6D3D93DD";
shapes = (
{
closed = 1;
nodes = (
(497,36,o),
(570,131,o),
(570,252,cs),
(570,329,o),
(543,394,o),
(495,445,c),
(441,383,o),
(374,318,o),
(311,318,cs),
(294,318,o),
(285,328,o),
(285,346,cs),
(285,465,ls),
(285,547,o),
(310,580,o),
(355,580,cs),
(389,580,o),
(413,562,o),
(413,533,cs),
(413,505,o),
(400,476,o),
(336,476,cs),
(226,476,o),
(191,527,o),
(146,622,c),
(107,602,l),
(154,496,o),
(217,417,o),
(333,417,cs),
(441,417,o),
(464,475,o),
(465,522,cs),
(466,584,o),
(424,632,o),
(351,632,cs),
(269,632,o),
(229,577,o),
(229,485,cs),
(229,346,ls),
(229,312,o),
(242,286,o),
(264,266,cs),
(282,249,o),
(309,238,o),
(340,238,cs),
(398,238,o),
(468,289,o),
(524,351,c),
(487,366,l),
(506,343,o),
(518,316,o),
(518,275,cs),
(518,189,o),
(462,126,o),
(363,126,cs),
(215,126,o),
(129,237,o),
(50,492,c),
(10,480,l),
(86,177,o),
(201,36,o),
(363,36,cs)
);
}
);
vertWidth = 0;
width = 615;
},
{
anchors = (
{
name = bottom;
pos = (446,-13);
},
{
name = bottom.rakaar;
pos = (580,0);
},
{
name = bottom.rvocalic;
pos = (469,-44);
},
{
name = bottom.virama;
pos = (435,0);
},
{
name = top;
pos = (387,592);
},
{
name = topright;
pos = (388,572);
},
{
name = vedic;
pos = (319,0);
}
);
layerId = "18A8C34B-6260-4854-BBF8-229863F38B25";
shapes = (
{
closed = 1;
nodes = (
(556,-20,o),
(624,104,o),
(624,254,cs),
(624,350,o),
(572,424,o),
(535,460,c),
(478,373,o),
(404,330,o),
(358,330,cs),
(338,330,o),
(325,340,o),
(325,363,cs),
(325,467,ls),
(325,517,o),
(341,550,o),
(379,550,cs),
(406,550,o),
(417,534,o),
(417,515,cs),
(417,488,o),
(398,466,o),
(348,466,cs),
(256,466,o),
(209,515,o),
(156,628,c),
(99,605,l),
(155,477,o),
(218,383,o),
(355,383,cs),
(452,383,o),
(508,447,o),
(508,513,cs),
(508,582,o),
(467,636,o),
(373,636,cs),
(279,636,o),
(215,567,o),
(215,462,cs),
(215,339,ls),
(215,285,o),
(239,250,o),
(263,228,cs),
(293,201,o),
(327,190,o),
(369,190,cs),
(445,190,o),
(538,246,o),
(569,307,c),
(511,355,l),
(530,328,o),
(545,294,o),
(545,267,cs),
(545,188,o),
(490,135,o),
(373,135,cs),
(221,135,o),
(142,230,o),
(71,495,c),
(3,478,l),
(70,151,o),
(179,-20,o),
(385,-20,cs)
);
}
);
vertWidth = 0;
width = 639;
},
{
anchors = (
{
name = bottom;
pos = (278,34);
},
{
name = bottom.rakaar;
pos = (340,-56);
},
{
name = bottom.rvocalic;
pos = (284,55);
},
{
name = bottom.virama;
pos = (262,0);
},
{
name = top;
pos = (215,602);
},
{
name = topright;
pos = (216,602);
},
{
name = vedic;
pos = (206,0);
}
);
layerId = "33F2F8B2-CCE7-4937-A852-9C044B0330C5";
shapes = (
{
closed = 1;
nodes = (
(338,54,o),
(390,124,o),
(390,243,cs),
(390,320,o),
(368,376,o),
(347,406,c),
(316,340,o),
(269,277,o),
(226,277,cs),
(204,277,o),
(193,294,o),
(193,323,cs),
(193,497,ls),
(193,575,o),
(215,609,o),
(249,609,cs),
(277,609,o),
(298,582,o),
(298,529,cs),
(298,478,o),
(281,438,o),
(232,438,cs),
(168,438,o),
(131,495,o),
(99,621,c),
(82,614,l),
(104,520,o),
(145,414,o),
(233,414,cs),
(299,414,o),
(320,472,o),
(320,526,cs),
(320,585,o),
(296,633,o),
(249,633,cs),
(200,633,o),
(171,586,o),
(171,504,cs),
(171,321,ls),
(171,297,o),
(177,279,o),
(189,267,cs),
(198,258,o),
(211,253,o),
(226,253,cs),
(274,253,o),
(321,304,o),
(355,373,c),
(342,370,l),
(355,349,o),
(368,306,o),
(368,243,cs),
(368,129,o),
(318,80,o),
(250,80,cs),
(120,80,o),
(77,248,o),
(44,498,c),
(25,494,l),
(62,189,o),
(120,54,o),
(250,54,cs)
);
}
);
vertWidth = 0;
width = 412;
},
{
anchors = (
{
name = bottom;
pos = (306,24);
},
{
name = bottom.rakaar;
pos = (387,-20);
},
{
name = bottom.rvocalic;
pos = (321,20);
},
{
name = bottom.virama;
pos = (290,0);
},
{
name = top;
pos = (265,570);
},
{
name = topright;
pos = (254,570);
},
{
name = vedic;
pos = (221,0);
}
);
layerId = "5278E13D-D735-4789-ABCD-F52B0BBC306E";
shapes = (
{
closed = 1;
nodes = (
(368,36,o),
(429,108,o),
(429,241,cs),
(429,320,o),
(401,385,o),
(361,436,c),
(338,361,o),
(287,306,o),
(243,306,cs),
(227,306,o),
(217,315,o),
(217,333,cs),
(217,462,ls),
(217,535,o),
(232,580,o),
(265,580,cs),
(287,580,o),
(301,562,o),
(301,533,cs),
(301,505,o),
(290,476,o),
(249,476,cs),
(176,476,o),
(151,524,o),
(117,619,c),
(81,602,l),
(118,494,o),
(155,417,o),
(249,417,cs),
(323,417,o),
(349,476,o),
(349,522,cs),
(349,584,o),
(319,632,o),
(262,632,cs),
(201,632,o),
(166,577,o),
(166,485,cs),
(166,333,ls),
(166,297,o),
(181,273,o),
(195,259,cs),
(213,241,o),
(235,232,o),
(258,232,cs),
(308,232,o),
(363,278,o),
(389,342,c),
(361,336,l),
(375,313,o),
(384,284,o),
(384,249,cs),
(384,163,o),
(336,121,o),
(265,121,cs),
(150,121,o),
(92,225,o),
(48,492,c),
(11,485,l),
(52,172,o),
(126,36,o),
(269,36,cs)
);
}
);
vertWidth = 0;
width = 443;
},
{
anchors = (
{
name = bottom;
pos = (386,-11);
},
{
name = bottom.rakaar;
pos = (506,-1);
},
{
name = bottom.rvocalic;
pos = (407,-41);
},
{
name = bottom.virama;
pos = (380,0);
},
{
name = top;
pos = (340,591);
},
{
name = topright;
pos = (343,572);
},
{
name = vedic;
pos = (271,0);
}
);
layerId = "03D26766-37BE-4C80-9191-ECBB7A84F3C2";
shapes = (
{
closed = 1;
nodes = (
(481,-17,o),
(538,104,o),
(538,252,cs),
(538,345,o),
(490,422,o),
(461,459,c),
(408,372,o),
(344,329,o),
(311,329,cs),
(295,329,o),
(282,339,o),
(282,362,cs),
(282,467,ls),
(282,517,o),
(296,552,o),
(326,552,cs),
(342,552,o),
(352,541,o),
(352,518,cs),
(352,491,o),
(332,467,o),
(298,467,cs),
(221,467,o),
(186,516,o),
(140,628,c),
(84,605,l),
(134,478,o),
(189,385,o),
(305,385,cs),
(386,385,o),
(438,440,o),
(438,513,cs),
(438,582,o),
(403,636,o),
(320,636,cs),
(237,636,o),
(179,567,o),
(179,463,cs),
(179,339,ls),
(179,286,o),
(201,251,o),
(223,229,cs),
(250,202,o),
(283,192,o),
(320,192,cs),
(386,192,o),
(468,248,o),
(491,309,c),
(436,334,l),
(451,307,o),
(464,275,o),
(464,246,cs),
(464,177,o),
(411,130,o),
(321,130,cs),
(185,130,o),
(130,230,o),
(77,495,c),
(12,478,l),
(61,152,o),
(141,-17,o),
(327,-17,cs)
);
}
);
vertWidth = 0;
width = 543;
}
);
production = uni0999;
script = bengali;
subCategory = Other;
unicode = 2457;
}
{
category = Letter;
glyphname = "cha-beng";
layers = (
{
anchors = (
{
name = bottom;
pos = (276,108);
},
{
name = bottom.rakaar;
pos = (409,-100);
},
{
name = bottom.rvocalic;
pos = (333,100);
},
{
name = bottom.virama;
pos = (263,90);
},
{
name = top;
pos = (103,602);
},
{
name = topright;
pos = (106,602);
},
{
name = vedic;
pos = (254,0);
}
);
layerId = "94EB6DF8-7434-4BE0-9F23-77BCD575F5B8";
shapes = (
{
closed = 1;
nodes = (
(491,-18,l),
(428,50,o),
(308,159,o),
(133,210,c),
(139,201,l),
(168,196,o),
(196,193,o),
(222,193,cs),
(350,193,o),
(427,256,o),
(427,358,cs),
(427,457,o),
(363,508,o),
(264,508,cs),
(193,508,o),
(126,536,o),
(98,602,c),
(92,586,l),
(118,520,o),
(171,488,o),
(275,485,c),
(266,495,l),
(269,396,o),
(214,314,o),
(153,314,cs),
(121,314,o),
(103,332,o),
(103,372,cs),
(103,602,l),
(528,602,l),
(514,622,l),
(-19,622,l),
(-5,602,l),
(80,602,l),
(80,371,ls),
(80,316,o),
(112,289,o),
(155,289,cs),
(226,289,o),
(293,379,o),
(291,495,c),
(283,485,l),
(352,480,o),
(405,447,o),
(405,364,cs),
(405,258,o),
(323,218,o),
(227,218,cs),
(164,218,o),
(131,227,o),
(97,242,c),
(114,189,l),
(260,157,o),
(409,49,o),
(478,-31,c)
);
}
);
vertWidth = 0;
width = 509;
},
{
anchors = (
{
name = bottom;
pos = (315,61);
},
{
name = bottom.rakaar;
pos = (445,-98);
},
{
name = bottom.rvocalic;
pos = (380,51);
},
{
name = bottom.virama;
pos = (304,51);
},
{
name = top;
pos = (120,570);
},
{
name = topright;
pos = (123,570);
},
{
name = vedic;
pos = (266,0);
}
);
layerId = "B2542900-2B87-4688-8902-A06B6D3D93DD";
shapes = (
{
closed = 1;
nodes = (
(551,-51,l),
(469,27,o),
(365,114,o),
(255,141,c),
(244,116,l),
(255,112,o),
(272,111,o),
(293,111,cs),
(392,111,o),
(481,180,o),
(481,311,cs),
(481,416,o),
(401,495,o),
(301,495,cs),
(205,495,o),
(157,511,o),
(114,570,c),
(111,526,l),
(142,468,o),
(214,423,o),
(286,420,c),
(258,460,l),
(251,366,o),
(215,309,o),
(163,309,cs),
(133,309,o),
(120,328,o),
(120,352,cs),
(120,570,l),
(562,570,l),
(528,622,l),
(-29,622,l),
(5,570,l),
(66,570,l),
(66,352,ls),
(66,298,o),
(110,244,o),
(176,244,cs),
(258,244,o),
(327,296,o),
(353,467,c),
(308,440,l),
(355,440,o),
(424,412,o),
(424,324,cs),
(424,259,o),
(387,188,o),
(253,188,cs),
(199,188,o),
(151,194,o),
(96,212,c),
(116,114,l),
(285,88,o),
(379,39,o),
(520,-84,c)
);
}
);
vertWidth = 0;
width = 533;
},
{
anchors = (
{
name = bottom;
pos = (372,-37);
},
{
name = bottom.rakaar;
pos = (505,-162);
},
{
name = bottom.rvocalic;
pos = (465,-44);
},
{
name = bottom.virama;
pos = (365,-32);
},
{
name = top;
pos = (122,592);
},
{
name = topright;
pos = (123,572);
},
{
name = vedic;
pos = (287,0);
}
);
layerId = "18A8C34B-6260-4854-BBF8-229863F38B25";
shapes = (
{
closed = 1;
nodes = (
(614,-137,l),
(522,-31,o),
(365,62,o),
(232,88,c),
(222,39,l),
(230,35,o),
(268,28,o),
(297,28,cs),
(448,28,o),
(559,114,o),
(559,261,cs),
(559,420,o),
(443,487,o),
(309,487,cs),
(245,487,o),
(177,503,o),
(150,538,c),
(145,486,l),
(177,425,o),
(231,403,o),
(280,393,c),
(246,443,l),
(248,366,o),
(218,302,o),
(182,302,cs),
(169,302,o),
(157,310,o),
(157,325,cs),
(157,536,l),
(614,536,l),
(564,622,l),
(-39,622,l),
(8,536,l),
(42,536,l),
(42,327,ls),
(42,261,o),
(123,200,o),
(203,200,cs),
(310,200,o),
(381,273,o),
(394,428,c),
(343,403,l),
(400,403,o),
(444,379,o),
(444,309,cs),
(444,197,o),
(330,162,o),
(243,162,cs),
(187,162,o),
(120,171,o),
(73,201,c),
(114,6,l),
(249,-18,o),
(408,-50,o),
(571,-184,c)
);
}
);
vertWidth = 0;
width = 575;
},
{
anchors = (
{
name = bottom;
pos = (230,104);
},
{
name = bottom.rakaar;
pos = (310,-100);
},
{
name = bottom.rvocalic;
pos = (258,105);
},
{
name = bottom.virama;
pos = (207,90);
},
{
name = top;
pos = (92,602);
},
{
name = topright;
pos = (94,602);
},
{
name = vedic;
pos = (190,0);
}
);
layerId = "33F2F8B2-CCE7-4937-A852-9C044B0330C5";
shapes = (
{
closed = 1;
nodes = (
(372,-25,l),
(325,53,o),
(238,163,o),
(130,213,c),
(131,205,l),
(151,201,o),
(161,200,o),
(177,200,cs),
(260,200,o),
(326,259,o),
(326,363,cs),
(326,463,o),
(278,508,o),
(208,508,cs),
(155,508,o),
(110,536,o),
(88,602,c),
(84,586,l),
(103,520,o),
(143,487,o),
(213,485,c),
(205,495,l),
(206,396,o),
(169,314,o),
(126,314,cs),
(104,314,o),
(92,330,o),
(92,360,cs),
(92,602,l),
(395,602,l),
(383,622,l),
(-15,622,l),
(-3,602,l),
(70,602,l),
(70,359,ls),
(70,314,o),
(95,289,o),
(127,289,cs),
(184,289,o),
(229,383,o),
(229,495,c),
(220,485,l),
(267,480,o),
(304,452,o),
(304,369,cs),
(304,264,o),
(241,224,o),
(174,224,cs),
(136,224,o),
(106,234,o),
(84,249,c),
(97,196,l),
(207,160,o),
(292,65,o),
(359,-38,c)
);
}
);
vertWidth = 0;
width = 380;
},
{
anchors = (
{
name = bottom;
pos = (243,51);
},
{
name = bottom.rakaar;
pos = (332,-98);
},
{
name = bottom.rvocalic;
pos = (293,51);
},
{
name = bottom.virama;
pos = (232,51);
},
{
name = top;
pos = (83,570);
},
{
name = topright;
pos = (84,570);
},
{
name = vedic;
pos = (205,0);
}
);
layerId = "5278E13D-D735-4789-ABCD-F52B0BBC306E";
shapes = (
{
closed = 1;
nodes = (
(409,-51,l),
(343,31,o),
(259,124,o),
(174,150,c),
(137,128,l),
(155,120,o),
(177,119,o),
(199,119,cs),
(286,119,o),
(364,177,o),
(364,313,cs),
(364,417,o),
(300,492,o),
(218,492,cs),
(160,492,o),
(118,511,o),
(92,570,c),
(89,526,l),
(112,468,o),
(158,429,o),
(203,428,c),
(184,460,l),
(182,366,o),
(155,306,o),
(125,306,cs),
(107,306,o),
(97,320,o),
(97,342,cs),
(97,570,l),
(435,570,l),
(406,622,l),
(-25,622,l),
(3,570,l),
(46,570,l),
(46,343,ls),
(46,291,o),
(82,244,o),
(138,244,cs),
(195,244,o),
(246,298,o),
(260,467,c),
(231,440,l),
(267,439,o),
(308,412,o),
(308,325,cs),
(308,231,o),
(253,190,o),
(171,190,cs),
(127,190,o),
(91,199,o),
(66,215,c),
(86,120,l),
(195,95,o),
(274,38,o),
(384,-84,c)
);
}
);
vertWidth = 0;
width = 410;
},
{
anchors = (
{
name = bottom;
pos = (316,-14);
},
{
name = bottom.rakaar;
pos = (433,-150);
},
{
name = bottom.rvocalic;
pos = (405,-32);
},
{
name = bottom.virama;
pos = (314,-20);
},
{
name = top;
pos = (109,592);
},
{
name = topright;
pos = (110,572);
},
{
name = vedic;
pos = (260,0);
}
);
layerId = "03D26766-37BE-4C80-9191-ECBB7A84F3C2";
shapes = (
{
closed = 1;
nodes = (
(534,-131,l),
(438,-22,o),
(320,73,o),
(208,100,c),
(169,60,l),
(183,49,o),
(210,45,o),
(238,45,cs),
(408,45,o),
(507,139,o),
(507,273,cs),
(507,420,o),
(397,487,o),
(276,487,cs),
(226,487,o),
(159,503,o),
(138,538,c),
(134,486,l),
(161,425,o),
(214,403,o),
(246,393,c),
(222,443,l),
(215,366,o),
(192,302,o),
(163,302,cs),
(152,302,o),
(144,310,o),
(144,324,cs),
(144,536,l),
(556,536,l),
(508,622,l),
(-35,622,l),
(10,536,l),
(37,536,l),
(37,322,ls),
(37,256,o),
(107,200,o),
(189,200,cs),
(287,200,o),
(343,273,o),
(355,428,c),
(310,401,l),
(355,401,o),
(392,372,o),
(392,300,cs),
(392,202,o),
(314,164,o),
(212,164,cs),
(152,164,o),
(105,178,o),
(63,208,c),
(99,27,l),
(206,-1,o),
(334,-42,o),
(492,-177,c)
);
}
);
vertWidth = 0;
width = 521;
}
);
metricLeft = "ca-beng";
metricRight = "ha-beng";
production = uni099B;
script = bengali;
subCategory = Other;
unicode = 2459;
}
{
category = Letter;
glyphname = "ja-beng";
layers = (
{
anchors = (
{
name = bottom;
pos = (644,98);
},
{
name = bottom.rakaar;
pos = (660,90);
},
{
name = bottom.rvocalic;
pos = (659,31);
},
{
name = bottom.virama;
pos = (655,20);
},
{
name = top;
pos = (411,602);
},
{
name = topright;
pos = (414,602);
},
{
name = vedic;
pos = (381,0);
}
);
layerId = "94EB6DF8-7434-4BE0-9F23-77BCD575F5B8";
shapes = (
{
closed = 1;
nodes = (
(454,80,o),
(508,150,o),
(508,249,cs),
(508,309,o),
(495,362,o),
(447,412,c),
(396,337,o),
(355,314,o),
(312,314,cs),
(268,314,o),
(233,346,o),
(233,403,cs),
(233,510,o),
(353,586,o),
(419,602,c),
(781,602,l),
(768,622,l),
(-19,622,l),
(-5,602,l),
(410,602,l),
(393,615,l),
(317,593,o),
(209,516,o),
(209,404,cs),
(209,328,o),
(262,289,o),
(316,289,cs),
(385,289,o),
(429,345,o),
(461,387,c),
(442,387,l),
(472,350,o),
(486,319,o),
(486,256,cs),
(486,156,o),
(431,106,o),
(345,106,cs),
(191,106,o),
(110,268,o),
(60,500,c),
(41,495,l),
(100,211,o),
(198,80,o),
(344,80,cs)
);
},
{
closed = 1;
nodes = (
(659,29,l),
(637,97,o),
(620,158,o),
(620,237,cs),
(620,336,o),
(641,397,o),
(684,455,c),
(668,481,l),
(566,485,o),
(504,520,o),
(433,615,c),
(414,608,l),
(486,501,o),
(565,458,o),
(664,454,c),
(659,466,l),
(621,417,o),
(596,348,o),
(596,250,cs),
(596,167,o),
(614,97,o),
(642,22,c)
);
}
);
vertWidth = 0;
width = 762;
},
{
anchors = (
{
name = bottom;
pos = (699,70);
},
{
name = bottom.rakaar;
pos = (697,70);
},
{
name = bottom.rvocalic;
pos = (694,14);
},
{
name = bottom.virama;
pos = (675,0);
},
{
name = top;
pos = (435,570);
},
{
name = topright;
pos = (438,570);
},
{
name = vedic;
pos = (395,0);
}
);
layerId = "B2542900-2B87-4688-8902-A06B6D3D93DD";
shapes = (
{
closed = 1;
nodes = (
(473,57,o),
(533,142,o),
(533,253,cs),
(533,317,o),
(518,378,o),
(459,433,c),
(413,367,o),
(366,327,o),
(320,327,cs),
(281,327,o),
(256,348,o),
(256,388,cs),
(256,456,o),
(327,514,o),
(443,570,c),
(820,570,l),
(786,622,l),
(-29,622,l),
(5,570,l),
(324,570,l),
(307,583,l),
(231,530,o),
(196,472,o),
(196,408,cs),
(196,322,o),
(253,251,o),
(333,251,cs),
(400,251,o),
(456,297,o),
(497,350,c),
(460,356,l),
(474,335,o),
(485,308,o),
(485,271,cs),
(485,207,o),
(444,143,o),
(341,143,cs),
(205,143,o),
(124,251,o),
(60,492,c),
(20,480,l),
(84,185,o),
(189,57,o),
(342,57,cs)
);
},
{
closed = 1;
nodes = (
(692,11,l),
(673,70,o),
(667,124,o),
(667,183,cs),
(667,257,o),
(693,326,o),
(742,396,c),
(698,464,l),
(577,468,o),
(504,497,o),
(453,603,c),
(418,562,l),
(471,450,o),
(565,402,o),
(661,387,c),
(649,412,l),
(625,361,o),
(611,282,o),
(611,214,cs),
(611,133,o),
(624,69,o),
(653,-7,c)
);
}
);
vertWidth = 0;
width = 791;
},
{
anchors = (
{
name = bottom;
pos = (800,-19);
},
{
name = bottom.rakaar;
pos = (791,40);
},
{
name = bottom.rvocalic;
pos = (792,-61);
},
{
name = bottom.virama;
pos = (776,-55);
},
{
name = top;
pos = (467,592);
},
{
name = topright;
pos = (468,572);
},
{
name = vedic;
pos = (426,0);
}
);
layerId = "18A8C34B-6260-4854-BBF8-229863F38B25";
shapes = (
{
closed = 1;
nodes = (
(535,-60,o),
(602,42,o),
(602,186,cs),
(602,294,o),
(542,374,o),
(500,410,c),
(442,348,o),
(398,317,o),
(362,317,cs),
(333,317,o),
(311,332,o),
(311,359,cs),
(311,412,o),
(420,492,o),
(531,536,c),
(891,536,l),
(844,622,l),
(-39,622,l),
(9,536,l),
(380,536,l),
(343,580,l),
(299,561,o),
(191,479,o),
(191,365,cs),
(191,251,o),
(280,174,o),
(372,174,cs),
(435,174,o),
(503,208,o),
(554,281,c),
(494,308,l),
(515,282,o),
(532,254,o),
(532,217,cs),
(532,144,o),
(463,105,o),
(383,105,cs),
(220,105,o),
(132,234,o),
(75,478,c),
(11,462,l),
(65,123,o),
(168,-60,o),
(378,-60,cs)
);
},
{
closed = 1;
nodes = (
(792,-82,l),
(763,1,o),
(759,56,o),
(759,124,cs),
(759,198,o),
(789,292,o),
(848,368,c),
(767,472,l),
(638,453,o),
(551,503,o),
(517,579,c),
(462,539,l),
(510,396,o),
(627,335,o),
(731,314,c),
(703,400,l),
(669,318,o),
(657,256,o),
(657,182,cs),
(657,60,o),
(688,-23,o),
(731,-104,c)
);
}
);
vertWidth = 0;
width = 852;
},
{
anchors = (
{
name = bottom;
pos = (468,85);
},
{
name = bottom.rakaar;
pos = (481,83);
},
{
name = bottom.rvocalic;
pos = (483,24);
},
{
name = bottom.virama;
pos = (475,13);
},
{
name = top;
pos = (300,602);
},
{
name = topright;
pos = (303,602);
},
{
name = vedic;
pos = (275,0);
}
);
layerId = "33F2F8B2-CCE7-4937-A852-9C044B0330C5";
shapes = (
{
closed = 1;
nodes = (
(327,80,o),
(372,150,o),
(372,249,cs),
(372,308,o),
(358,362,o),
(322,412,c),
(291,337,o),
(262,314,o),
(227,314,cs),
(191,314,o),
(168,347,o),
(168,404,cs),
(168,511,o),
(253,586,o),
(306,602,c),
(565,602,l),
(553,622,l),
(-15,622,l),
(-3,602,l),
(286,602,l),
(277,611,l),
(223,590,o),
(145,516,o),
(145,405,cs),
(145,328,o),
(182,289,o),
(230,289,cs),
(280,289,o),
(314,335,o),
(335,387,c),
(318,381,l),
(337,346,o),
(350,314,o),
(350,256,cs),
(350,156,o),
(308,105,o),
(242,105,cs),
(137,105,o),
(72,247,o),
(51,498,c),
(32,495,l),
(58,181,o),
(141,80,o),
(244,80,cs)
);
},
{
closed = 1;
nodes = (
(483,22,l),
(468,85,o),
(453,144,o),
(453,247,cs),
(453,355,o),
(475,417,o),
(498,455,c),
(484,481,l),
(405,485,o),
(354,518,o),
(320,613,c),
(300,608,l),
(336,502,o),
(402,461,o),
(475,458,c),
(474,466,l),
(455,436,o),
(431,358,o),
(431,255,cs),
(431,163,o),
(445,90,o),
(465,15,c)
);
}
);
vertWidth = 0;
width = 550;
},
{
anchors = (
{
name = bottom;
pos = (517,87);
},
{
name = bottom.rakaar;
pos = (528,70);
},
{
name = bottom.rvocalic;
pos = (527,14);
},
{
name = bottom.virama;
pos = (515,0);
},
{
name = top;
pos = (321,570);
},
{
name = topright;
pos = (322,570);
},
{
name = vedic;
pos = (292,0);
}
);
layerId = "5278E13D-D735-4789-ABCD-F52B0BBC306E";
shapes = (
{
closed = 1;
nodes = (
(358,57,o),
(401,139,o),
(401,248,cs),
(401,320,o),
(378,378,o),
(336,427,c),
(316,368,o),
(279,330,o),
(240,330,cs),
(211,330,o),
(190,352,o),
(190,392,cs),
(190,460,o),
(261,524,o),
(346,570,c),
(609,570,l),
(581,622,l),
(-25,622,l),
(3,570,l),
(249,570,l),
(241,583,l),
(184,544,o),
(133,474,o),
(133,407,cs),
(133,316,o),
(187,255,o),
(250,255,cs),
(303,255,o),
(347,297,o),
(372,350,c),
(337,342,l),
(349,321,o),
(358,294,o),
(358,257,cs),
(358,186,o),
(322,143,o),
(253,143,cs),
(150,143,o),
(83,244,o),
(54,486,c),
(15,480,l),
(48,182,o),
(129,57,o),
(256,57,cs)
);
},
{
closed = 1;
nodes = (
(527,4,l),
(510,64,o),
(501,124,o),
(501,184,cs),
(501,265,o),
(517,344,o),
(559,396,c),
(518,464,l),
(430,468,o),
(376,497,o),
(344,601,c),
(312,562,l),
(348,450,o),
(423,404,o),
(492,389,c),
(481,417,l),
(459,355,o),
(448,289,o),
(448,219,cs),
(448,141,o),
(464,65,o),
(489,-8,c)
);
}
);
vertWidth = 0;
width = 584;
},
{
anchors = (
{
name = bottom;
pos = (696,17);
},
{
name = bottom.rakaar;
pos = (687,50);
},
{
name = bottom.rvocalic;
pos = (689,-61);
},
{
name = bottom.virama;
pos = (674,-45);
},
{
name = top;
pos = (405,591);
},
{
name = topright;
pos = (406,572);
},
{
name = vedic;
pos = (379,0);
}
);
layerId = "03D26766-37BE-4C80-9191-ECBB7A84F3C2";
shapes = (
{
closed = 1;
nodes = (
(468,-54,o),
(525,47,o),
(525,184,cs),
(525,294,o),
(467,374,o),
(435,411,c),
(381,349,o),
(344,318,o),
(319,318,cs),
(299,318,o),
(283,333,o),
(283,361,cs),
(283,415,o),
(376,493,o),
(469,536,c),
(793,536,l),
(749,622,l),
(-35,622,l),
(10,536,l),
(327,536,l),
(289,580,l),
(261,560,o),
(167,479,o),
(167,367,cs),
(167,255,o),
(247,178,o),
(327,178,cs),
(380,178,o),
(439,215,o),
(485,284,c),
(425,291,l),
(442,265,o),
(455,235,o),
(455,203,cs),
(455,140,o),
(404,97,o),
(327,97,cs),
(196,97,o),
(118,209,o),
(81,476,c),
(12,463,l),
(50,104,o),
(148,-54,o),
(329,-54,cs)
);
},
{
closed = 1;
nodes = (
(689,-72,l),
(666,9,o),
(661,52,o),
(661,116,cs),
(661,217,o),
(693,304,o),
(742,369,c),
(664,472,l),
(553,454,o),
(487,500,o),
(461,577,c),
(405,540,l),
(434,399,o),
(543,341,o),
(631,329,c),
(605,386,l),
(575,314,o),
(563,251,o),
(563,166,cs),
(563,56,o),
(598,-28,o),
(632,-95,c)
);
}
);
vertWidth = 0;
width = 758;
}
);
metricLeft = "dda-beng";
metricRight = "da-beng";
production = uni099C;
script = bengali;
subCategory = Other;
unicode = 2460;
}
